<?xml version="1.0" encoding="utf-8" standalone="no"?>
<!DOCTYPE svg PUBLIC "-//W3C//DTD SVG 1.1//EN"
  "http://www.w3.org/Graphics/SVG/1.1/DTD/svg11.dtd">
<!-- Created with matplotlib (https://matplotlib.org/) -->
<svg height="576pt" version="1.1" viewBox="0 0 720 576" width="720pt" xmlns="http://www.w3.org/2000/svg" xmlns:xlink="http://www.w3.org/1999/xlink">
 <defs>
  <style type="text/css">
*{stroke-linecap:butt;stroke-linejoin:round;}
  </style>
 </defs>
 <g id="figure_1">
  <g id="patch_1">
   <path d="M 0 576 
L 720 576 
L 720 0 
L 0 0 
z
" style="fill:#ffffff;"/>
  </g>
  <g id="axes_1">
   <g id="patch_2">
    <path d="M 90 251.345455 
L 343.636364 251.345455 
L 343.636364 172.8 
L 90 172.8 
z
" style="fill:#ffffff;"/>
   </g>
   <g id="patch_3">
    <path clip-path="url(#p7c6c94ec51)" d="M 101.528926 251.345455 
L 113.992629 251.345455 
L 113.992629 250.624338 
L 101.528926 250.624338 
z
" style="fill:#1f77b4;"/>
   </g>
   <g id="patch_4">
    <path clip-path="url(#p7c6c94ec51)" d="M 117.108555 251.345455 
L 129.572258 251.345455 
L 129.572258 241.346908 
L 117.108555 241.346908 
z
" style="fill:#1f77b4;"/>
   </g>
   <g id="patch_5">
    <path clip-path="url(#p7c6c94ec51)" d="M 132.688184 251.345455 
L 145.151887 251.345455 
L 145.151887 176.54026 
L 132.688184 176.54026 
z
" style="fill:#1f77b4;"/>
   </g>
   <g id="patch_6">
    <path clip-path="url(#p7c6c94ec51)" d="M 148.267813 251.345455 
L 160.731517 251.345455 
L 160.731517 208.02188 
L 148.267813 208.02188 
z
" style="fill:#1f77b4;"/>
   </g>
   <g id="patch_7">
    <path clip-path="url(#p7c6c94ec51)" d="M 163.847442 251.345455 
L 176.311146 251.345455 
L 176.311146 230.732061 
L 163.847442 230.732061 
z
" style="fill:#1f77b4;"/>
   </g>
   <g id="patch_8">
    <path clip-path="url(#p7c6c94ec51)" d="M 179.427072 251.345455 
L 191.890775 251.345455 
L 191.890775 245.983587 
L 179.427072 245.983587 
z
" style="fill:#1f77b4;"/>
   </g>
   <g id="patch_9">
    <path clip-path="url(#p7c6c94ec51)" d="M 195.006701 251.345455 
L 207.470404 251.345455 
L 207.470404 247.354177 
L 195.006701 247.354177 
z
" style="fill:#1f77b4;"/>
   </g>
   <g id="patch_10">
    <path clip-path="url(#p7c6c94ec51)" d="M 210.58633 251.345455 
L 223.050034 251.345455 
L 223.050034 249.621532 
L 210.58633 249.621532 
z
" style="fill:#1f77b4;"/>
   </g>
   <g id="patch_11">
    <path clip-path="url(#p7c6c94ec51)" d="M 226.165959 251.345455 
L 238.629663 251.345455 
L 238.629663 250.796527 
L 226.165959 250.796527 
z
" style="fill:#1f77b4;"/>
   </g>
   <g id="patch_12">
    <path clip-path="url(#p7c6c94ec51)" d="M 241.745589 251.345455 
L 254.209292 251.345455 
L 254.209292 250.950804 
L 241.745589 250.950804 
z
" style="fill:#1f77b4;"/>
   </g>
   <g id="patch_13">
    <path clip-path="url(#p7c6c94ec51)" d="M 257.325218 251.345455 
L 269.788921 251.345455 
L 269.788921 249.594666 
L 257.325218 249.594666 
z
" style="fill:#1f77b4;"/>
   </g>
   <g id="patch_14">
    <path clip-path="url(#p7c6c94ec51)" d="M 272.904847 251.345455 
L 285.36855 251.345455 
L 285.36855 251.345455 
L 272.904847 251.345455 
z
" style="fill:#1f77b4;"/>
   </g>
   <g id="patch_15">
    <path clip-path="url(#p7c6c94ec51)" d="M 288.484476 251.345455 
L 300.94818 251.345455 
L 300.94818 251.345455 
L 288.484476 251.345455 
z
" style="fill:#1f77b4;"/>
   </g>
   <g id="patch_16">
    <path clip-path="url(#p7c6c94ec51)" d="M 304.064105 251.345455 
L 316.527809 251.345455 
L 316.527809 251.345455 
L 304.064105 251.345455 
z
" style="fill:#1f77b4;"/>
   </g>
   <g id="patch_17">
    <path clip-path="url(#p7c6c94ec51)" d="M 319.643735 251.345455 
L 332.107438 251.345455 
L 332.107438 251.345455 
L 319.643735 251.345455 
z
" style="fill:#1f77b4;"/>
   </g>
   <g id="matplotlib.axis_1">
    <g id="xtick_1">
     <g id="line2d_1">
      <defs>
       <path d="M 0 0 
L 0 3.5 
" id="m109aeb2853" style="stroke:#000000;stroke-width:0.8;"/>
      </defs>
      <g>
       <use style="stroke:#000000;stroke-width:0.8;" x="92.181148" xlink:href="#m109aeb2853" y="251.345455"/>
      </g>
     </g>
     <g id="text_1">
      <!-- 0 -->
      <defs>
       <path d="M 4.34375 34.46875 
Q 4.34375 53.515625 10.546875 63.28125 
Q 16.75 73.046875 28.421875 73.046875 
Q 50.828125 73.046875 50.828125 36.234375 
Q 50.828125 18.0625 44.59375 8.421875 
Q 38.375 -1.21875 26.8125 -1.21875 
Q 15.875 -1.21875 10.109375 8.125 
Q 4.34375 17.484375 4.34375 34.46875 
z
M 12.25 34.859375 
Q 12.25 5.375 27.640625 5.375 
Q 42.921875 5.375 42.921875 35.296875 
Q 42.921875 66.40625 28.03125 66.40625 
Q 12.25 66.40625 12.25 34.859375 
z
" id="MalgunGothic-48"/>
      </defs>
      <g transform="translate(89.427242 265.937642)scale(0.1 -0.1)">
       <use xlink:href="#MalgunGothic-48"/>
      </g>
     </g>
    </g>
    <g id="xtick_2">
     <g id="line2d_2">
      <g>
       <use style="stroke:#000000;stroke-width:0.8;" x="107.760777" xlink:href="#m109aeb2853" y="251.345455"/>
      </g>
     </g>
     <g id="text_2">
      <!-- 1 -->
      <defs>
       <path d="M 34.859375 0 
L 27.09375 0 
L 27.09375 62.0625 
Q 24.859375 59.8125 19.78125 57.203125 
Q 14.703125 54.59375 10.5 53.5625 
L 10.5 61.859375 
Q 15.875 63.375 22.015625 66.796875 
Q 28.171875 70.21875 31.734375 73.4375 
L 34.859375 73.4375 
z
" id="MalgunGothic-49"/>
      </defs>
      <g transform="translate(105.006871 265.937642)scale(0.1 -0.1)">
       <use xlink:href="#MalgunGothic-49"/>
      </g>
     </g>
    </g>
    <g id="xtick_3">
     <g id="line2d_3">
      <g>
       <use style="stroke:#000000;stroke-width:0.8;" x="123.340407" xlink:href="#m109aeb2853" y="251.345455"/>
      </g>
     </g>
     <g id="text_3">
      <!-- 2 -->
      <defs>
       <path d="M 39.359375 52.6875 
Q 39.359375 59.125 35.546875 62.78125 
Q 31.734375 66.453125 25.4375 66.453125 
Q 20.953125 66.453125 16.453125 64.125 
Q 11.96875 61.8125 8.34375 57.765625 
L 8.34375 66.15625 
Q 15.328125 73.046875 26.421875 73.046875 
Q 35.640625 73.046875 41.28125 67.71875 
Q 46.921875 62.40625 46.921875 53.375 
Q 46.921875 45.609375 43.3125 39.765625 
Q 39.703125 33.9375 31 27.734375 
Q 22.796875 21.96875 19.59375 18.984375 
Q 16.40625 16.015625 15.109375 13.34375 
Q 13.8125 10.6875 13.8125 7.03125 
L 48.6875 7.03125 
L 48.6875 0 
L 5.5625 0 
L 5.5625 3.515625 
Q 5.5625 9.421875 7.203125 13.59375 
Q 8.84375 17.78125 12.671875 21.75 
Q 16.5 25.734375 24.953125 31.59375 
Q 32.671875 36.921875 36.015625 41.71875 
Q 39.359375 46.53125 39.359375 52.6875 
z
" id="MalgunGothic-50"/>
      </defs>
      <g transform="translate(120.5865 265.937642)scale(0.1 -0.1)">
       <use xlink:href="#MalgunGothic-50"/>
      </g>
     </g>
    </g>
    <g id="xtick_4">
     <g id="line2d_4">
      <g>
       <use style="stroke:#000000;stroke-width:0.8;" x="138.920036" xlink:href="#m109aeb2853" y="251.345455"/>
      </g>
     </g>
     <g id="text_4">
      <!-- 3 -->
      <defs>
       <path d="M 6.5 11.234375 
Q 13.921875 5.375 23.09375 5.375 
Q 30.609375 5.375 35.21875 9.171875 
Q 39.84375 12.984375 39.84375 19.484375 
Q 39.84375 33.890625 19.578125 33.890625 
L 13.625 33.890625 
L 13.625 40.484375 
L 19.28125 40.484375 
Q 37.3125 40.484375 37.3125 53.953125 
Q 37.3125 66.40625 23.578125 66.40625 
Q 15.96875 66.40625 9.28125 61.1875 
L 9.28125 68.953125 
Q 16.109375 73.046875 25.53125 73.046875 
Q 34.125 73.046875 39.671875 68.3125 
Q 45.21875 63.578125 45.21875 55.953125 
Q 45.21875 41.84375 30.8125 37.640625 
L 30.8125 37.5 
Q 38.578125 36.8125 43.1875 32.078125 
Q 47.796875 27.34375 47.796875 20.3125 
Q 47.796875 10.5 40.6875 4.640625 
Q 33.59375 -1.21875 22.65625 -1.21875 
Q 12.59375 -1.21875 6.5 2.640625 
z
" id="MalgunGothic-51"/>
      </defs>
      <g transform="translate(136.166129 265.937642)scale(0.1 -0.1)">
       <use xlink:href="#MalgunGothic-51"/>
      </g>
     </g>
    </g>
    <g id="xtick_5">
     <g id="line2d_5">
      <g>
       <use style="stroke:#000000;stroke-width:0.8;" x="154.499665" xlink:href="#m109aeb2853" y="251.345455"/>
      </g>
     </g>
     <g id="text_5">
      <!-- 4 -->
      <defs>
       <path d="M 42.234375 71.875 
L 42.234375 24.421875 
L 51.703125 24.421875 
L 51.703125 17.390625 
L 42.234375 17.390625 
L 42.234375 0 
L 34.578125 0 
L 34.578125 17.390625 
L 0.78125 17.390625 
L 0.78125 23.96875 
Q 11.375 35.890625 20.234375 48.578125 
Q 29.109375 61.28125 33.9375 71.875 
z
M 9.765625 24.421875 
L 34.578125 24.421875 
L 34.578125 59.859375 
Q 25.203125 43.5625 14.984375 30.953125 
z
" id="MalgunGothic-52"/>
      </defs>
      <g transform="translate(151.745759 265.937642)scale(0.1 -0.1)">
       <use xlink:href="#MalgunGothic-52"/>
      </g>
     </g>
    </g>
    <g id="xtick_6">
     <g id="line2d_6">
      <g>
       <use style="stroke:#000000;stroke-width:0.8;" x="170.079294" xlink:href="#m109aeb2853" y="251.345455"/>
      </g>
     </g>
     <g id="text_6">
      <!-- 5 -->
      <defs>
       <path d="M 48 21.921875 
Q 48 11.28125 41.1875 5.03125 
Q 34.375 -1.21875 22.953125 -1.21875 
Q 12.9375 -1.21875 8.0625 1.765625 
L 8.0625 10.15625 
Q 15.53125 5.375 23.046875 5.375 
Q 30.765625 5.375 35.46875 9.84375 
Q 40.1875 14.3125 40.1875 21.4375 
Q 40.1875 28.71875 35.390625 32.6875 
Q 30.609375 36.671875 21.578125 36.671875 
Q 15.53125 36.671875 9.421875 35.9375 
L 11.859375 71.875 
L 44.828125 71.875 
L 44.828125 64.796875 
L 18.84375 64.796875 
L 17.28125 43.171875 
Q 21.046875 43.5 24.171875 43.5 
Q 35.359375 43.5 41.671875 37.71875 
Q 48 31.9375 48 21.921875 
z
" id="MalgunGothic-53"/>
      </defs>
      <g transform="translate(167.325388 265.937642)scale(0.1 -0.1)">
       <use xlink:href="#MalgunGothic-53"/>
      </g>
     </g>
    </g>
    <g id="xtick_7">
     <g id="line2d_7">
      <g>
       <use style="stroke:#000000;stroke-width:0.8;" x="185.658923" xlink:href="#m109aeb2853" y="251.345455"/>
      </g>
     </g>
     <g id="text_7">
      <!-- 6 -->
      <defs>
       <path d="M 46.578125 63.578125 
Q 40.921875 66.40625 34.8125 66.40625 
Q 24.859375 66.40625 19.1875 57.640625 
Q 13.53125 48.875 13.578125 34.578125 
L 13.8125 34.578125 
Q 18.796875 44.875 30.28125 44.875 
Q 39.796875 44.875 45.359375 38.71875 
Q 50.921875 32.5625 50.921875 22.65625 
Q 50.921875 12.453125 44.640625 5.609375 
Q 38.375 -1.21875 28.515625 -1.21875 
Q 17.4375 -1.21875 11.5 7.46875 
Q 5.5625 16.15625 5.5625 31.546875 
Q 5.5625 49.703125 13.234375 61.375 
Q 20.90625 73.046875 34.71875 73.046875 
Q 42.1875 73.046875 46.578125 71 
z
M 14.15625 23.53125 
Q 14.15625 15.96875 18.203125 10.671875 
Q 22.265625 5.375 28.8125 5.375 
Q 35.109375 5.375 39.03125 10.078125 
Q 42.96875 14.796875 42.96875 21.6875 
Q 42.96875 29.5 39.203125 33.859375 
Q 35.453125 38.234375 28.71875 38.234375 
Q 22.5625 38.234375 18.359375 33.953125 
Q 14.15625 29.6875 14.15625 23.53125 
z
" id="MalgunGothic-54"/>
      </defs>
      <g transform="translate(182.905017 265.937642)scale(0.1 -0.1)">
       <use xlink:href="#MalgunGothic-54"/>
      </g>
     </g>
    </g>
    <g id="xtick_8">
     <g id="line2d_8">
      <g>
       <use style="stroke:#000000;stroke-width:0.8;" x="201.238553" xlink:href="#m109aeb2853" y="251.345455"/>
      </g>
     </g>
     <g id="text_8">
      <!-- 7 -->
      <defs>
       <path d="M 50.203125 67.140625 
Q 38.71875 46.96875 32.25 29.96875 
Q 25.78125 12.984375 24.21875 0 
L 15.765625 0 
Q 16.9375 8.296875 20.15625 18.375 
Q 23.390625 28.46875 28.359375 39.640625 
Q 33.34375 50.828125 41.109375 64.796875 
L 4.546875 64.796875 
L 4.546875 71.875 
L 50.203125 71.875 
z
" id="MalgunGothic-55"/>
      </defs>
      <g transform="translate(198.484646 265.937642)scale(0.1 -0.1)">
       <use xlink:href="#MalgunGothic-55"/>
      </g>
     </g>
    </g>
    <g id="xtick_9">
     <g id="line2d_9">
      <g>
       <use style="stroke:#000000;stroke-width:0.8;" x="216.818182" xlink:href="#m109aeb2853" y="251.345455"/>
      </g>
     </g>
     <g id="text_9">
      <!-- 8 -->
      <defs>
       <path d="M 4.734375 20.015625 
Q 4.734375 26.078125 8.421875 31.421875 
Q 12.109375 36.765625 18.015625 38.96875 
Q 13.375 41.359375 10.546875 45.546875 
Q 7.71875 49.75 7.71875 54.6875 
Q 7.71875 59.8125 10.296875 64.03125 
Q 12.890625 68.265625 17.53125 70.65625 
Q 22.171875 73.046875 27.78125 73.046875 
Q 36.46875 73.046875 42.1875 67.84375 
Q 47.90625 62.640625 47.90625 54.6875 
Q 47.90625 49.703125 45.015625 45.53125 
Q 42.140625 41.359375 37.703125 38.96875 
Q 43.5625 36.71875 47.21875 31.390625 
Q 50.875 26.078125 50.875 20.015625 
Q 50.875 10.5 44.421875 4.640625 
Q 37.984375 -1.21875 27.78125 -1.21875 
Q 17.671875 -1.21875 11.203125 4.703125 
Q 4.734375 10.640625 4.734375 20.015625 
z
M 12.640625 20.75 
Q 12.640625 13.71875 16.890625 9.546875 
Q 21.140625 5.375 27.828125 5.375 
Q 34.46875 5.375 38.78125 9.671875 
Q 43.109375 13.96875 43.109375 20.75 
Q 43.109375 27.046875 38.78125 31.421875 
Q 34.46875 35.796875 27.828125 35.796875 
Q 21.4375 35.796875 17.03125 31.5625 
Q 12.640625 27.34375 12.640625 20.75 
z
M 15.671875 54.046875 
Q 15.671875 48.828125 19.28125 45.3125 
Q 22.90625 41.796875 27.828125 41.796875 
Q 32.765625 41.796875 36.40625 45.3125 
Q 40.046875 48.828125 40.046875 54.046875 
Q 40.046875 59.421875 36.578125 62.90625 
Q 33.109375 66.40625 27.828125 66.40625 
Q 22.65625 66.40625 19.15625 62.953125 
Q 15.671875 59.515625 15.671875 54.046875 
z
" id="MalgunGothic-56"/>
      </defs>
      <g transform="translate(214.064276 265.937642)scale(0.1 -0.1)">
       <use xlink:href="#MalgunGothic-56"/>
      </g>
     </g>
    </g>
    <g id="xtick_10">
     <g id="line2d_10">
      <g>
       <use style="stroke:#000000;stroke-width:0.8;" x="232.397811" xlink:href="#m109aeb2853" y="251.345455"/>
      </g>
     </g>
     <g id="text_10">
      <!-- 9 -->
      <defs>
       <path d="M 8.6875 8.796875 
Q 14.703125 5.375 21.34375 5.375 
Q 31.15625 5.375 36.671875 13.359375 
Q 42.1875 21.34375 42.1875 36.140625 
Q 42.09375 36.03125 42 36.140625 
Q 37.3125 26.765625 25.828125 26.765625 
Q 16.546875 26.765625 10.65625 33.125 
Q 4.78125 39.5 4.78125 49.125 
Q 4.78125 59.46875 11.109375 66.25 
Q 17.4375 73.046875 27.6875 73.046875 
Q 38.53125 73.046875 44.265625 64.546875 
Q 50 56.0625 50 40.28125 
Q 50 20.609375 42.453125 9.6875 
Q 34.90625 -1.21875 21 -1.21875 
Q 13.765625 -1.21875 8.6875 1.21875 
z
M 12.703125 50.296875 
Q 12.703125 42.828125 16.609375 38.28125 
Q 20.515625 33.734375 27.484375 33.734375 
Q 33.546875 33.734375 37.59375 37.765625 
Q 41.65625 41.796875 41.65625 47.609375 
Q 41.65625 55.5625 37.671875 60.984375 
Q 33.6875 66.40625 26.953125 66.40625 
Q 20.65625 66.40625 16.671875 61.6875 
Q 12.703125 56.984375 12.703125 50.296875 
z
" id="MalgunGothic-57"/>
      </defs>
      <g transform="translate(229.643905 265.937642)scale(0.1 -0.1)">
       <use xlink:href="#MalgunGothic-57"/>
      </g>
     </g>
    </g>
    <g id="xtick_11">
     <g id="line2d_11">
      <g>
       <use style="stroke:#000000;stroke-width:0.8;" x="247.97744" xlink:href="#m109aeb2853" y="251.345455"/>
      </g>
     </g>
     <g id="text_11">
      <!-- 10 -->
      <g transform="translate(242.469628 265.937642)scale(0.1 -0.1)">
       <use xlink:href="#MalgunGothic-49"/>
       <use x="55.078125" xlink:href="#MalgunGothic-48"/>
      </g>
     </g>
    </g>
    <g id="xtick_12">
     <g id="line2d_12">
      <g>
       <use style="stroke:#000000;stroke-width:0.8;" x="263.557069" xlink:href="#m109aeb2853" y="251.345455"/>
      </g>
     </g>
     <g id="text_12">
      <!-- 11 -->
      <g transform="translate(258.049257 265.937642)scale(0.1 -0.1)">
       <use xlink:href="#MalgunGothic-49"/>
       <use x="55.078125" xlink:href="#MalgunGothic-49"/>
      </g>
     </g>
    </g>
    <g id="xtick_13">
     <g id="line2d_13">
      <g>
       <use style="stroke:#000000;stroke-width:0.8;" x="279.136699" xlink:href="#m109aeb2853" y="251.345455"/>
      </g>
     </g>
     <g id="text_13">
      <!-- 12 -->
      <g transform="translate(273.628886 265.937642)scale(0.1 -0.1)">
       <use xlink:href="#MalgunGothic-49"/>
       <use x="55.078125" xlink:href="#MalgunGothic-50"/>
      </g>
     </g>
    </g>
    <g id="xtick_14">
     <g id="line2d_14">
      <g>
       <use style="stroke:#000000;stroke-width:0.8;" x="294.716328" xlink:href="#m109aeb2853" y="251.345455"/>
      </g>
     </g>
     <g id="text_14">
      <!-- 13 -->
      <g transform="translate(289.208515 265.937642)scale(0.1 -0.1)">
       <use xlink:href="#MalgunGothic-49"/>
       <use x="55.078125" xlink:href="#MalgunGothic-51"/>
      </g>
     </g>
    </g>
    <g id="xtick_15">
     <g id="line2d_15">
      <g>
       <use style="stroke:#000000;stroke-width:0.8;" x="310.295957" xlink:href="#m109aeb2853" y="251.345455"/>
      </g>
     </g>
     <g id="text_15">
      <!-- 14 -->
      <g transform="translate(304.788145 265.937642)scale(0.1 -0.1)">
       <use xlink:href="#MalgunGothic-49"/>
       <use x="55.078125" xlink:href="#MalgunGothic-52"/>
      </g>
     </g>
    </g>
    <g id="xtick_16">
     <g id="line2d_16">
      <g>
       <use style="stroke:#000000;stroke-width:0.8;" x="325.875586" xlink:href="#m109aeb2853" y="251.345455"/>
      </g>
     </g>
     <g id="text_16">
      <!-- 15 -->
      <g transform="translate(320.367774 265.937642)scale(0.1 -0.1)">
       <use xlink:href="#MalgunGothic-49"/>
       <use x="55.078125" xlink:href="#MalgunGothic-53"/>
      </g>
     </g>
    </g>
    <g id="xtick_17">
     <g id="line2d_17">
      <g>
       <use style="stroke:#000000;stroke-width:0.8;" x="341.455216" xlink:href="#m109aeb2853" y="251.345455"/>
      </g>
     </g>
     <g id="text_17">
      <!-- 16 -->
      <g transform="translate(335.947403 265.937642)scale(0.1 -0.1)">
       <use xlink:href="#MalgunGothic-49"/>
       <use x="55.078125" xlink:href="#MalgunGothic-54"/>
      </g>
     </g>
    </g>
    <g id="text_18">
     <!-- Period -->
     <defs>
      <path d="M 17.390625 27.296875 
L 17.390625 0 
L 9.515625 0 
L 9.515625 71.875 
L 28.90625 71.875 
Q 40.234375 71.875 46.546875 66.25 
Q 52.875 60.640625 52.875 50.484375 
Q 52.875 39.984375 45.453125 33.4375 
Q 38.03125 26.90625 27 27.296875 
z
M 17.390625 64.546875 
L 17.390625 34.671875 
L 26.421875 34.671875 
Q 35.25 34.671875 39.90625 38.671875 
Q 44.578125 42.671875 44.578125 50.09375 
Q 44.578125 64.546875 27.484375 64.546875 
z
" id="MalgunGothic-80"/>
      <path d="M 49.3125 23.734375 
L 12.9375 23.734375 
Q 13.1875 14.84375 17.703125 10.125 
Q 22.21875 5.421875 29.828125 5.421875 
Q 38.625 5.421875 45.84375 11.234375 
L 45.84375 3.8125 
Q 38.96875 -1.21875 28.03125 -1.21875 
Q 17.1875 -1.21875 11.0625 5.875 
Q 4.9375 12.984375 4.9375 25.53125 
Q 4.9375 37.203125 11.671875 44.84375 
Q 18.40625 52.484375 28.375 52.484375 
Q 38.328125 52.484375 43.8125 45.96875 
Q 49.3125 39.453125 49.3125 27.9375 
z
M 41.3125 30.5625 
Q 41.3125 37.75 37.859375 41.796875 
Q 34.421875 45.84375 28.265625 45.84375 
Q 22.46875 45.84375 18.265625 41.671875 
Q 14.0625 37.5 13.03125 30.5625 
z
" id="MalgunGothic-101"/>
      <path d="M 34.765625 43.359375 
Q 32.5625 45.015625 28.5625 45.015625 
Q 23.296875 45.015625 19.71875 39.890625 
Q 16.15625 34.765625 16.15625 26.265625 
L 16.15625 0 
L 8.40625 0 
L 8.40625 51.3125 
L 16.15625 51.3125 
L 16.15625 40.671875 
L 16.359375 40.671875 
Q 18.109375 46.09375 21.703125 49.140625 
Q 25.296875 52.203125 29.734375 52.203125 
Q 32.953125 52.203125 34.765625 51.515625 
z
" id="MalgunGothic-114"/>
      <path d="M 7.375 69.78125 
Q 7.375 71.96875 8.828125 73.453125 
Q 10.296875 74.953125 12.40625 74.953125 
Q 14.59375 74.953125 16.078125 73.4375 
Q 17.578125 71.921875 17.578125 69.78125 
Q 17.578125 67.578125 16.078125 66.109375 
Q 14.59375 64.65625 12.40625 64.65625 
Q 10.296875 64.65625 8.828125 66.09375 
Q 7.375 67.53125 7.375 69.78125 
z
M 8.453125 0 
L 8.453125 51.3125 
L 16.15625 51.3125 
L 16.15625 0 
z
" id="MalgunGothic-105"/>
      <path d="M 4.9375 25 
Q 4.9375 37.796875 11.890625 45.140625 
Q 18.84375 52.484375 30.90625 52.484375 
Q 42.140625 52.484375 48.609375 45.421875 
Q 55.078125 38.375 55.078125 25.78125 
Q 55.078125 13.578125 48.09375 6.171875 
Q 41.109375 -1.21875 29.6875 -1.21875 
Q 18.5 -1.21875 11.71875 6 
Q 4.9375 13.234375 4.9375 25 
z
M 12.796875 25.34375 
Q 12.796875 16.265625 17.546875 10.8125 
Q 22.3125 5.375 30.21875 5.375 
Q 38.421875 5.375 42.796875 10.625 
Q 47.171875 15.875 47.171875 25.53125 
Q 47.171875 35.25 42.765625 40.59375 
Q 38.375 45.953125 30.21875 45.953125 
Q 22.265625 45.953125 17.53125 40.421875 
Q 12.796875 34.90625 12.796875 25.34375 
z
" id="MalgunGothic-111"/>
      <path d="M 51.765625 0 
L 44.09375 0 
L 44.09375 8.84375 
L 43.890625 8.84375 
Q 38.1875 -1.21875 26.171875 -1.21875 
Q 16.5 -1.21875 10.71875 5.6875 
Q 4.9375 12.59375 4.9375 24.46875 
Q 4.9375 37.109375 11.375 44.796875 
Q 17.828125 52.484375 28.375 52.484375 
Q 38.96875 52.484375 43.890625 44.09375 
L 44.09375 44.09375 
L 44.09375 75.921875 
L 51.765625 75.921875 
z
M 44.09375 30.90625 
Q 44.09375 37.15625 39.84375 41.546875 
Q 35.59375 45.953125 29.25 45.953125 
Q 21.625 45.953125 17.203125 40.265625 
Q 12.796875 34.578125 12.796875 24.859375 
Q 12.796875 16.015625 16.96875 10.6875 
Q 21.140625 5.375 28.328125 5.375 
Q 35.15625 5.375 39.625 10.40625 
Q 44.09375 15.4375 44.09375 23.09375 
z
" id="MalgunGothic-100"/>
     </defs>
     <g transform="translate(196.751151 282.930767)scale(0.14 -0.14)">
      <use xlink:href="#MalgunGothic-80"/>
      <use x="53.080078" xlink:href="#MalgunGothic-101"/>
      <use x="106.595703" xlink:href="#MalgunGothic-114"/>
      <use x="141.947266" xlink:href="#MalgunGothic-105"/>
      <use x="166.556641" xlink:href="#MalgunGothic-111"/>
      <use x="226.46875" xlink:href="#MalgunGothic-100"/>
     </g>
    </g>
   </g>
   <g id="matplotlib.axis_2">
    <g id="ytick_1">
     <g id="line2d_18">
      <defs>
       <path d="M 0 0 
L -3.5 0 
" id="mb0bc7fe29c" style="stroke:#000000;stroke-width:0.8;"/>
      </defs>
      <g>
       <use style="stroke:#000000;stroke-width:0.8;" x="90" xlink:href="#mb0bc7fe29c" y="251.345455"/>
      </g>
     </g>
     <g id="text_19">
      <!-- 0.0 -->
      <defs>
       <path d="M 5.5625 4.296875 
Q 5.5625 6.59375 7.171875 8.171875 
Q 8.796875 9.765625 10.9375 9.765625 
Q 13.09375 9.765625 14.703125 8.171875 
Q 16.3125 6.59375 16.3125 4.296875 
Q 16.3125 2.15625 14.71875 0.515625 
Q 13.140625 -1.125 10.9375 -1.125 
Q 8.734375 -1.125 7.140625 0.453125 
Q 5.5625 2.046875 5.5625 4.296875 
z
" id="MalgunGothic-46"/>
      </defs>
      <g transform="translate(69.796875 255.141548)scale(0.1 -0.1)">
       <use xlink:href="#MalgunGothic-48"/>
       <use x="55.078125" xlink:href="#MalgunGothic-46"/>
       <use x="76.953125" xlink:href="#MalgunGothic-48"/>
      </g>
     </g>
    </g>
    <g id="ytick_2">
     <g id="line2d_19">
      <g>
       <use style="stroke:#000000;stroke-width:0.8;" x="90" xlink:href="#mb0bc7fe29c" y="235.022129"/>
      </g>
     </g>
     <g id="text_20">
      <!-- 0.1 -->
      <g transform="translate(69.796875 238.818222)scale(0.1 -0.1)">
       <use xlink:href="#MalgunGothic-48"/>
       <use x="55.078125" xlink:href="#MalgunGothic-46"/>
       <use x="76.953125" xlink:href="#MalgunGothic-49"/>
      </g>
     </g>
    </g>
    <g id="ytick_3">
     <g id="line2d_20">
      <g>
       <use style="stroke:#000000;stroke-width:0.8;" x="90" xlink:href="#mb0bc7fe29c" y="218.698802"/>
      </g>
     </g>
     <g id="text_21">
      <!-- 0.2 -->
      <g transform="translate(69.796875 222.494896)scale(0.1 -0.1)">
       <use xlink:href="#MalgunGothic-48"/>
       <use x="55.078125" xlink:href="#MalgunGothic-46"/>
       <use x="76.953125" xlink:href="#MalgunGothic-50"/>
      </g>
     </g>
    </g>
    <g id="ytick_4">
     <g id="line2d_21">
      <g>
       <use style="stroke:#000000;stroke-width:0.8;" x="90" xlink:href="#mb0bc7fe29c" y="202.375476"/>
      </g>
     </g>
     <g id="text_22">
      <!-- 0.3 -->
      <g transform="translate(69.796875 206.17157)scale(0.1 -0.1)">
       <use xlink:href="#MalgunGothic-48"/>
       <use x="55.078125" xlink:href="#MalgunGothic-46"/>
       <use x="76.953125" xlink:href="#MalgunGothic-51"/>
      </g>
     </g>
    </g>
    <g id="ytick_5">
     <g id="line2d_22">
      <g>
       <use style="stroke:#000000;stroke-width:0.8;" x="90" xlink:href="#mb0bc7fe29c" y="186.05215"/>
      </g>
     </g>
     <g id="text_23">
      <!-- 0.4 -->
      <g transform="translate(69.796875 189.848244)scale(0.1 -0.1)">
       <use xlink:href="#MalgunGothic-48"/>
       <use x="55.078125" xlink:href="#MalgunGothic-46"/>
       <use x="76.953125" xlink:href="#MalgunGothic-52"/>
      </g>
     </g>
    </g>
    <g id="text_24">
     <!-- Ratio -->
     <defs>
      <path d="M 60.40625 0 
L 50.921875 0 
L 38.875 20.21875 
Q 35.015625 26.65625 31.9375 28.703125 
Q 28.859375 30.765625 24.515625 30.765625 
L 17.390625 30.765625 
L 17.390625 0 
L 9.515625 0 
L 9.515625 71.875 
L 30.671875 71.875 
Q 40.578125 71.875 46.40625 66.75 
Q 52.25 61.625 52.25 52.734375 
Q 52.25 37.84375 36.328125 33.40625 
L 36.328125 33.203125 
Q 39.359375 31.890625 41.328125 29.71875 
Q 43.3125 27.546875 46.96875 21.578125 
z
M 17.390625 64.5 
L 17.390625 38.09375 
L 29.15625 38.09375 
Q 35.796875 38.09375 39.875 41.96875 
Q 43.953125 45.84375 43.953125 52.09375 
Q 43.953125 57.953125 40.15625 61.21875 
Q 36.375 64.5 29.25 64.5 
z
" id="MalgunGothic-82"/>
      <path d="M 9.625 47.65625 
Q 17.140625 52.484375 26.90625 52.484375 
Q 44.78125 52.484375 44.78125 33.546875 
L 44.78125 0 
L 37.015625 0 
L 37.015625 8.0625 
L 36.71875 8.0625 
Q 31.390625 -1.21875 20.953125 -1.21875 
Q 13.421875 -1.21875 9 2.8125 
Q 4.59375 6.84375 4.59375 13.578125 
Q 4.59375 27.875 21.484375 30.21875 
L 36.96875 32.46875 
Q 36.96875 45.84375 26.3125 45.84375 
Q 16.9375 45.84375 9.625 39.453125 
z
M 24.421875 24.359375 
Q 18.40625 23.578125 15.515625 21.421875 
Q 12.640625 19.28125 12.640625 14.109375 
Q 12.640625 10.203125 15.40625 7.8125 
Q 18.171875 5.421875 22.65625 5.421875 
Q 28.859375 5.421875 32.90625 9.8125 
Q 36.96875 14.203125 36.96875 20.84375 
L 36.96875 26.03125 
z
" id="MalgunGothic-97"/>
      <path d="M 31.734375 0.484375 
Q 28.8125 -1.125 24.265625 -1.125 
Q 11.03125 -1.125 11.03125 13.765625 
L 11.03125 44.625 
L 2.15625 44.625 
L 2.15625 51.3125 
L 11.03125 51.3125 
L 11.03125 63.921875 
L 18.75 66.40625 
L 18.75 51.3125 
L 31.734375 51.3125 
L 31.734375 44.625 
L 18.75 44.625 
L 18.75 15.1875 
Q 18.75 9.765625 20.546875 7.609375 
Q 22.359375 5.46875 26.421875 5.46875 
Q 29.5 5.46875 31.734375 7.171875 
z
" id="MalgunGothic-116"/>
     </defs>
     <g transform="translate(62.487187 228.31054)rotate(-90)scale(0.14 -0.14)">
      <use xlink:href="#MalgunGothic-82"/>
      <use x="60.986328" xlink:href="#MalgunGothic-97"/>
      <use x="112.988281" xlink:href="#MalgunGothic-116"/>
      <use x="147.460938" xlink:href="#MalgunGothic-105"/>
      <use x="172.070312" xlink:href="#MalgunGothic-111"/>
     </g>
    </g>
   </g>
   <g id="patch_18">
    <path d="M 90 251.345455 
L 90 172.8 
" style="fill:none;stroke:#000000;stroke-linecap:square;stroke-linejoin:miter;stroke-width:0.8;"/>
   </g>
   <g id="patch_19">
    <path d="M 343.636364 251.345455 
L 343.636364 172.8 
" style="fill:none;stroke:#000000;stroke-linecap:square;stroke-linejoin:miter;stroke-width:0.8;"/>
   </g>
   <g id="patch_20">
    <path d="M 90 251.345455 
L 343.636364 251.345455 
" style="fill:none;stroke:#000000;stroke-linecap:square;stroke-linejoin:miter;stroke-width:0.8;"/>
   </g>
   <g id="patch_21">
    <path d="M 90 172.8 
L 343.636364 172.8 
" style="fill:none;stroke:#000000;stroke-linecap:square;stroke-linejoin:miter;stroke-width:0.8;"/>
   </g>
   <g id="text_25">
    <!-- Stay Period (Total Tourists) -->
    <defs>
     <path d="M 6.15625 12.453125 
Q 9.46875 9.578125 15.0625 7.8125 
Q 20.65625 6.0625 25.390625 6.0625 
Q 41.0625 6.0625 41.0625 17.4375 
Q 41.0625 20.703125 39.421875 23.1875 
Q 37.796875 25.6875 35.15625 27.4375 
Q 32.515625 29.203125 24.171875 33.5 
Q 14.109375 38.671875 10.171875 43.03125 
Q 6.25 47.40625 6.25 54 
Q 6.25 62.796875 13.40625 67.921875 
Q 20.5625 73.046875 31.0625 73.046875 
Q 41.703125 73.046875 46.296875 70.515625 
L 46.296875 61.375 
Q 40.046875 65.71875 30.03125 65.71875 
Q 23.1875 65.71875 18.859375 62.78125 
Q 14.546875 59.859375 14.546875 54.6875 
Q 14.546875 50 17.59375 47.046875 
Q 20.65625 44.09375 30.28125 39.40625 
Q 41.5 33.796875 45.40625 28.8125 
Q 49.3125 23.828125 49.3125 18.015625 
Q 49.3125 8.6875 42.578125 3.734375 
Q 35.84375 -1.21875 23.921875 -1.21875 
Q 20.171875 -1.21875 14.484375 -0.015625 
Q 8.796875 1.171875 6.15625 2.9375 
z
" id="MalgunGothic-83"/>
     <path d="M 48.734375 51.3125 
L 24.953125 -8.5 
Q 18.703125 -24.171875 7.515625 -24.171875 
Q 4.890625 -24.171875 2.4375 -23.578125 
L 2.4375 -16.5 
Q 4.9375 -17.328125 7.171875 -17.328125 
Q 13.421875 -17.328125 16.546875 -9.8125 
L 20.75 0.09375 
L 0.734375 51.3125 
L 9.328125 51.3125 
L 23.484375 11.28125 
Q 23.640625 10.890625 24.5625 7.625 
L 24.8125 7.625 
L 25.78125 11.1875 
L 40.671875 51.3125 
z
" id="MalgunGothic-121"/>
     <path id="MalgunGothic-32"/>
     <path d="M 22.46875 -16.3125 
Q 6.984375 1.375 6.984375 27.390625 
Q 6.984375 53.609375 22.46875 71.875 
L 29.5 71.875 
Q 13.71875 52.6875 13.71875 27.484375 
Q 13.71875 2.390625 29.390625 -16.3125 
z
" id="MalgunGothic-40"/>
     <path d="M 51.46875 64.59375 
L 30.71875 64.59375 
L 30.71875 0 
L 22.75 0 
L 22.75 64.59375 
L 2.09375 64.59375 
L 2.09375 71.875 
L 51.46875 71.875 
z
" id="MalgunGothic-84"/>
     <path d="M 8.453125 0 
L 8.453125 75.921875 
L 16.15625 75.921875 
L 16.15625 0 
z
" id="MalgunGothic-108"/>
     <path d="M 49.46875 0 
L 41.703125 0 
L 41.703125 8.109375 
L 41.5 8.109375 
Q 36.421875 -1.21875 25.6875 -1.21875 
Q 7.328125 -1.21875 7.328125 20.65625 
L 7.328125 51.3125 
L 14.984375 51.3125 
L 14.984375 21.921875 
Q 14.984375 5.375 27.59375 5.375 
Q 33.734375 5.375 37.71875 9.9375 
Q 41.703125 14.5 41.703125 21.78125 
L 41.703125 51.3125 
L 49.46875 51.3125 
z
" id="MalgunGothic-117"/>
     <path d="M 5.171875 10.453125 
Q 11.921875 5.46875 19.96875 5.46875 
Q 30.90625 5.46875 30.90625 12.84375 
Q 30.90625 16.015625 28.515625 18.09375 
Q 26.125 20.171875 19.09375 22.796875 
Q 10.984375 26.03125 8.125 29.34375 
Q 5.28125 32.671875 5.28125 37.75 
Q 5.28125 44.28125 10.9375 48.375 
Q 16.609375 52.484375 24.75 52.484375 
Q 31.296875 52.484375 36.578125 50.203125 
L 36.578125 42.140625 
Q 30.859375 45.84375 23.53125 45.84375 
Q 18.75 45.84375 16.015625 43.71875 
Q 13.28125 41.609375 13.28125 38.421875 
Q 13.28125 35.015625 15.296875 33.203125 
Q 17.328125 31.390625 24.125 28.71875 
Q 33.296875 25.140625 36.078125 21.71875 
Q 38.875 18.3125 38.875 13.578125 
Q 38.875 6.734375 33.234375 2.75 
Q 27.59375 -1.21875 18.796875 -1.21875 
Q 10.84375 -1.21875 5.171875 1.90625 
z
" id="MalgunGothic-115"/>
     <path d="M 1.265625 -16.3125 
Q 16.890625 2.34375 16.890625 27.484375 
Q 16.890625 52.78125 1.125 71.875 
L 8.203125 71.875 
Q 23.78125 53.609375 23.78125 27.390625 
Q 23.78125 1.375 8.203125 -16.3125 
z
" id="MalgunGothic-41"/>
    </defs>
    <g transform="translate(115.338807 166.8)scale(0.17 -0.17)">
     <use xlink:href="#MalgunGothic-83"/>
     <use x="50.796875" xlink:href="#MalgunGothic-116"/>
     <use x="85.269531" xlink:href="#MalgunGothic-97"/>
     <use x="137.271484" xlink:href="#MalgunGothic-121"/>
     <use x="186.539062" xlink:href="#MalgunGothic-32"/>
     <use x="221.695312" xlink:href="#MalgunGothic-80"/>
     <use x="274.775391" xlink:href="#MalgunGothic-101"/>
     <use x="328.291016" xlink:href="#MalgunGothic-114"/>
     <use x="363.642578" xlink:href="#MalgunGothic-105"/>
     <use x="388.251953" xlink:href="#MalgunGothic-111"/>
     <use x="448.164062" xlink:href="#MalgunGothic-100"/>
     <use x="508.369141" xlink:href="#MalgunGothic-32"/>
     <use x="543.525391" xlink:href="#MalgunGothic-40"/>
     <use x="573.994141" xlink:href="#MalgunGothic-84"/>
     <use x="616.238281" xlink:href="#MalgunGothic-111"/>
     <use x="676.150391" xlink:href="#MalgunGothic-116"/>
     <use x="710.623047" xlink:href="#MalgunGothic-97"/>
     <use x="762.625" xlink:href="#MalgunGothic-108"/>
     <use x="787.234375" xlink:href="#MalgunGothic-32"/>
     <use x="822.390625" xlink:href="#MalgunGothic-84"/>
     <use x="864.634766" xlink:href="#MalgunGothic-111"/>
     <use x="924.546875" xlink:href="#MalgunGothic-117"/>
     <use x="982.359375" xlink:href="#MalgunGothic-114"/>
     <use x="1017.710938" xlink:href="#MalgunGothic-105"/>
     <use x="1042.320312" xlink:href="#MalgunGothic-115"/>
     <use x="1085.630859" xlink:href="#MalgunGothic-116"/>
     <use x="1120.103516" xlink:href="#MalgunGothic-115"/>
     <use x="1163.414062" xlink:href="#MalgunGothic-41"/>
    </g>
   </g>
  </g>
  <g id="axes_2">
   <g id="patch_22">
    <path d="M 394.363636 251.345455 
L 648 251.345455 
L 648 172.8 
L 394.363636 172.8 
z
" style="fill:#ffffff;"/>
   </g>
   <g id="patch_23">
    <path clip-path="url(#p19fd1c8c63)" d="M 405.892562 251.345455 
L 418.356265 251.345455 
L 418.356265 250.982323 
L 405.892562 250.982323 
z
" style="fill:#1f77b4;"/>
   </g>
   <g id="patch_24">
    <path clip-path="url(#p19fd1c8c63)" d="M 421.472191 251.345455 
L 433.935895 251.345455 
L 433.935895 244.445946 
L 421.472191 244.445946 
z
" style="fill:#1f77b4;"/>
   </g>
   <g id="patch_25">
    <path clip-path="url(#p19fd1c8c63)" d="M 437.05182 251.345455 
L 449.515524 251.345455 
L 449.515524 176.54026 
L 437.05182 176.54026 
z
" style="fill:#1f77b4;"/>
   </g>
   <g id="patch_26">
    <path clip-path="url(#p19fd1c8c63)" d="M 452.63145 251.345455 
L 465.095153 251.345455 
L 465.095153 222.536981 
L 452.63145 222.536981 
z
" style="fill:#1f77b4;"/>
   </g>
   <g id="patch_27">
    <path clip-path="url(#p19fd1c8c63)" d="M 468.211079 251.345455 
L 480.674782 251.345455 
L 480.674782 245.898474 
L 468.211079 245.898474 
z
" style="fill:#1f77b4;"/>
   </g>
   <g id="patch_28">
    <path clip-path="url(#p19fd1c8c63)" d="M 483.790708 251.345455 
L 496.254411 251.345455 
L 496.254411 249.771882 
L 483.790708 249.771882 
z
" style="fill:#1f77b4;"/>
   </g>
   <g id="patch_29">
    <path clip-path="url(#p19fd1c8c63)" d="M 499.370337 251.345455 
L 511.834041 251.345455 
L 511.834041 249.529794 
L 499.370337 249.529794 
z
" style="fill:#1f77b4;"/>
   </g>
   <g id="patch_30">
    <path clip-path="url(#p19fd1c8c63)" d="M 514.949966 251.345455 
L 527.41367 251.345455 
L 527.41367 250.982323 
L 514.949966 250.982323 
z
" style="fill:#1f77b4;"/>
   </g>
   <g id="patch_31">
    <path clip-path="url(#p19fd1c8c63)" d="M 530.529596 251.345455 
L 542.993299 251.345455 
L 542.993299 251.224411 
L 530.529596 251.224411 
z
" style="fill:#1f77b4;"/>
   </g>
   <g id="patch_32">
    <path clip-path="url(#p19fd1c8c63)" d="M 546.109225 251.345455 
L 558.572928 251.345455 
L 558.572928 251.224411 
L 546.109225 251.224411 
z
" style="fill:#1f77b4;"/>
   </g>
   <g id="patch_33">
    <path clip-path="url(#p19fd1c8c63)" d="M 561.688854 251.345455 
L 574.152558 251.345455 
L 574.152558 250.619191 
L 561.688854 250.619191 
z
" style="fill:#1f77b4;"/>
   </g>
   <g id="patch_34">
    <path clip-path="url(#p19fd1c8c63)" d="M 577.268483 251.345455 
L 589.732187 251.345455 
L 589.732187 251.345455 
L 577.268483 251.345455 
z
" style="fill:#1f77b4;"/>
   </g>
   <g id="patch_35">
    <path clip-path="url(#p19fd1c8c63)" d="M 592.848113 251.345455 
L 605.311816 251.345455 
L 605.311816 251.345455 
L 592.848113 251.345455 
z
" style="fill:#1f77b4;"/>
   </g>
   <g id="patch_36">
    <path clip-path="url(#p19fd1c8c63)" d="M 608.427742 251.345455 
L 620.891445 251.345455 
L 620.891445 251.345455 
L 608.427742 251.345455 
z
" style="fill:#1f77b4;"/>
   </g>
   <g id="patch_37">
    <path clip-path="url(#p19fd1c8c63)" d="M 624.007371 251.345455 
L 636.471074 251.345455 
L 636.471074 251.345455 
L 624.007371 251.345455 
z
" style="fill:#1f77b4;"/>
   </g>
   <g id="matplotlib.axis_3">
    <g id="xtick_18">
     <g id="line2d_23">
      <g>
       <use style="stroke:#000000;stroke-width:0.8;" x="396.544784" xlink:href="#m109aeb2853" y="251.345455"/>
      </g>
     </g>
     <g id="text_26">
      <!-- 0 -->
      <g transform="translate(393.790878 265.937642)scale(0.1 -0.1)">
       <use xlink:href="#MalgunGothic-48"/>
      </g>
     </g>
    </g>
    <g id="xtick_19">
     <g id="line2d_24">
      <g>
       <use style="stroke:#000000;stroke-width:0.8;" x="412.124414" xlink:href="#m109aeb2853" y="251.345455"/>
      </g>
     </g>
     <g id="text_27">
      <!-- 1 -->
      <g transform="translate(409.370507 265.937642)scale(0.1 -0.1)">
       <use xlink:href="#MalgunGothic-49"/>
      </g>
     </g>
    </g>
    <g id="xtick_20">
     <g id="line2d_25">
      <g>
       <use style="stroke:#000000;stroke-width:0.8;" x="427.704043" xlink:href="#m109aeb2853" y="251.345455"/>
      </g>
     </g>
     <g id="text_28">
      <!-- 2 -->
      <g transform="translate(424.950137 265.937642)scale(0.1 -0.1)">
       <use xlink:href="#MalgunGothic-50"/>
      </g>
     </g>
    </g>
    <g id="xtick_21">
     <g id="line2d_26">
      <g>
       <use style="stroke:#000000;stroke-width:0.8;" x="443.283672" xlink:href="#m109aeb2853" y="251.345455"/>
      </g>
     </g>
     <g id="text_29">
      <!-- 3 -->
      <g transform="translate(440.529766 265.937642)scale(0.1 -0.1)">
       <use xlink:href="#MalgunGothic-51"/>
      </g>
     </g>
    </g>
    <g id="xtick_22">
     <g id="line2d_27">
      <g>
       <use style="stroke:#000000;stroke-width:0.8;" x="458.863301" xlink:href="#m109aeb2853" y="251.345455"/>
      </g>
     </g>
     <g id="text_30">
      <!-- 4 -->
      <g transform="translate(456.109395 265.937642)scale(0.1 -0.1)">
       <use xlink:href="#MalgunGothic-52"/>
      </g>
     </g>
    </g>
    <g id="xtick_23">
     <g id="line2d_28">
      <g>
       <use style="stroke:#000000;stroke-width:0.8;" x="474.442931" xlink:href="#m109aeb2853" y="251.345455"/>
      </g>
     </g>
     <g id="text_31">
      <!-- 5 -->
      <g transform="translate(471.689024 265.937642)scale(0.1 -0.1)">
       <use xlink:href="#MalgunGothic-53"/>
      </g>
     </g>
    </g>
    <g id="xtick_24">
     <g id="line2d_29">
      <g>
       <use style="stroke:#000000;stroke-width:0.8;" x="490.02256" xlink:href="#m109aeb2853" y="251.345455"/>
      </g>
     </g>
     <g id="text_32">
      <!-- 6 -->
      <g transform="translate(487.268653 265.937642)scale(0.1 -0.1)">
       <use xlink:href="#MalgunGothic-54"/>
      </g>
     </g>
    </g>
    <g id="xtick_25">
     <g id="line2d_30">
      <g>
       <use style="stroke:#000000;stroke-width:0.8;" x="505.602189" xlink:href="#m109aeb2853" y="251.345455"/>
      </g>
     </g>
     <g id="text_33">
      <!-- 7 -->
      <g transform="translate(502.848283 265.937642)scale(0.1 -0.1)">
       <use xlink:href="#MalgunGothic-55"/>
      </g>
     </g>
    </g>
    <g id="xtick_26">
     <g id="line2d_31">
      <g>
       <use style="stroke:#000000;stroke-width:0.8;" x="521.181818" xlink:href="#m109aeb2853" y="251.345455"/>
      </g>
     </g>
     <g id="text_34">
      <!-- 8 -->
      <g transform="translate(518.427912 265.937642)scale(0.1 -0.1)">
       <use xlink:href="#MalgunGothic-56"/>
      </g>
     </g>
    </g>
    <g id="xtick_27">
     <g id="line2d_32">
      <g>
       <use style="stroke:#000000;stroke-width:0.8;" x="536.761447" xlink:href="#m109aeb2853" y="251.345455"/>
      </g>
     </g>
     <g id="text_35">
      <!-- 9 -->
      <g transform="translate(534.007541 265.937642)scale(0.1 -0.1)">
       <use xlink:href="#MalgunGothic-57"/>
      </g>
     </g>
    </g>
    <g id="xtick_28">
     <g id="line2d_33">
      <g>
       <use style="stroke:#000000;stroke-width:0.8;" x="552.341077" xlink:href="#m109aeb2853" y="251.345455"/>
      </g>
     </g>
     <g id="text_36">
      <!-- 10 -->
      <g transform="translate(546.833264 265.937642)scale(0.1 -0.1)">
       <use xlink:href="#MalgunGothic-49"/>
       <use x="55.078125" xlink:href="#MalgunGothic-48"/>
      </g>
     </g>
    </g>
    <g id="xtick_29">
     <g id="line2d_34">
      <g>
       <use style="stroke:#000000;stroke-width:0.8;" x="567.920706" xlink:href="#m109aeb2853" y="251.345455"/>
      </g>
     </g>
     <g id="text_37">
      <!-- 11 -->
      <g transform="translate(562.412893 265.937642)scale(0.1 -0.1)">
       <use xlink:href="#MalgunGothic-49"/>
       <use x="55.078125" xlink:href="#MalgunGothic-49"/>
      </g>
     </g>
    </g>
    <g id="xtick_30">
     <g id="line2d_35">
      <g>
       <use style="stroke:#000000;stroke-width:0.8;" x="583.500335" xlink:href="#m109aeb2853" y="251.345455"/>
      </g>
     </g>
     <g id="text_38">
      <!-- 12 -->
      <g transform="translate(577.992523 265.937642)scale(0.1 -0.1)">
       <use xlink:href="#MalgunGothic-49"/>
       <use x="55.078125" xlink:href="#MalgunGothic-50"/>
      </g>
     </g>
    </g>
    <g id="xtick_31">
     <g id="line2d_36">
      <g>
       <use style="stroke:#000000;stroke-width:0.8;" x="599.079964" xlink:href="#m109aeb2853" y="251.345455"/>
      </g>
     </g>
     <g id="text_39">
      <!-- 13 -->
      <g transform="translate(593.572152 265.937642)scale(0.1 -0.1)">
       <use xlink:href="#MalgunGothic-49"/>
       <use x="55.078125" xlink:href="#MalgunGothic-51"/>
      </g>
     </g>
    </g>
    <g id="xtick_32">
     <g id="line2d_37">
      <g>
       <use style="stroke:#000000;stroke-width:0.8;" x="614.659593" xlink:href="#m109aeb2853" y="251.345455"/>
      </g>
     </g>
     <g id="text_40">
      <!-- 14 -->
      <g transform="translate(609.151781 265.937642)scale(0.1 -0.1)">
       <use xlink:href="#MalgunGothic-49"/>
       <use x="55.078125" xlink:href="#MalgunGothic-52"/>
      </g>
     </g>
    </g>
    <g id="xtick_33">
     <g id="line2d_38">
      <g>
       <use style="stroke:#000000;stroke-width:0.8;" x="630.239223" xlink:href="#m109aeb2853" y="251.345455"/>
      </g>
     </g>
     <g id="text_41">
      <!-- 15 -->
      <g transform="translate(624.73141 265.937642)scale(0.1 -0.1)">
       <use xlink:href="#MalgunGothic-49"/>
       <use x="55.078125" xlink:href="#MalgunGothic-53"/>
      </g>
     </g>
    </g>
    <g id="xtick_34">
     <g id="line2d_39">
      <g>
       <use style="stroke:#000000;stroke-width:0.8;" x="645.818852" xlink:href="#m109aeb2853" y="251.345455"/>
      </g>
     </g>
     <g id="text_42">
      <!-- 16 -->
      <g transform="translate(640.311039 265.937642)scale(0.1 -0.1)">
       <use xlink:href="#MalgunGothic-49"/>
       <use x="55.078125" xlink:href="#MalgunGothic-54"/>
      </g>
     </g>
    </g>
    <g id="text_43">
     <!-- Period -->
     <g transform="translate(501.114787 282.930767)scale(0.14 -0.14)">
      <use xlink:href="#MalgunGothic-80"/>
      <use x="53.080078" xlink:href="#MalgunGothic-101"/>
      <use x="106.595703" xlink:href="#MalgunGothic-114"/>
      <use x="141.947266" xlink:href="#MalgunGothic-105"/>
      <use x="166.556641" xlink:href="#MalgunGothic-111"/>
      <use x="226.46875" xlink:href="#MalgunGothic-100"/>
     </g>
    </g>
   </g>
   <g id="matplotlib.axis_4">
    <g id="ytick_6">
     <g id="line2d_40">
      <g>
       <use style="stroke:#000000;stroke-width:0.8;" x="394.363636" xlink:href="#mb0bc7fe29c" y="251.345455"/>
      </g>
     </g>
     <g id="text_44">
      <!-- 0.0 -->
      <g transform="translate(374.160511 255.141548)scale(0.1 -0.1)">
       <use xlink:href="#MalgunGothic-48"/>
       <use x="55.078125" xlink:href="#MalgunGothic-46"/>
       <use x="76.953125" xlink:href="#MalgunGothic-48"/>
      </g>
     </g>
    </g>
    <g id="ytick_7">
     <g id="line2d_41">
      <g>
       <use style="stroke:#000000;stroke-width:0.8;" x="394.363636" xlink:href="#mb0bc7fe29c" y="239.241054"/>
      </g>
     </g>
     <g id="text_45">
      <!-- 0.1 -->
      <g transform="translate(374.160511 243.037148)scale(0.1 -0.1)">
       <use xlink:href="#MalgunGothic-48"/>
       <use x="55.078125" xlink:href="#MalgunGothic-46"/>
       <use x="76.953125" xlink:href="#MalgunGothic-49"/>
      </g>
     </g>
    </g>
    <g id="ytick_8">
     <g id="line2d_42">
      <g>
       <use style="stroke:#000000;stroke-width:0.8;" x="394.363636" xlink:href="#mb0bc7fe29c" y="227.136654"/>
      </g>
     </g>
     <g id="text_46">
      <!-- 0.2 -->
      <g transform="translate(374.160511 230.932747)scale(0.1 -0.1)">
       <use xlink:href="#MalgunGothic-48"/>
       <use x="55.078125" xlink:href="#MalgunGothic-46"/>
       <use x="76.953125" xlink:href="#MalgunGothic-50"/>
      </g>
     </g>
    </g>
    <g id="ytick_9">
     <g id="line2d_43">
      <g>
       <use style="stroke:#000000;stroke-width:0.8;" x="394.363636" xlink:href="#mb0bc7fe29c" y="215.032253"/>
      </g>
     </g>
     <g id="text_47">
      <!-- 0.3 -->
      <g transform="translate(374.160511 218.828347)scale(0.1 -0.1)">
       <use xlink:href="#MalgunGothic-48"/>
       <use x="55.078125" xlink:href="#MalgunGothic-46"/>
       <use x="76.953125" xlink:href="#MalgunGothic-51"/>
      </g>
     </g>
    </g>
    <g id="ytick_10">
     <g id="line2d_44">
      <g>
       <use style="stroke:#000000;stroke-width:0.8;" x="394.363636" xlink:href="#mb0bc7fe29c" y="202.927853"/>
      </g>
     </g>
     <g id="text_48">
      <!-- 0.4 -->
      <g transform="translate(374.160511 206.723946)scale(0.1 -0.1)">
       <use xlink:href="#MalgunGothic-48"/>
       <use x="55.078125" xlink:href="#MalgunGothic-46"/>
       <use x="76.953125" xlink:href="#MalgunGothic-52"/>
      </g>
     </g>
    </g>
    <g id="text_49">
     <!-- Ratio -->
     <g transform="translate(366.850824 228.31054)rotate(-90)scale(0.14 -0.14)">
      <use xlink:href="#MalgunGothic-82"/>
      <use x="60.986328" xlink:href="#MalgunGothic-97"/>
      <use x="112.988281" xlink:href="#MalgunGothic-116"/>
      <use x="147.460938" xlink:href="#MalgunGothic-105"/>
      <use x="172.070312" xlink:href="#MalgunGothic-111"/>
     </g>
    </g>
   </g>
   <g id="patch_38">
    <path d="M 394.363636 251.345455 
L 394.363636 172.8 
" style="fill:none;stroke:#000000;stroke-linecap:square;stroke-linejoin:miter;stroke-width:0.8;"/>
   </g>
   <g id="patch_39">
    <path d="M 648 251.345455 
L 648 172.8 
" style="fill:none;stroke:#000000;stroke-linecap:square;stroke-linejoin:miter;stroke-width:0.8;"/>
   </g>
   <g id="patch_40">
    <path d="M 394.363636 251.345455 
L 648 251.345455 
" style="fill:none;stroke:#000000;stroke-linecap:square;stroke-linejoin:miter;stroke-width:0.8;"/>
   </g>
   <g id="patch_41">
    <path d="M 394.363636 172.8 
L 648 172.8 
" style="fill:none;stroke:#000000;stroke-linecap:square;stroke-linejoin:miter;stroke-width:0.8;"/>
   </g>
   <g id="text_50">
    <!-- Stay Period (Domestic Tourists) -->
    <defs>
     <path d="M 9.515625 0 
L 9.515625 71.875 
L 29 71.875 
Q 66.890625 71.875 66.890625 36.8125 
Q 66.890625 20.125 56.046875 10.0625 
Q 45.21875 0 28.125 0 
z
M 17.390625 64.59375 
L 17.390625 7.234375 
L 28.328125 7.234375 
Q 42.71875 7.234375 50.671875 14.96875 
Q 58.640625 22.703125 58.640625 36.625 
Q 58.640625 64.59375 28.8125 64.59375 
z
" id="MalgunGothic-68"/>
     <path d="M 80.71875 0 
L 72.953125 0 
L 72.953125 29.4375 
Q 72.953125 38.484375 70.234375 42.21875 
Q 67.53125 45.953125 61.28125 45.953125 
Q 56 45.953125 52.21875 40.984375 
Q 48.4375 36.03125 48.4375 29.296875 
L 48.4375 0 
L 40.71875 0 
L 40.71875 30.515625 
Q 40.71875 45.953125 28.8125 45.953125 
Q 23.390625 45.953125 19.765625 41.28125 
Q 16.15625 36.625 16.15625 29.296875 
L 16.15625 0 
L 8.40625 0 
L 8.40625 51.3125 
L 16.15625 51.3125 
L 16.15625 43.171875 
L 16.359375 43.171875 
Q 21.734375 52.484375 32.234375 52.484375 
Q 37.203125 52.484375 41.1875 49.625 
Q 45.171875 46.78125 46.734375 41.796875 
Q 52.4375 52.484375 63.765625 52.484375 
Q 80.71875 52.484375 80.71875 31.59375 
z
" id="MalgunGothic-109"/>
     <path d="M 43.171875 2.390625 
Q 37.109375 -1.21875 29.25 -1.21875 
Q 18.5 -1.21875 11.71875 5.8125 
Q 4.9375 12.84375 4.9375 24.46875 
Q 4.9375 37.203125 12.140625 44.84375 
Q 19.34375 52.484375 31.390625 52.484375 
Q 38.03125 52.484375 43.21875 50 
L 43.21875 41.890625 
Q 37.453125 45.953125 30.953125 45.953125 
Q 23.09375 45.953125 17.9375 40.265625 
Q 12.796875 34.578125 12.796875 25.140625 
Q 12.796875 16.15625 17.5 10.765625 
Q 22.21875 5.375 30.421875 5.375 
Q 37.203125 5.375 43.171875 9.859375 
z
" id="MalgunGothic-99"/>
    </defs>
    <g transform="translate(401.889631 166.8)scale(0.17 -0.17)">
     <use xlink:href="#MalgunGothic-83"/>
     <use x="50.796875" xlink:href="#MalgunGothic-116"/>
     <use x="85.269531" xlink:href="#MalgunGothic-97"/>
     <use x="137.271484" xlink:href="#MalgunGothic-121"/>
     <use x="186.539062" xlink:href="#MalgunGothic-32"/>
     <use x="221.695312" xlink:href="#MalgunGothic-80"/>
     <use x="274.775391" xlink:href="#MalgunGothic-101"/>
     <use x="328.291016" xlink:href="#MalgunGothic-114"/>
     <use x="363.642578" xlink:href="#MalgunGothic-105"/>
     <use x="388.251953" xlink:href="#MalgunGothic-111"/>
     <use x="448.164062" xlink:href="#MalgunGothic-100"/>
     <use x="508.369141" xlink:href="#MalgunGothic-32"/>
     <use x="543.525391" xlink:href="#MalgunGothic-40"/>
     <use x="573.994141" xlink:href="#MalgunGothic-68"/>
     <use x="645.722656" xlink:href="#MalgunGothic-111"/>
     <use x="705.634766" xlink:href="#MalgunGothic-109"/>
     <use x="793.623047" xlink:href="#MalgunGothic-101"/>
     <use x="847.138672" xlink:href="#MalgunGothic-115"/>
     <use x="890.449219" xlink:href="#MalgunGothic-116"/>
     <use x="924.921875" xlink:href="#MalgunGothic-105"/>
     <use x="949.53125" xlink:href="#MalgunGothic-99"/>
     <use x="996.796875" xlink:href="#MalgunGothic-32"/>
     <use x="1031.953125" xlink:href="#MalgunGothic-84"/>
     <use x="1074.197266" xlink:href="#MalgunGothic-111"/>
     <use x="1134.109375" xlink:href="#MalgunGothic-117"/>
     <use x="1191.921875" xlink:href="#MalgunGothic-114"/>
     <use x="1227.273438" xlink:href="#MalgunGothic-105"/>
     <use x="1251.882812" xlink:href="#MalgunGothic-115"/>
     <use x="1295.193359" xlink:href="#MalgunGothic-116"/>
     <use x="1329.666016" xlink:href="#MalgunGothic-115"/>
     <use x="1372.976562" xlink:href="#MalgunGothic-41"/>
    </g>
   </g>
  </g>
  <g id="axes_3">
   <g id="patch_42">
    <path d="M 90 384.872727 
L 343.636364 384.872727 
L 343.636364 306.327273 
L 90 306.327273 
z
" style="fill:#ffffff;"/>
   </g>
   <g id="patch_43">
    <path clip-path="url(#p53605c8a82)" d="M 101.528926 384.872727 
L 113.992629 384.872727 
L 113.992629 383.356406 
L 101.528926 383.356406 
z
" style="fill:#1f77b4;"/>
   </g>
   <g id="patch_44">
    <path clip-path="url(#p53605c8a82)" d="M 117.108555 384.872727 
L 129.572258 384.872727 
L 129.572258 368.193191 
L 117.108555 368.193191 
z
" style="fill:#1f77b4;"/>
   </g>
   <g id="patch_45">
    <path clip-path="url(#p53605c8a82)" d="M 132.688184 384.872727 
L 145.151887 384.872727 
L 145.151887 314.111057 
L 132.688184 314.111057 
z
" style="fill:#1f77b4;"/>
   </g>
   <g id="patch_46">
    <path clip-path="url(#p53605c8a82)" d="M 148.267813 384.872727 
L 160.731517 384.872727 
L 160.731517 310.067532 
L 148.267813 310.067532 
z
" style="fill:#1f77b4;"/>
   </g>
   <g id="patch_47">
    <path clip-path="url(#p53605c8a82)" d="M 163.847442 384.872727 
L 176.311146 384.872727 
L 176.311146 330.032432 
L 163.847442 330.032432 
z
" style="fill:#1f77b4;"/>
   </g>
   <g id="patch_48">
    <path clip-path="url(#p53605c8a82)" d="M 179.427072 384.872727 
L 191.890775 384.872727 
L 191.890775 370.973113 
L 179.427072 370.973113 
z
" style="fill:#1f77b4;"/>
   </g>
   <g id="patch_49">
    <path clip-path="url(#p53605c8a82)" d="M 195.006701 384.872727 
L 207.470404 384.872727 
L 207.470404 376.027518 
L 195.006701 376.027518 
z
" style="fill:#1f77b4;"/>
   </g>
   <g id="patch_50">
    <path clip-path="url(#p53605c8a82)" d="M 210.58633 384.872727 
L 223.050034 384.872727 
L 223.050034 380.071042 
L 210.58633 380.071042 
z
" style="fill:#1f77b4;"/>
   </g>
   <g id="patch_51">
    <path clip-path="url(#p53605c8a82)" d="M 226.165959 384.872727 
L 238.629663 384.872727 
L 238.629663 383.356406 
L 226.165959 383.356406 
z
" style="fill:#1f77b4;"/>
   </g>
   <g id="patch_52">
    <path clip-path="url(#p53605c8a82)" d="M 241.745589 384.872727 
L 254.209292 384.872727 
L 254.209292 383.861846 
L 241.745589 383.861846 
z
" style="fill:#1f77b4;"/>
   </g>
   <g id="patch_53">
    <path clip-path="url(#p53605c8a82)" d="M 257.325218 384.872727 
L 269.788921 384.872727 
L 269.788921 380.829203 
L 257.325218 380.829203 
z
" style="fill:#1f77b4;"/>
   </g>
   <g id="patch_54">
    <path clip-path="url(#p53605c8a82)" d="M 272.904847 384.872727 
L 285.36855 384.872727 
L 285.36855 384.872727 
L 272.904847 384.872727 
z
" style="fill:#1f77b4;"/>
   </g>
   <g id="patch_55">
    <path clip-path="url(#p53605c8a82)" d="M 288.484476 384.872727 
L 300.94818 384.872727 
L 300.94818 384.872727 
L 288.484476 384.872727 
z
" style="fill:#1f77b4;"/>
   </g>
   <g id="patch_56">
    <path clip-path="url(#p53605c8a82)" d="M 304.064105 384.872727 
L 316.527809 384.872727 
L 316.527809 384.872727 
L 304.064105 384.872727 
z
" style="fill:#1f77b4;"/>
   </g>
   <g id="patch_57">
    <path clip-path="url(#p53605c8a82)" d="M 319.643735 384.872727 
L 332.107438 384.872727 
L 332.107438 384.872727 
L 319.643735 384.872727 
z
" style="fill:#1f77b4;"/>
   </g>
   <g id="matplotlib.axis_5">
    <g id="xtick_35">
     <g id="line2d_45">
      <g>
       <use style="stroke:#000000;stroke-width:0.8;" x="92.181148" xlink:href="#m109aeb2853" y="384.872727"/>
      </g>
     </g>
     <g id="text_51">
      <!-- 0 -->
      <g transform="translate(89.427242 399.464915)scale(0.1 -0.1)">
       <use xlink:href="#MalgunGothic-48"/>
      </g>
     </g>
    </g>
    <g id="xtick_36">
     <g id="line2d_46">
      <g>
       <use style="stroke:#000000;stroke-width:0.8;" x="107.760777" xlink:href="#m109aeb2853" y="384.872727"/>
      </g>
     </g>
     <g id="text_52">
      <!-- 1 -->
      <g transform="translate(105.006871 399.464915)scale(0.1 -0.1)">
       <use xlink:href="#MalgunGothic-49"/>
      </g>
     </g>
    </g>
    <g id="xtick_37">
     <g id="line2d_47">
      <g>
       <use style="stroke:#000000;stroke-width:0.8;" x="123.340407" xlink:href="#m109aeb2853" y="384.872727"/>
      </g>
     </g>
     <g id="text_53">
      <!-- 2 -->
      <g transform="translate(120.5865 399.464915)scale(0.1 -0.1)">
       <use xlink:href="#MalgunGothic-50"/>
      </g>
     </g>
    </g>
    <g id="xtick_38">
     <g id="line2d_48">
      <g>
       <use style="stroke:#000000;stroke-width:0.8;" x="138.920036" xlink:href="#m109aeb2853" y="384.872727"/>
      </g>
     </g>
     <g id="text_54">
      <!-- 3 -->
      <g transform="translate(136.166129 399.464915)scale(0.1 -0.1)">
       <use xlink:href="#MalgunGothic-51"/>
      </g>
     </g>
    </g>
    <g id="xtick_39">
     <g id="line2d_49">
      <g>
       <use style="stroke:#000000;stroke-width:0.8;" x="154.499665" xlink:href="#m109aeb2853" y="384.872727"/>
      </g>
     </g>
     <g id="text_55">
      <!-- 4 -->
      <g transform="translate(151.745759 399.464915)scale(0.1 -0.1)">
       <use xlink:href="#MalgunGothic-52"/>
      </g>
     </g>
    </g>
    <g id="xtick_40">
     <g id="line2d_50">
      <g>
       <use style="stroke:#000000;stroke-width:0.8;" x="170.079294" xlink:href="#m109aeb2853" y="384.872727"/>
      </g>
     </g>
     <g id="text_56">
      <!-- 5 -->
      <g transform="translate(167.325388 399.464915)scale(0.1 -0.1)">
       <use xlink:href="#MalgunGothic-53"/>
      </g>
     </g>
    </g>
    <g id="xtick_41">
     <g id="line2d_51">
      <g>
       <use style="stroke:#000000;stroke-width:0.8;" x="185.658923" xlink:href="#m109aeb2853" y="384.872727"/>
      </g>
     </g>
     <g id="text_57">
      <!-- 6 -->
      <g transform="translate(182.905017 399.464915)scale(0.1 -0.1)">
       <use xlink:href="#MalgunGothic-54"/>
      </g>
     </g>
    </g>
    <g id="xtick_42">
     <g id="line2d_52">
      <g>
       <use style="stroke:#000000;stroke-width:0.8;" x="201.238553" xlink:href="#m109aeb2853" y="384.872727"/>
      </g>
     </g>
     <g id="text_58">
      <!-- 7 -->
      <g transform="translate(198.484646 399.464915)scale(0.1 -0.1)">
       <use xlink:href="#MalgunGothic-55"/>
      </g>
     </g>
    </g>
    <g id="xtick_43">
     <g id="line2d_53">
      <g>
       <use style="stroke:#000000;stroke-width:0.8;" x="216.818182" xlink:href="#m109aeb2853" y="384.872727"/>
      </g>
     </g>
     <g id="text_59">
      <!-- 8 -->
      <g transform="translate(214.064276 399.464915)scale(0.1 -0.1)">
       <use xlink:href="#MalgunGothic-56"/>
      </g>
     </g>
    </g>
    <g id="xtick_44">
     <g id="line2d_54">
      <g>
       <use style="stroke:#000000;stroke-width:0.8;" x="232.397811" xlink:href="#m109aeb2853" y="384.872727"/>
      </g>
     </g>
     <g id="text_60">
      <!-- 9 -->
      <g transform="translate(229.643905 399.464915)scale(0.1 -0.1)">
       <use xlink:href="#MalgunGothic-57"/>
      </g>
     </g>
    </g>
    <g id="xtick_45">
     <g id="line2d_55">
      <g>
       <use style="stroke:#000000;stroke-width:0.8;" x="247.97744" xlink:href="#m109aeb2853" y="384.872727"/>
      </g>
     </g>
     <g id="text_61">
      <!-- 10 -->
      <g transform="translate(242.469628 399.464915)scale(0.1 -0.1)">
       <use xlink:href="#MalgunGothic-49"/>
       <use x="55.078125" xlink:href="#MalgunGothic-48"/>
      </g>
     </g>
    </g>
    <g id="xtick_46">
     <g id="line2d_56">
      <g>
       <use style="stroke:#000000;stroke-width:0.8;" x="263.557069" xlink:href="#m109aeb2853" y="384.872727"/>
      </g>
     </g>
     <g id="text_62">
      <!-- 11 -->
      <g transform="translate(258.049257 399.464915)scale(0.1 -0.1)">
       <use xlink:href="#MalgunGothic-49"/>
       <use x="55.078125" xlink:href="#MalgunGothic-49"/>
      </g>
     </g>
    </g>
    <g id="xtick_47">
     <g id="line2d_57">
      <g>
       <use style="stroke:#000000;stroke-width:0.8;" x="279.136699" xlink:href="#m109aeb2853" y="384.872727"/>
      </g>
     </g>
     <g id="text_63">
      <!-- 12 -->
      <g transform="translate(273.628886 399.464915)scale(0.1 -0.1)">
       <use xlink:href="#MalgunGothic-49"/>
       <use x="55.078125" xlink:href="#MalgunGothic-50"/>
      </g>
     </g>
    </g>
    <g id="xtick_48">
     <g id="line2d_58">
      <g>
       <use style="stroke:#000000;stroke-width:0.8;" x="294.716328" xlink:href="#m109aeb2853" y="384.872727"/>
      </g>
     </g>
     <g id="text_64">
      <!-- 13 -->
      <g transform="translate(289.208515 399.464915)scale(0.1 -0.1)">
       <use xlink:href="#MalgunGothic-49"/>
       <use x="55.078125" xlink:href="#MalgunGothic-51"/>
      </g>
     </g>
    </g>
    <g id="xtick_49">
     <g id="line2d_59">
      <g>
       <use style="stroke:#000000;stroke-width:0.8;" x="310.295957" xlink:href="#m109aeb2853" y="384.872727"/>
      </g>
     </g>
     <g id="text_65">
      <!-- 14 -->
      <g transform="translate(304.788145 399.464915)scale(0.1 -0.1)">
       <use xlink:href="#MalgunGothic-49"/>
       <use x="55.078125" xlink:href="#MalgunGothic-52"/>
      </g>
     </g>
    </g>
    <g id="xtick_50">
     <g id="line2d_60">
      <g>
       <use style="stroke:#000000;stroke-width:0.8;" x="325.875586" xlink:href="#m109aeb2853" y="384.872727"/>
      </g>
     </g>
     <g id="text_66">
      <!-- 15 -->
      <g transform="translate(320.367774 399.464915)scale(0.1 -0.1)">
       <use xlink:href="#MalgunGothic-49"/>
       <use x="55.078125" xlink:href="#MalgunGothic-53"/>
      </g>
     </g>
    </g>
    <g id="xtick_51">
     <g id="line2d_61">
      <g>
       <use style="stroke:#000000;stroke-width:0.8;" x="341.455216" xlink:href="#m109aeb2853" y="384.872727"/>
      </g>
     </g>
     <g id="text_67">
      <!-- 16 -->
      <g transform="translate(335.947403 399.464915)scale(0.1 -0.1)">
       <use xlink:href="#MalgunGothic-49"/>
       <use x="55.078125" xlink:href="#MalgunGothic-54"/>
      </g>
     </g>
    </g>
    <g id="text_68">
     <!-- Period -->
     <g transform="translate(196.751151 416.45804)scale(0.14 -0.14)">
      <use xlink:href="#MalgunGothic-80"/>
      <use x="53.080078" xlink:href="#MalgunGothic-101"/>
      <use x="106.595703" xlink:href="#MalgunGothic-114"/>
      <use x="141.947266" xlink:href="#MalgunGothic-105"/>
      <use x="166.556641" xlink:href="#MalgunGothic-111"/>
      <use x="226.46875" xlink:href="#MalgunGothic-100"/>
     </g>
    </g>
   </g>
   <g id="matplotlib.axis_6">
    <g id="ytick_11">
     <g id="line2d_62">
      <g>
       <use style="stroke:#000000;stroke-width:0.8;" x="90" xlink:href="#mb0bc7fe29c" y="384.872727"/>
      </g>
     </g>
     <g id="text_69">
      <!-- 0.0 -->
      <g transform="translate(69.796875 388.668821)scale(0.1 -0.1)">
       <use xlink:href="#MalgunGothic-48"/>
       <use x="55.078125" xlink:href="#MalgunGothic-46"/>
       <use x="76.953125" xlink:href="#MalgunGothic-48"/>
      </g>
     </g>
    </g>
    <g id="ytick_12">
     <g id="line2d_63">
      <g>
       <use style="stroke:#000000;stroke-width:0.8;" x="90" xlink:href="#mb0bc7fe29c" y="359.600702"/>
      </g>
     </g>
     <g id="text_70">
      <!-- 0.1 -->
      <g transform="translate(69.796875 363.396796)scale(0.1 -0.1)">
       <use xlink:href="#MalgunGothic-48"/>
       <use x="55.078125" xlink:href="#MalgunGothic-46"/>
       <use x="76.953125" xlink:href="#MalgunGothic-49"/>
      </g>
     </g>
    </g>
    <g id="ytick_13">
     <g id="line2d_64">
      <g>
       <use style="stroke:#000000;stroke-width:0.8;" x="90" xlink:href="#mb0bc7fe29c" y="334.328677"/>
      </g>
     </g>
     <g id="text_71">
      <!-- 0.2 -->
      <g transform="translate(69.796875 338.12477)scale(0.1 -0.1)">
       <use xlink:href="#MalgunGothic-48"/>
       <use x="55.078125" xlink:href="#MalgunGothic-46"/>
       <use x="76.953125" xlink:href="#MalgunGothic-50"/>
      </g>
     </g>
    </g>
    <g id="ytick_14">
     <g id="line2d_65">
      <g>
       <use style="stroke:#000000;stroke-width:0.8;" x="90" xlink:href="#mb0bc7fe29c" y="309.056651"/>
      </g>
     </g>
     <g id="text_72">
      <!-- 0.3 -->
      <g transform="translate(69.796875 312.852745)scale(0.1 -0.1)">
       <use xlink:href="#MalgunGothic-48"/>
       <use x="55.078125" xlink:href="#MalgunGothic-46"/>
       <use x="76.953125" xlink:href="#MalgunGothic-51"/>
      </g>
     </g>
    </g>
    <g id="text_73">
     <!-- Ratio -->
     <g transform="translate(62.487187 361.837813)rotate(-90)scale(0.14 -0.14)">
      <use xlink:href="#MalgunGothic-82"/>
      <use x="60.986328" xlink:href="#MalgunGothic-97"/>
      <use x="112.988281" xlink:href="#MalgunGothic-116"/>
      <use x="147.460938" xlink:href="#MalgunGothic-105"/>
      <use x="172.070312" xlink:href="#MalgunGothic-111"/>
     </g>
    </g>
   </g>
   <g id="patch_58">
    <path d="M 90 384.872727 
L 90 306.327273 
" style="fill:none;stroke:#000000;stroke-linecap:square;stroke-linejoin:miter;stroke-width:0.8;"/>
   </g>
   <g id="patch_59">
    <path d="M 343.636364 384.872727 
L 343.636364 306.327273 
" style="fill:none;stroke:#000000;stroke-linecap:square;stroke-linejoin:miter;stroke-width:0.8;"/>
   </g>
   <g id="patch_60">
    <path d="M 90 384.872727 
L 343.636364 384.872727 
" style="fill:none;stroke:#000000;stroke-linecap:square;stroke-linejoin:miter;stroke-width:0.8;"/>
   </g>
   <g id="patch_61">
    <path d="M 90 306.327273 
L 343.636364 306.327273 
" style="fill:none;stroke:#000000;stroke-linecap:square;stroke-linejoin:miter;stroke-width:0.8;"/>
   </g>
   <g id="text_74">
    <!-- Stay Period (Foreign Tourists) -->
    <defs>
     <path d="M 45.65625 64.59375 
L 17.390625 64.59375 
L 17.390625 39.3125 
L 43.5625 39.3125 
L 43.5625 32.03125 
L 17.390625 32.03125 
L 17.390625 0 
L 9.515625 0 
L 9.515625 71.875 
L 45.65625 71.875 
z
" id="MalgunGothic-70"/>
     <path d="M 51.765625 4.046875 
Q 51.765625 -24.171875 25.046875 -24.171875 
Q 15.671875 -24.171875 8.40625 -20.515625 
L 8.40625 -12.59375 
Q 17 -17.4375 25 -17.4375 
Q 44.09375 -17.4375 44.09375 3.03125 
L 44.09375 8.734375 
L 43.890625 8.734375 
Q 37.84375 -1.21875 26.171875 -1.21875 
Q 16.65625 -1.21875 10.796875 5.65625 
Q 4.9375 12.546875 4.9375 23.96875 
Q 4.9375 37.109375 11.28125 44.796875 
Q 17.625 52.484375 28.375 52.484375 
Q 38.8125 52.484375 43.890625 44.09375 
L 44.09375 44.09375 
L 44.09375 51.3125 
L 51.765625 51.3125 
z
M 44.09375 30.90625 
Q 44.09375 37.15625 39.796875 41.546875 
Q 35.5 45.953125 29.34375 45.953125 
Q 21.625 45.953125 17.203125 40.265625 
Q 12.796875 34.578125 12.796875 24.5625 
Q 12.796875 15.875 17.0625 10.625 
Q 21.34375 5.375 28.171875 5.375 
Q 35.109375 5.375 39.59375 10.40625 
Q 44.09375 15.4375 44.09375 23.09375 
z
" id="MalgunGothic-103"/>
     <path d="M 50.59375 0 
L 42.828125 0 
L 42.828125 29.296875 
Q 42.828125 45.953125 30.671875 45.953125 
Q 24.421875 45.953125 20.28125 41.234375 
Q 16.15625 36.53125 16.15625 29.25 
L 16.15625 0 
L 8.40625 0 
L 8.40625 51.3125 
L 16.15625 51.3125 
L 16.15625 42.71875 
L 16.359375 42.71875 
Q 22.125 52.484375 33.203125 52.484375 
Q 41.65625 52.484375 46.125 47.0625 
Q 50.59375 41.65625 50.59375 31.34375 
z
" id="MalgunGothic-110"/>
    </defs>
    <g transform="translate(104.573026 300.327273)scale(0.17 -0.17)">
     <use xlink:href="#MalgunGothic-83"/>
     <use x="50.796875" xlink:href="#MalgunGothic-116"/>
     <use x="85.269531" xlink:href="#MalgunGothic-97"/>
     <use x="137.271484" xlink:href="#MalgunGothic-121"/>
     <use x="186.539062" xlink:href="#MalgunGothic-32"/>
     <use x="221.695312" xlink:href="#MalgunGothic-80"/>
     <use x="274.775391" xlink:href="#MalgunGothic-101"/>
     <use x="328.291016" xlink:href="#MalgunGothic-114"/>
     <use x="363.642578" xlink:href="#MalgunGothic-105"/>
     <use x="388.251953" xlink:href="#MalgunGothic-111"/>
     <use x="448.164062" xlink:href="#MalgunGothic-100"/>
     <use x="508.369141" xlink:href="#MalgunGothic-32"/>
     <use x="543.525391" xlink:href="#MalgunGothic-40"/>
     <use x="573.994141" xlink:href="#MalgunGothic-70"/>
     <use x="623.847656" xlink:href="#MalgunGothic-111"/>
     <use x="683.759766" xlink:href="#MalgunGothic-114"/>
     <use x="717.736328" xlink:href="#MalgunGothic-101"/>
     <use x="771.251953" xlink:href="#MalgunGothic-105"/>
     <use x="795.861328" xlink:href="#MalgunGothic-103"/>
     <use x="856.066406" xlink:href="#MalgunGothic-110"/>
     <use x="913.878906" xlink:href="#MalgunGothic-32"/>
     <use x="949.035156" xlink:href="#MalgunGothic-84"/>
     <use x="991.279297" xlink:href="#MalgunGothic-111"/>
     <use x="1051.191406" xlink:href="#MalgunGothic-117"/>
     <use x="1109.003906" xlink:href="#MalgunGothic-114"/>
     <use x="1144.355469" xlink:href="#MalgunGothic-105"/>
     <use x="1168.964844" xlink:href="#MalgunGothic-115"/>
     <use x="1212.275391" xlink:href="#MalgunGothic-116"/>
     <use x="1246.748047" xlink:href="#MalgunGothic-115"/>
     <use x="1290.058594" xlink:href="#MalgunGothic-41"/>
    </g>
   </g>
  </g>
 </g>
 <defs>
  <clipPath id="p7c6c94ec51">
   <rect height="78.545455" width="253.636364" x="90" y="172.8"/>
  </clipPath>
  <clipPath id="p19fd1c8c63">
   <rect height="78.545455" width="253.636364" x="394.363636" y="172.8"/>
  </clipPath>
  <clipPath id="p53605c8a82">
   <rect height="78.545455" width="253.636364" x="90" y="306.327273"/>
  </clipPath>
 </defs>
</svg>
