<?xml version="1.0" encoding="utf-8" standalone="no"?>
<!DOCTYPE svg PUBLIC "-//W3C//DTD SVG 1.1//EN"
  "http://www.w3.org/Graphics/SVG/1.1/DTD/svg11.dtd">
<!-- Created with matplotlib (https://matplotlib.org/) -->
<svg height="648pt" version="1.1" viewBox="0 0 720 648" width="720pt" xmlns="http://www.w3.org/2000/svg" xmlns:xlink="http://www.w3.org/1999/xlink">
 <defs>
  <style type="text/css">
*{stroke-linecap:butt;stroke-linejoin:round;}
  </style>
 </defs>
 <g id="figure_1">
  <g id="patch_1">
   <path d="M 0 648 
L 720 648 
L 720 0 
L 0 0 
z
" style="fill:#ffffff;"/>
  </g>
  <g id="axes_1">
   <g id="patch_2">
    <path d="M 90 111.085714 
L 648 111.085714 
L 648 64.8 
L 90 64.8 
z
" style="fill:#ffffff;"/>
   </g>
   <g id="patch_3">
    <path clip-path="url(#pfcbb7ff348)" d="M 115.363636 111.085714 
L 144.770751 111.085714 
L 144.770751 88.830435 
L 115.363636 88.830435 
z
" style="fill:#1f77b4;"/>
   </g>
   <g id="patch_4">
    <path clip-path="url(#pfcbb7ff348)" d="M 152.12253 111.085714 
L 181.529644 111.085714 
L 181.529644 67.004082 
L 152.12253 67.004082 
z
" style="fill:#1f77b4;"/>
   </g>
   <g id="patch_5">
    <path clip-path="url(#pfcbb7ff348)" d="M 188.881423 111.085714 
L 218.288538 111.085714 
L 218.288538 73.407883 
L 188.881423 73.407883 
z
" style="fill:#1f77b4;"/>
   </g>
   <g id="patch_6">
    <path clip-path="url(#pfcbb7ff348)" d="M 225.640316 111.085714 
L 255.047431 111.085714 
L 255.047431 95.004723 
L 225.640316 95.004723 
z
" style="fill:#1f77b4;"/>
   </g>
   <g id="patch_7">
    <path clip-path="url(#pfcbb7ff348)" d="M 262.399209 111.085714 
L 291.806324 111.085714 
L 291.806324 104.076148 
L 262.399209 104.076148 
z
" style="fill:#1f77b4;"/>
   </g>
   <g id="patch_8">
    <path clip-path="url(#pfcbb7ff348)" d="M 299.158103 111.085714 
L 328.565217 111.085714 
L 328.565217 106.296032 
L 299.158103 106.296032 
z
" style="fill:#1f77b4;"/>
   </g>
   <g id="patch_9">
    <path clip-path="url(#pfcbb7ff348)" d="M 335.916996 111.085714 
L 365.324111 111.085714 
L 365.324111 107.526375 
L 335.916996 107.526375 
z
" style="fill:#1f77b4;"/>
   </g>
   <g id="patch_10">
    <path clip-path="url(#pfcbb7ff348)" d="M 372.675889 111.085714 
L 402.083004 111.085714 
L 402.083004 109.099106 
L 372.675889 109.099106 
z
" style="fill:#1f77b4;"/>
   </g>
   <g id="patch_11">
    <path clip-path="url(#pfcbb7ff348)" d="M 409.434783 111.085714 
L 438.841897 111.085714 
L 438.841897 109.727446 
L 409.434783 109.727446 
z
" style="fill:#1f77b4;"/>
   </g>
   <g id="patch_12">
    <path clip-path="url(#pfcbb7ff348)" d="M 446.193676 111.085714 
L 475.600791 111.085714 
L 475.600791 110.04726 
L 446.193676 110.04726 
z
" style="fill:#1f77b4;"/>
   </g>
   <g id="patch_13">
    <path clip-path="url(#pfcbb7ff348)" d="M 482.952569 111.085714 
L 512.359684 111.085714 
L 512.359684 110.517574 
L 482.952569 110.517574 
z
" style="fill:#1f77b4;"/>
   </g>
   <g id="patch_14">
    <path clip-path="url(#pfcbb7ff348)" d="M 519.711462 111.085714 
L 549.118577 111.085714 
L 549.118577 110.502524 
L 519.711462 110.502524 
z
" style="fill:#1f77b4;"/>
   </g>
   <g id="patch_15">
    <path clip-path="url(#pfcbb7ff348)" d="M 556.470356 111.085714 
L 585.87747 111.085714 
L 585.87747 110.374599 
L 556.470356 110.374599 
z
" style="fill:#1f77b4;"/>
   </g>
   <g id="patch_16">
    <path clip-path="url(#pfcbb7ff348)" d="M 593.229249 111.085714 
L 622.636364 111.085714 
L 622.636364 110.419749 
L 593.229249 110.419749 
z
" style="fill:#1f77b4;"/>
   </g>
   <g id="matplotlib.axis_1">
    <g id="xtick_1">
     <g id="line2d_1">
      <defs>
       <path d="M 0 0 
L 0 3.5 
" id="mcea189a665" style="stroke:#000000;stroke-width:0.8;"/>
      </defs>
      <g>
       <use style="stroke:#000000;stroke-width:0.8;" x="130.067194" xlink:href="#mcea189a665" y="111.085714"/>
      </g>
     </g>
     <g id="text_1">
      <!-- 2 -->
      <defs>
       <path d="M 39.359375 52.6875 
Q 39.359375 59.125 35.546875 62.78125 
Q 31.734375 66.453125 25.4375 66.453125 
Q 20.953125 66.453125 16.453125 64.125 
Q 11.96875 61.8125 8.34375 57.765625 
L 8.34375 66.15625 
Q 15.328125 73.046875 26.421875 73.046875 
Q 35.640625 73.046875 41.28125 67.71875 
Q 46.921875 62.40625 46.921875 53.375 
Q 46.921875 45.609375 43.3125 39.765625 
Q 39.703125 33.9375 31 27.734375 
Q 22.796875 21.96875 19.59375 18.984375 
Q 16.40625 16.015625 15.109375 13.34375 
Q 13.8125 10.6875 13.8125 7.03125 
L 48.6875 7.03125 
L 48.6875 0 
L 5.5625 0 
L 5.5625 3.515625 
Q 5.5625 9.421875 7.203125 13.59375 
Q 8.84375 17.78125 12.671875 21.75 
Q 16.5 25.734375 24.953125 31.59375 
Q 32.671875 36.921875 36.015625 41.71875 
Q 39.359375 46.53125 39.359375 52.6875 
z
" id="MalgunGothic-50"/>
      </defs>
      <g transform="translate(127.313287 125.677902)scale(0.1 -0.1)">
       <use xlink:href="#MalgunGothic-50"/>
      </g>
     </g>
    </g>
    <g id="xtick_2">
     <g id="line2d_2">
      <g>
       <use style="stroke:#000000;stroke-width:0.8;" x="203.58498" xlink:href="#mcea189a665" y="111.085714"/>
      </g>
     </g>
     <g id="text_2">
      <!-- 4 -->
      <defs>
       <path d="M 42.234375 71.875 
L 42.234375 24.421875 
L 51.703125 24.421875 
L 51.703125 17.390625 
L 42.234375 17.390625 
L 42.234375 0 
L 34.578125 0 
L 34.578125 17.390625 
L 0.78125 17.390625 
L 0.78125 23.96875 
Q 11.375 35.890625 20.234375 48.578125 
Q 29.109375 61.28125 33.9375 71.875 
z
M 9.765625 24.421875 
L 34.578125 24.421875 
L 34.578125 59.859375 
Q 25.203125 43.5625 14.984375 30.953125 
z
" id="MalgunGothic-52"/>
      </defs>
      <g transform="translate(200.831074 125.677902)scale(0.1 -0.1)">
       <use xlink:href="#MalgunGothic-52"/>
      </g>
     </g>
    </g>
    <g id="xtick_3">
     <g id="line2d_3">
      <g>
       <use style="stroke:#000000;stroke-width:0.8;" x="277.102767" xlink:href="#mcea189a665" y="111.085714"/>
      </g>
     </g>
     <g id="text_3">
      <!-- 6 -->
      <defs>
       <path d="M 46.578125 63.578125 
Q 40.921875 66.40625 34.8125 66.40625 
Q 24.859375 66.40625 19.1875 57.640625 
Q 13.53125 48.875 13.578125 34.578125 
L 13.8125 34.578125 
Q 18.796875 44.875 30.28125 44.875 
Q 39.796875 44.875 45.359375 38.71875 
Q 50.921875 32.5625 50.921875 22.65625 
Q 50.921875 12.453125 44.640625 5.609375 
Q 38.375 -1.21875 28.515625 -1.21875 
Q 17.4375 -1.21875 11.5 7.46875 
Q 5.5625 16.15625 5.5625 31.546875 
Q 5.5625 49.703125 13.234375 61.375 
Q 20.90625 73.046875 34.71875 73.046875 
Q 42.1875 73.046875 46.578125 71 
z
M 14.15625 23.53125 
Q 14.15625 15.96875 18.203125 10.671875 
Q 22.265625 5.375 28.8125 5.375 
Q 35.109375 5.375 39.03125 10.078125 
Q 42.96875 14.796875 42.96875 21.6875 
Q 42.96875 29.5 39.203125 33.859375 
Q 35.453125 38.234375 28.71875 38.234375 
Q 22.5625 38.234375 18.359375 33.953125 
Q 14.15625 29.6875 14.15625 23.53125 
z
" id="MalgunGothic-54"/>
      </defs>
      <g transform="translate(274.348861 125.677902)scale(0.1 -0.1)">
       <use xlink:href="#MalgunGothic-54"/>
      </g>
     </g>
    </g>
    <g id="xtick_4">
     <g id="line2d_4">
      <g>
       <use style="stroke:#000000;stroke-width:0.8;" x="350.620553" xlink:href="#mcea189a665" y="111.085714"/>
      </g>
     </g>
     <g id="text_4">
      <!-- 8 -->
      <defs>
       <path d="M 4.734375 20.015625 
Q 4.734375 26.078125 8.421875 31.421875 
Q 12.109375 36.765625 18.015625 38.96875 
Q 13.375 41.359375 10.546875 45.546875 
Q 7.71875 49.75 7.71875 54.6875 
Q 7.71875 59.8125 10.296875 64.03125 
Q 12.890625 68.265625 17.53125 70.65625 
Q 22.171875 73.046875 27.78125 73.046875 
Q 36.46875 73.046875 42.1875 67.84375 
Q 47.90625 62.640625 47.90625 54.6875 
Q 47.90625 49.703125 45.015625 45.53125 
Q 42.140625 41.359375 37.703125 38.96875 
Q 43.5625 36.71875 47.21875 31.390625 
Q 50.875 26.078125 50.875 20.015625 
Q 50.875 10.5 44.421875 4.640625 
Q 37.984375 -1.21875 27.78125 -1.21875 
Q 17.671875 -1.21875 11.203125 4.703125 
Q 4.734375 10.640625 4.734375 20.015625 
z
M 12.640625 20.75 
Q 12.640625 13.71875 16.890625 9.546875 
Q 21.140625 5.375 27.828125 5.375 
Q 34.46875 5.375 38.78125 9.671875 
Q 43.109375 13.96875 43.109375 20.75 
Q 43.109375 27.046875 38.78125 31.421875 
Q 34.46875 35.796875 27.828125 35.796875 
Q 21.4375 35.796875 17.03125 31.5625 
Q 12.640625 27.34375 12.640625 20.75 
z
M 15.671875 54.046875 
Q 15.671875 48.828125 19.28125 45.3125 
Q 22.90625 41.796875 27.828125 41.796875 
Q 32.765625 41.796875 36.40625 45.3125 
Q 40.046875 48.828125 40.046875 54.046875 
Q 40.046875 59.421875 36.578125 62.90625 
Q 33.109375 66.40625 27.828125 66.40625 
Q 22.65625 66.40625 19.15625 62.953125 
Q 15.671875 59.515625 15.671875 54.046875 
z
" id="MalgunGothic-56"/>
      </defs>
      <g transform="translate(347.866647 125.677902)scale(0.1 -0.1)">
       <use xlink:href="#MalgunGothic-56"/>
      </g>
     </g>
    </g>
    <g id="xtick_5">
     <g id="line2d_5">
      <g>
       <use style="stroke:#000000;stroke-width:0.8;" x="424.13834" xlink:href="#mcea189a665" y="111.085714"/>
      </g>
     </g>
     <g id="text_5">
      <!-- 10 -->
      <defs>
       <path d="M 34.859375 0 
L 27.09375 0 
L 27.09375 62.0625 
Q 24.859375 59.8125 19.78125 57.203125 
Q 14.703125 54.59375 10.5 53.5625 
L 10.5 61.859375 
Q 15.875 63.375 22.015625 66.796875 
Q 28.171875 70.21875 31.734375 73.4375 
L 34.859375 73.4375 
z
" id="MalgunGothic-49"/>
       <path d="M 4.34375 34.46875 
Q 4.34375 53.515625 10.546875 63.28125 
Q 16.75 73.046875 28.421875 73.046875 
Q 50.828125 73.046875 50.828125 36.234375 
Q 50.828125 18.0625 44.59375 8.421875 
Q 38.375 -1.21875 26.8125 -1.21875 
Q 15.875 -1.21875 10.109375 8.125 
Q 4.34375 17.484375 4.34375 34.46875 
z
M 12.25 34.859375 
Q 12.25 5.375 27.640625 5.375 
Q 42.921875 5.375 42.921875 35.296875 
Q 42.921875 66.40625 28.03125 66.40625 
Q 12.25 66.40625 12.25 34.859375 
z
" id="MalgunGothic-48"/>
      </defs>
      <g transform="translate(418.630527 125.677902)scale(0.1 -0.1)">
       <use xlink:href="#MalgunGothic-49"/>
       <use x="55.078125" xlink:href="#MalgunGothic-48"/>
      </g>
     </g>
    </g>
    <g id="xtick_6">
     <g id="line2d_6">
      <g>
       <use style="stroke:#000000;stroke-width:0.8;" x="497.656126" xlink:href="#mcea189a665" y="111.085714"/>
      </g>
     </g>
     <g id="text_6">
      <!-- 12 -->
      <g transform="translate(492.148314 125.677902)scale(0.1 -0.1)">
       <use xlink:href="#MalgunGothic-49"/>
       <use x="55.078125" xlink:href="#MalgunGothic-50"/>
      </g>
     </g>
    </g>
    <g id="xtick_7">
     <g id="line2d_7">
      <g>
       <use style="stroke:#000000;stroke-width:0.8;" x="571.173913" xlink:href="#mcea189a665" y="111.085714"/>
      </g>
     </g>
     <g id="text_7">
      <!-- 14 -->
      <g transform="translate(565.666101 125.677902)scale(0.1 -0.1)">
       <use xlink:href="#MalgunGothic-49"/>
       <use x="55.078125" xlink:href="#MalgunGothic-52"/>
      </g>
     </g>
    </g>
    <g id="xtick_8">
     <g id="line2d_8">
      <g>
       <use style="stroke:#000000;stroke-width:0.8;" x="644.6917" xlink:href="#mcea189a665" y="111.085714"/>
      </g>
     </g>
     <g id="text_8">
      <!-- 16 -->
      <g transform="translate(639.183887 125.677902)scale(0.1 -0.1)">
       <use xlink:href="#MalgunGothic-49"/>
       <use x="55.078125" xlink:href="#MalgunGothic-54"/>
      </g>
     </g>
    </g>
    <g id="text_9">
     <!-- period -->
     <defs>
      <path d="M 16.15625 7.515625 
L 16.15625 -23.640625 
L 8.40625 -23.640625 
L 8.40625 51.3125 
L 16.15625 51.3125 
L 16.15625 42.234375 
L 16.359375 42.234375 
Q 22.46875 52.484375 34.125 52.484375 
Q 43.890625 52.484375 49.546875 45.625 
Q 55.21875 38.765625 55.21875 27.15625 
Q 55.21875 14.15625 48.84375 6.46875 
Q 42.484375 -1.21875 31.78125 -1.21875 
Q 21.78125 -1.21875 16.359375 7.515625 
z
M 16.15625 20.796875 
Q 16.15625 14.40625 20.421875 9.890625 
Q 24.703125 5.375 31.109375 5.375 
Q 38.671875 5.375 42.984375 11.1875 
Q 47.3125 17 47.3125 27.390625 
Q 47.3125 35.9375 43.234375 40.9375 
Q 39.15625 45.953125 32.375 45.953125 
Q 25.296875 45.953125 20.71875 40.921875 
Q 16.15625 35.890625 16.15625 28.21875 
z
" id="MalgunGothic-112"/>
      <path d="M 49.3125 23.734375 
L 12.9375 23.734375 
Q 13.1875 14.84375 17.703125 10.125 
Q 22.21875 5.421875 29.828125 5.421875 
Q 38.625 5.421875 45.84375 11.234375 
L 45.84375 3.8125 
Q 38.96875 -1.21875 28.03125 -1.21875 
Q 17.1875 -1.21875 11.0625 5.875 
Q 4.9375 12.984375 4.9375 25.53125 
Q 4.9375 37.203125 11.671875 44.84375 
Q 18.40625 52.484375 28.375 52.484375 
Q 38.328125 52.484375 43.8125 45.96875 
Q 49.3125 39.453125 49.3125 27.9375 
z
M 41.3125 30.5625 
Q 41.3125 37.75 37.859375 41.796875 
Q 34.421875 45.84375 28.265625 45.84375 
Q 22.46875 45.84375 18.265625 41.671875 
Q 14.0625 37.5 13.03125 30.5625 
z
" id="MalgunGothic-101"/>
      <path d="M 34.765625 43.359375 
Q 32.5625 45.015625 28.5625 45.015625 
Q 23.296875 45.015625 19.71875 39.890625 
Q 16.15625 34.765625 16.15625 26.265625 
L 16.15625 0 
L 8.40625 0 
L 8.40625 51.3125 
L 16.15625 51.3125 
L 16.15625 40.671875 
L 16.359375 40.671875 
Q 18.109375 46.09375 21.703125 49.140625 
Q 25.296875 52.203125 29.734375 52.203125 
Q 32.953125 52.203125 34.765625 51.515625 
z
" id="MalgunGothic-114"/>
      <path d="M 7.375 69.78125 
Q 7.375 71.96875 8.828125 73.453125 
Q 10.296875 74.953125 12.40625 74.953125 
Q 14.59375 74.953125 16.078125 73.4375 
Q 17.578125 71.921875 17.578125 69.78125 
Q 17.578125 67.578125 16.078125 66.109375 
Q 14.59375 64.65625 12.40625 64.65625 
Q 10.296875 64.65625 8.828125 66.09375 
Q 7.375 67.53125 7.375 69.78125 
z
M 8.453125 0 
L 8.453125 51.3125 
L 16.15625 51.3125 
L 16.15625 0 
z
" id="MalgunGothic-105"/>
      <path d="M 4.9375 25 
Q 4.9375 37.796875 11.890625 45.140625 
Q 18.84375 52.484375 30.90625 52.484375 
Q 42.140625 52.484375 48.609375 45.421875 
Q 55.078125 38.375 55.078125 25.78125 
Q 55.078125 13.578125 48.09375 6.171875 
Q 41.109375 -1.21875 29.6875 -1.21875 
Q 18.5 -1.21875 11.71875 6 
Q 4.9375 13.234375 4.9375 25 
z
M 12.796875 25.34375 
Q 12.796875 16.265625 17.546875 10.8125 
Q 22.3125 5.375 30.21875 5.375 
Q 38.421875 5.375 42.796875 10.625 
Q 47.171875 15.875 47.171875 25.53125 
Q 47.171875 35.25 42.765625 40.59375 
Q 38.375 45.953125 30.21875 45.953125 
Q 22.265625 45.953125 17.53125 40.421875 
Q 12.796875 34.90625 12.796875 25.34375 
z
" id="MalgunGothic-111"/>
      <path d="M 51.765625 0 
L 44.09375 0 
L 44.09375 8.84375 
L 43.890625 8.84375 
Q 38.1875 -1.21875 26.171875 -1.21875 
Q 16.5 -1.21875 10.71875 5.6875 
Q 4.9375 12.59375 4.9375 24.46875 
Q 4.9375 37.109375 11.375 44.796875 
Q 17.828125 52.484375 28.375 52.484375 
Q 38.96875 52.484375 43.890625 44.09375 
L 44.09375 44.09375 
L 44.09375 75.921875 
L 51.765625 75.921875 
z
M 44.09375 30.90625 
Q 44.09375 37.15625 39.84375 41.546875 
Q 35.59375 45.953125 29.25 45.953125 
Q 21.625 45.953125 17.203125 40.265625 
Q 12.796875 34.578125 12.796875 24.859375 
Q 12.796875 16.015625 16.96875 10.6875 
Q 21.140625 5.375 28.328125 5.375 
Q 35.15625 5.375 39.625 10.40625 
Q 44.09375 15.4375 44.09375 23.09375 
z
" id="MalgunGothic-100"/>
     </defs>
     <g transform="translate(349.912344 141.911808)scale(0.13 -0.13)">
      <use xlink:href="#MalgunGothic-112"/>
      <use x="60.058594" xlink:href="#MalgunGothic-101"/>
      <use x="113.574219" xlink:href="#MalgunGothic-114"/>
      <use x="148.925781" xlink:href="#MalgunGothic-105"/>
      <use x="173.535156" xlink:href="#MalgunGothic-111"/>
      <use x="233.447266" xlink:href="#MalgunGothic-100"/>
     </g>
    </g>
   </g>
   <g id="matplotlib.axis_2">
    <g id="ytick_1">
     <g id="line2d_9">
      <defs>
       <path d="M 0 0 
L -3.5 0 
" id="mdd2ce46a6d" style="stroke:#000000;stroke-width:0.8;"/>
      </defs>
      <g>
       <use style="stroke:#000000;stroke-width:0.8;" x="90" xlink:href="#mdd2ce46a6d" y="111.085714"/>
      </g>
     </g>
     <g id="text_10">
      <!-- 0.0 -->
      <defs>
       <path d="M 5.5625 4.296875 
Q 5.5625 6.59375 7.171875 8.171875 
Q 8.796875 9.765625 10.9375 9.765625 
Q 13.09375 9.765625 14.703125 8.171875 
Q 16.3125 6.59375 16.3125 4.296875 
Q 16.3125 2.15625 14.71875 0.515625 
Q 13.140625 -1.125 10.9375 -1.125 
Q 8.734375 -1.125 7.140625 0.453125 
Q 5.5625 2.046875 5.5625 4.296875 
z
" id="MalgunGothic-46"/>
      </defs>
      <g transform="translate(69.796875 114.881808)scale(0.1 -0.1)">
       <use xlink:href="#MalgunGothic-48"/>
       <use x="55.078125" xlink:href="#MalgunGothic-46"/>
       <use x="76.953125" xlink:href="#MalgunGothic-48"/>
      </g>
     </g>
    </g>
    <g id="ytick_2">
     <g id="line2d_10">
      <g>
       <use style="stroke:#000000;stroke-width:0.8;" x="90" xlink:href="#mdd2ce46a6d" y="82.612501"/>
      </g>
     </g>
     <g id="text_11">
      <!-- 0.2 -->
      <g transform="translate(69.796875 86.408595)scale(0.1 -0.1)">
       <use xlink:href="#MalgunGothic-48"/>
       <use x="55.078125" xlink:href="#MalgunGothic-46"/>
       <use x="76.953125" xlink:href="#MalgunGothic-50"/>
      </g>
     </g>
    </g>
    <g id="text_12">
     <!-- ratio -->
     <defs>
      <path d="M 9.625 47.65625 
Q 17.140625 52.484375 26.90625 52.484375 
Q 44.78125 52.484375 44.78125 33.546875 
L 44.78125 0 
L 37.015625 0 
L 37.015625 8.0625 
L 36.71875 8.0625 
Q 31.390625 -1.21875 20.953125 -1.21875 
Q 13.421875 -1.21875 9 2.8125 
Q 4.59375 6.84375 4.59375 13.578125 
Q 4.59375 27.875 21.484375 30.21875 
L 36.96875 32.46875 
Q 36.96875 45.84375 26.3125 45.84375 
Q 16.9375 45.84375 9.625 39.453125 
z
M 24.421875 24.359375 
Q 18.40625 23.578125 15.515625 21.421875 
Q 12.640625 19.28125 12.640625 14.109375 
Q 12.640625 10.203125 15.40625 7.8125 
Q 18.171875 5.421875 22.65625 5.421875 
Q 28.859375 5.421875 32.90625 9.8125 
Q 36.96875 14.203125 36.96875 20.84375 
L 36.96875 26.03125 
z
" id="MalgunGothic-97"/>
      <path d="M 31.734375 0.484375 
Q 28.8125 -1.125 24.265625 -1.125 
Q 11.03125 -1.125 11.03125 13.765625 
L 11.03125 44.625 
L 2.15625 44.625 
L 2.15625 51.3125 
L 11.03125 51.3125 
L 11.03125 63.921875 
L 18.75 66.40625 
L 18.75 51.3125 
L 31.734375 51.3125 
L 31.734375 44.625 
L 18.75 44.625 
L 18.75 15.1875 
Q 18.75 9.765625 20.546875 7.609375 
Q 22.359375 5.46875 26.421875 5.46875 
Q 29.5 5.46875 31.734375 7.171875 
z
" id="MalgunGothic-116"/>
     </defs>
     <g transform="translate(62.723594 101.355201)rotate(-90)scale(0.13 -0.13)">
      <use xlink:href="#MalgunGothic-114"/>
      <use x="35.351562" xlink:href="#MalgunGothic-97"/>
      <use x="87.353516" xlink:href="#MalgunGothic-116"/>
      <use x="121.826172" xlink:href="#MalgunGothic-105"/>
      <use x="146.435547" xlink:href="#MalgunGothic-111"/>
     </g>
    </g>
   </g>
   <g id="patch_17">
    <path d="M 90 111.085714 
L 90 64.8 
" style="fill:none;stroke:#000000;stroke-linecap:square;stroke-linejoin:miter;stroke-width:0.8;"/>
   </g>
   <g id="patch_18">
    <path d="M 648 111.085714 
L 648 64.8 
" style="fill:none;stroke:#000000;stroke-linecap:square;stroke-linejoin:miter;stroke-width:0.8;"/>
   </g>
   <g id="patch_19">
    <path d="M 90 111.085714 
L 648 111.085714 
" style="fill:none;stroke:#000000;stroke-linecap:square;stroke-linejoin:miter;stroke-width:0.8;"/>
   </g>
   <g id="patch_20">
    <path d="M 90 64.8 
L 648 64.8 
" style="fill:none;stroke:#000000;stroke-linecap:square;stroke-linejoin:miter;stroke-width:0.8;"/>
   </g>
   <g id="text_13">
    <!-- Stay Period Ratio(both_user) -->
    <defs>
     <path d="M 6.15625 12.453125 
Q 9.46875 9.578125 15.0625 7.8125 
Q 20.65625 6.0625 25.390625 6.0625 
Q 41.0625 6.0625 41.0625 17.4375 
Q 41.0625 20.703125 39.421875 23.1875 
Q 37.796875 25.6875 35.15625 27.4375 
Q 32.515625 29.203125 24.171875 33.5 
Q 14.109375 38.671875 10.171875 43.03125 
Q 6.25 47.40625 6.25 54 
Q 6.25 62.796875 13.40625 67.921875 
Q 20.5625 73.046875 31.0625 73.046875 
Q 41.703125 73.046875 46.296875 70.515625 
L 46.296875 61.375 
Q 40.046875 65.71875 30.03125 65.71875 
Q 23.1875 65.71875 18.859375 62.78125 
Q 14.546875 59.859375 14.546875 54.6875 
Q 14.546875 50 17.59375 47.046875 
Q 20.65625 44.09375 30.28125 39.40625 
Q 41.5 33.796875 45.40625 28.8125 
Q 49.3125 23.828125 49.3125 18.015625 
Q 49.3125 8.6875 42.578125 3.734375 
Q 35.84375 -1.21875 23.921875 -1.21875 
Q 20.171875 -1.21875 14.484375 -0.015625 
Q 8.796875 1.171875 6.15625 2.9375 
z
" id="MalgunGothic-83"/>
     <path d="M 48.734375 51.3125 
L 24.953125 -8.5 
Q 18.703125 -24.171875 7.515625 -24.171875 
Q 4.890625 -24.171875 2.4375 -23.578125 
L 2.4375 -16.5 
Q 4.9375 -17.328125 7.171875 -17.328125 
Q 13.421875 -17.328125 16.546875 -9.8125 
L 20.75 0.09375 
L 0.734375 51.3125 
L 9.328125 51.3125 
L 23.484375 11.28125 
Q 23.640625 10.890625 24.5625 7.625 
L 24.8125 7.625 
L 25.78125 11.1875 
L 40.671875 51.3125 
z
" id="MalgunGothic-121"/>
     <path id="MalgunGothic-32"/>
     <path d="M 17.390625 27.296875 
L 17.390625 0 
L 9.515625 0 
L 9.515625 71.875 
L 28.90625 71.875 
Q 40.234375 71.875 46.546875 66.25 
Q 52.875 60.640625 52.875 50.484375 
Q 52.875 39.984375 45.453125 33.4375 
Q 38.03125 26.90625 27 27.296875 
z
M 17.390625 64.546875 
L 17.390625 34.671875 
L 26.421875 34.671875 
Q 35.25 34.671875 39.90625 38.671875 
Q 44.578125 42.671875 44.578125 50.09375 
Q 44.578125 64.546875 27.484375 64.546875 
z
" id="MalgunGothic-80"/>
     <path d="M 60.40625 0 
L 50.921875 0 
L 38.875 20.21875 
Q 35.015625 26.65625 31.9375 28.703125 
Q 28.859375 30.765625 24.515625 30.765625 
L 17.390625 30.765625 
L 17.390625 0 
L 9.515625 0 
L 9.515625 71.875 
L 30.671875 71.875 
Q 40.578125 71.875 46.40625 66.75 
Q 52.25 61.625 52.25 52.734375 
Q 52.25 37.84375 36.328125 33.40625 
L 36.328125 33.203125 
Q 39.359375 31.890625 41.328125 29.71875 
Q 43.3125 27.546875 46.96875 21.578125 
z
M 17.390625 64.5 
L 17.390625 38.09375 
L 29.15625 38.09375 
Q 35.796875 38.09375 39.875 41.96875 
Q 43.953125 45.84375 43.953125 52.09375 
Q 43.953125 57.953125 40.15625 61.21875 
Q 36.375 64.5 29.25 64.5 
z
" id="MalgunGothic-82"/>
     <path d="M 22.46875 -16.3125 
Q 6.984375 1.375 6.984375 27.390625 
Q 6.984375 53.609375 22.46875 71.875 
L 29.5 71.875 
Q 13.71875 52.6875 13.71875 27.484375 
Q 13.71875 2.390625 29.390625 -16.3125 
z
" id="MalgunGothic-40"/>
     <path d="M 16.15625 7.515625 
L 16.15625 0 
L 8.40625 0 
L 8.40625 75.921875 
L 16.15625 75.921875 
L 16.15625 42.234375 
L 16.359375 42.234375 
Q 22.46875 52.484375 34.125 52.484375 
Q 43.953125 52.484375 49.578125 45.578125 
Q 55.21875 38.671875 55.21875 27.15625 
Q 55.21875 14.15625 48.84375 6.46875 
Q 42.484375 -1.21875 31.78125 -1.21875 
Q 21.625 -1.21875 16.359375 7.515625 
z
M 16.15625 20.84375 
Q 16.15625 14.40625 20.421875 9.890625 
Q 24.703125 5.375 31.109375 5.375 
Q 38.671875 5.375 42.984375 11.1875 
Q 47.3125 17 47.3125 27.390625 
Q 47.3125 35.984375 43.234375 40.96875 
Q 39.15625 45.953125 32.375 45.953125 
Q 25.25 45.953125 20.703125 40.875 
Q 16.15625 35.796875 16.15625 28.171875 
z
" id="MalgunGothic-98"/>
     <path d="M 50.59375 0 
L 42.875 0 
L 42.875 29.59375 
Q 42.875 45.953125 30.671875 45.953125 
Q 24.5625 45.953125 20.359375 41.203125 
Q 16.15625 36.46875 16.15625 29.046875 
L 16.15625 0 
L 8.40625 0 
L 8.40625 75.921875 
L 16.15625 75.921875 
L 16.15625 42.71875 
L 16.359375 42.71875 
Q 22.265625 52.484375 33.25 52.484375 
Q 50.59375 52.484375 50.59375 31.59375 
z
" id="MalgunGothic-104"/>
     <path d="M 42.578125 -14.890625 
L 0 -14.890625 
L 0 -8.890625 
L 42.578125 -8.890625 
z
" id="MalgunGothic-95"/>
     <path d="M 49.46875 0 
L 41.703125 0 
L 41.703125 8.109375 
L 41.5 8.109375 
Q 36.421875 -1.21875 25.6875 -1.21875 
Q 7.328125 -1.21875 7.328125 20.65625 
L 7.328125 51.3125 
L 14.984375 51.3125 
L 14.984375 21.921875 
Q 14.984375 5.375 27.59375 5.375 
Q 33.734375 5.375 37.71875 9.9375 
Q 41.703125 14.5 41.703125 21.78125 
L 41.703125 51.3125 
L 49.46875 51.3125 
z
" id="MalgunGothic-117"/>
     <path d="M 5.171875 10.453125 
Q 11.921875 5.46875 19.96875 5.46875 
Q 30.90625 5.46875 30.90625 12.84375 
Q 30.90625 16.015625 28.515625 18.09375 
Q 26.125 20.171875 19.09375 22.796875 
Q 10.984375 26.03125 8.125 29.34375 
Q 5.28125 32.671875 5.28125 37.75 
Q 5.28125 44.28125 10.9375 48.375 
Q 16.609375 52.484375 24.75 52.484375 
Q 31.296875 52.484375 36.578125 50.203125 
L 36.578125 42.140625 
Q 30.859375 45.84375 23.53125 45.84375 
Q 18.75 45.84375 16.015625 43.71875 
Q 13.28125 41.609375 13.28125 38.421875 
Q 13.28125 35.015625 15.296875 33.203125 
Q 17.328125 31.390625 24.125 28.71875 
Q 33.296875 25.140625 36.078125 21.71875 
Q 38.875 18.3125 38.875 13.578125 
Q 38.875 6.734375 33.234375 2.75 
Q 27.59375 -1.21875 18.796875 -1.21875 
Q 10.84375 -1.21875 5.171875 1.90625 
z
" id="MalgunGothic-115"/>
     <path d="M 1.265625 -16.3125 
Q 16.890625 2.34375 16.890625 27.484375 
Q 16.890625 52.78125 1.125 71.875 
L 8.203125 71.875 
Q 23.78125 53.609375 23.78125 27.390625 
Q 23.78125 1.375 8.203125 -16.3125 
z
" id="MalgunGothic-41"/>
    </defs>
    <g transform="translate(260.089766 58.8)scale(0.17 -0.17)">
     <use xlink:href="#MalgunGothic-83"/>
     <use x="50.796875" xlink:href="#MalgunGothic-116"/>
     <use x="85.269531" xlink:href="#MalgunGothic-97"/>
     <use x="137.271484" xlink:href="#MalgunGothic-121"/>
     <use x="186.539062" xlink:href="#MalgunGothic-32"/>
     <use x="221.695312" xlink:href="#MalgunGothic-80"/>
     <use x="274.775391" xlink:href="#MalgunGothic-101"/>
     <use x="328.291016" xlink:href="#MalgunGothic-114"/>
     <use x="363.642578" xlink:href="#MalgunGothic-105"/>
     <use x="388.251953" xlink:href="#MalgunGothic-111"/>
     <use x="448.164062" xlink:href="#MalgunGothic-100"/>
     <use x="508.369141" xlink:href="#MalgunGothic-32"/>
     <use x="543.525391" xlink:href="#MalgunGothic-82"/>
     <use x="604.511719" xlink:href="#MalgunGothic-97"/>
     <use x="656.513672" xlink:href="#MalgunGothic-116"/>
     <use x="690.986328" xlink:href="#MalgunGothic-105"/>
     <use x="715.595703" xlink:href="#MalgunGothic-111"/>
     <use x="775.507812" xlink:href="#MalgunGothic-40"/>
     <use x="805.976562" xlink:href="#MalgunGothic-98"/>
     <use x="866.035156" xlink:href="#MalgunGothic-111"/>
     <use x="925.947266" xlink:href="#MalgunGothic-116"/>
     <use x="960.419922" xlink:href="#MalgunGothic-104"/>
     <use x="1018.28125" xlink:href="#MalgunGothic-95"/>
     <use x="1060.859375" xlink:href="#MalgunGothic-117"/>
     <use x="1118.671875" xlink:href="#MalgunGothic-115"/>
     <use x="1161.982422" xlink:href="#MalgunGothic-101"/>
     <use x="1215.498047" xlink:href="#MalgunGothic-114"/>
     <use x="1250.849609" xlink:href="#MalgunGothic-41"/>
    </g>
   </g>
  </g>
  <g id="axes_2">
   <g id="patch_21">
    <path d="M 90 189.771429 
L 648 189.771429 
L 648 143.485714 
L 90 143.485714 
z
" style="fill:#ffffff;"/>
   </g>
   <g id="patch_22">
    <path clip-path="url(#p60a23963dc)" d="M 115.363636 189.771429 
L 144.770751 189.771429 
L 144.770751 150.702471 
L 115.363636 150.702471 
z
" style="fill:#1f77b4;"/>
   </g>
   <g id="patch_23">
    <path clip-path="url(#p60a23963dc)" d="M 152.12253 189.771429 
L 181.529644 189.771429 
L 181.529644 145.689796 
L 152.12253 145.689796 
z
" style="fill:#1f77b4;"/>
   </g>
   <g id="patch_24">
    <path clip-path="url(#p60a23963dc)" d="M 188.881423 189.771429 
L 218.288538 189.771429 
L 218.288538 163.465668 
L 188.881423 163.465668 
z
" style="fill:#1f77b4;"/>
   </g>
   <g id="patch_25">
    <path clip-path="url(#p60a23963dc)" d="M 225.640316 189.771429 
L 255.047431 189.771429 
L 255.047431 177.741583 
L 225.640316 177.741583 
z
" style="fill:#1f77b4;"/>
   </g>
   <g id="patch_26">
    <path clip-path="url(#p60a23963dc)" d="M 262.399209 189.771429 
L 291.806324 189.771429 
L 291.806324 184.057036 
L 262.399209 184.057036 
z
" style="fill:#1f77b4;"/>
   </g>
   <g id="patch_27">
    <path clip-path="url(#p60a23963dc)" d="M 299.158103 189.771429 
L 328.565217 189.771429 
L 328.565217 185.630148 
L 299.158103 185.630148 
z
" style="fill:#1f77b4;"/>
   </g>
   <g id="patch_28">
    <path clip-path="url(#p60a23963dc)" d="M 335.916996 189.771429 
L 365.324111 189.771429 
L 365.324111 186.826518 
L 335.916996 186.826518 
z
" style="fill:#1f77b4;"/>
   </g>
   <g id="patch_29">
    <path clip-path="url(#p60a23963dc)" d="M 372.675889 189.771429 
L 402.083004 189.771429 
L 402.083004 187.910728 
L 372.675889 187.910728 
z
" style="fill:#1f77b4;"/>
   </g>
   <g id="patch_30">
    <path clip-path="url(#p60a23963dc)" d="M 409.434783 189.771429 
L 438.841897 189.771429 
L 438.841897 188.388126 
L 409.434783 188.388126 
z
" style="fill:#1f77b4;"/>
   </g>
   <g id="patch_31">
    <path clip-path="url(#p60a23963dc)" d="M 446.193676 189.771429 
L 475.600791 189.771429 
L 475.600791 188.687218 
L 446.193676 188.687218 
z
" style="fill:#1f77b4;"/>
   </g>
   <g id="patch_32">
    <path clip-path="url(#p60a23963dc)" d="M 482.952569 189.771429 
L 512.359684 189.771429 
L 512.359684 188.672839 
L 482.952569 188.672839 
z
" style="fill:#1f77b4;"/>
   </g>
   <g id="patch_33">
    <path clip-path="url(#p60a23963dc)" d="M 519.711462 189.771429 
L 549.118577 189.771429 
L 549.118577 188.713101 
L 519.711462 188.713101 
z
" style="fill:#1f77b4;"/>
   </g>
   <g id="patch_34">
    <path clip-path="url(#p60a23963dc)" d="M 556.470356 189.771429 
L 585.87747 189.771429 
L 585.87747 188.75624 
L 556.470356 188.75624 
z
" style="fill:#1f77b4;"/>
   </g>
   <g id="patch_35">
    <path clip-path="url(#p60a23963dc)" d="M 593.229249 189.771429 
L 622.636364 189.771429 
L 622.636364 188.402505 
L 593.229249 188.402505 
z
" style="fill:#1f77b4;"/>
   </g>
   <g id="matplotlib.axis_3">
    <g id="xtick_9">
     <g id="line2d_11">
      <g>
       <use style="stroke:#000000;stroke-width:0.8;" x="130.067194" xlink:href="#mcea189a665" y="189.771429"/>
      </g>
     </g>
     <g id="text_14">
      <!-- 2 -->
      <g transform="translate(127.313287 204.363616)scale(0.1 -0.1)">
       <use xlink:href="#MalgunGothic-50"/>
      </g>
     </g>
    </g>
    <g id="xtick_10">
     <g id="line2d_12">
      <g>
       <use style="stroke:#000000;stroke-width:0.8;" x="203.58498" xlink:href="#mcea189a665" y="189.771429"/>
      </g>
     </g>
     <g id="text_15">
      <!-- 4 -->
      <g transform="translate(200.831074 204.363616)scale(0.1 -0.1)">
       <use xlink:href="#MalgunGothic-52"/>
      </g>
     </g>
    </g>
    <g id="xtick_11">
     <g id="line2d_13">
      <g>
       <use style="stroke:#000000;stroke-width:0.8;" x="277.102767" xlink:href="#mcea189a665" y="189.771429"/>
      </g>
     </g>
     <g id="text_16">
      <!-- 6 -->
      <g transform="translate(274.348861 204.363616)scale(0.1 -0.1)">
       <use xlink:href="#MalgunGothic-54"/>
      </g>
     </g>
    </g>
    <g id="xtick_12">
     <g id="line2d_14">
      <g>
       <use style="stroke:#000000;stroke-width:0.8;" x="350.620553" xlink:href="#mcea189a665" y="189.771429"/>
      </g>
     </g>
     <g id="text_17">
      <!-- 8 -->
      <g transform="translate(347.866647 204.363616)scale(0.1 -0.1)">
       <use xlink:href="#MalgunGothic-56"/>
      </g>
     </g>
    </g>
    <g id="xtick_13">
     <g id="line2d_15">
      <g>
       <use style="stroke:#000000;stroke-width:0.8;" x="424.13834" xlink:href="#mcea189a665" y="189.771429"/>
      </g>
     </g>
     <g id="text_18">
      <!-- 10 -->
      <g transform="translate(418.630527 204.363616)scale(0.1 -0.1)">
       <use xlink:href="#MalgunGothic-49"/>
       <use x="55.078125" xlink:href="#MalgunGothic-48"/>
      </g>
     </g>
    </g>
    <g id="xtick_14">
     <g id="line2d_16">
      <g>
       <use style="stroke:#000000;stroke-width:0.8;" x="497.656126" xlink:href="#mcea189a665" y="189.771429"/>
      </g>
     </g>
     <g id="text_19">
      <!-- 12 -->
      <g transform="translate(492.148314 204.363616)scale(0.1 -0.1)">
       <use xlink:href="#MalgunGothic-49"/>
       <use x="55.078125" xlink:href="#MalgunGothic-50"/>
      </g>
     </g>
    </g>
    <g id="xtick_15">
     <g id="line2d_17">
      <g>
       <use style="stroke:#000000;stroke-width:0.8;" x="571.173913" xlink:href="#mcea189a665" y="189.771429"/>
      </g>
     </g>
     <g id="text_20">
      <!-- 14 -->
      <g transform="translate(565.666101 204.363616)scale(0.1 -0.1)">
       <use xlink:href="#MalgunGothic-49"/>
       <use x="55.078125" xlink:href="#MalgunGothic-52"/>
      </g>
     </g>
    </g>
    <g id="xtick_16">
     <g id="line2d_18">
      <g>
       <use style="stroke:#000000;stroke-width:0.8;" x="644.6917" xlink:href="#mcea189a665" y="189.771429"/>
      </g>
     </g>
     <g id="text_21">
      <!-- 16 -->
      <g transform="translate(639.183887 204.363616)scale(0.1 -0.1)">
       <use xlink:href="#MalgunGothic-49"/>
       <use x="55.078125" xlink:href="#MalgunGothic-54"/>
      </g>
     </g>
    </g>
    <g id="text_22">
     <!-- period -->
     <g transform="translate(349.912344 220.597522)scale(0.13 -0.13)">
      <use xlink:href="#MalgunGothic-112"/>
      <use x="60.058594" xlink:href="#MalgunGothic-101"/>
      <use x="113.574219" xlink:href="#MalgunGothic-114"/>
      <use x="148.925781" xlink:href="#MalgunGothic-105"/>
      <use x="173.535156" xlink:href="#MalgunGothic-111"/>
      <use x="233.447266" xlink:href="#MalgunGothic-100"/>
     </g>
    </g>
   </g>
   <g id="matplotlib.axis_4">
    <g id="ytick_3">
     <g id="line2d_19">
      <g>
       <use style="stroke:#000000;stroke-width:0.8;" x="90" xlink:href="#mdd2ce46a6d" y="189.771429"/>
      </g>
     </g>
     <g id="text_23">
      <!-- 0.0 -->
      <g transform="translate(69.796875 193.567522)scale(0.1 -0.1)">
       <use xlink:href="#MalgunGothic-48"/>
       <use x="55.078125" xlink:href="#MalgunGothic-46"/>
       <use x="76.953125" xlink:href="#MalgunGothic-48"/>
      </g>
     </g>
    </g>
    <g id="ytick_4">
     <g id="line2d_20">
      <g>
       <use style="stroke:#000000;stroke-width:0.8;" x="90" xlink:href="#mdd2ce46a6d" y="161.140224"/>
      </g>
     </g>
     <g id="text_24">
      <!-- 0.2 -->
      <g transform="translate(69.796875 164.936318)scale(0.1 -0.1)">
       <use xlink:href="#MalgunGothic-48"/>
       <use x="55.078125" xlink:href="#MalgunGothic-46"/>
       <use x="76.953125" xlink:href="#MalgunGothic-50"/>
      </g>
     </g>
    </g>
    <g id="text_25">
     <!-- ratio -->
     <g transform="translate(62.723594 180.040915)rotate(-90)scale(0.13 -0.13)">
      <use xlink:href="#MalgunGothic-114"/>
      <use x="35.351562" xlink:href="#MalgunGothic-97"/>
      <use x="87.353516" xlink:href="#MalgunGothic-116"/>
      <use x="121.826172" xlink:href="#MalgunGothic-105"/>
      <use x="146.435547" xlink:href="#MalgunGothic-111"/>
     </g>
    </g>
   </g>
   <g id="patch_36">
    <path d="M 90 189.771429 
L 90 143.485714 
" style="fill:none;stroke:#000000;stroke-linecap:square;stroke-linejoin:miter;stroke-width:0.8;"/>
   </g>
   <g id="patch_37">
    <path d="M 648 189.771429 
L 648 143.485714 
" style="fill:none;stroke:#000000;stroke-linecap:square;stroke-linejoin:miter;stroke-width:0.8;"/>
   </g>
   <g id="patch_38">
    <path d="M 90 189.771429 
L 648 189.771429 
" style="fill:none;stroke:#000000;stroke-linecap:square;stroke-linejoin:miter;stroke-width:0.8;"/>
   </g>
   <g id="patch_39">
    <path d="M 90 143.485714 
L 648 143.485714 
" style="fill:none;stroke:#000000;stroke-linecap:square;stroke-linejoin:miter;stroke-width:0.8;"/>
   </g>
   <g id="text_26">
    <!-- Stay Period Ratio(first_user) -->
    <defs>
     <path d="M 33.25 69.09375 
Q 30.859375 70.40625 27.78125 70.40625 
Q 19.09375 70.40625 19.09375 59.375 
L 19.09375 51.3125 
L 31.109375 51.3125 
L 31.109375 44.625 
L 19.09375 44.625 
L 19.09375 0 
L 11.46875 0 
L 11.46875 44.625 
L 2.6875 44.625 
L 2.6875 51.3125 
L 11.46875 51.3125 
L 11.46875 59.765625 
Q 11.46875 67.828125 16.03125 72.4375 
Q 20.609375 77.046875 27.390625 77.046875 
Q 31.15625 77.046875 33.25 76.171875 
z
" id="MalgunGothic-102"/>
    </defs>
    <g transform="translate(263.673047 137.485714)scale(0.17 -0.17)">
     <use xlink:href="#MalgunGothic-83"/>
     <use x="50.796875" xlink:href="#MalgunGothic-116"/>
     <use x="85.269531" xlink:href="#MalgunGothic-97"/>
     <use x="137.271484" xlink:href="#MalgunGothic-121"/>
     <use x="186.539062" xlink:href="#MalgunGothic-32"/>
     <use x="221.695312" xlink:href="#MalgunGothic-80"/>
     <use x="274.775391" xlink:href="#MalgunGothic-101"/>
     <use x="328.291016" xlink:href="#MalgunGothic-114"/>
     <use x="363.642578" xlink:href="#MalgunGothic-105"/>
     <use x="388.251953" xlink:href="#MalgunGothic-111"/>
     <use x="448.164062" xlink:href="#MalgunGothic-100"/>
     <use x="508.369141" xlink:href="#MalgunGothic-32"/>
     <use x="543.525391" xlink:href="#MalgunGothic-82"/>
     <use x="604.511719" xlink:href="#MalgunGothic-97"/>
     <use x="656.513672" xlink:href="#MalgunGothic-116"/>
     <use x="690.986328" xlink:href="#MalgunGothic-105"/>
     <use x="715.595703" xlink:href="#MalgunGothic-111"/>
     <use x="775.507812" xlink:href="#MalgunGothic-40"/>
     <use x="805.976562" xlink:href="#MalgunGothic-102"/>
     <use x="837.617188" xlink:href="#MalgunGothic-105"/>
     <use x="862.226562" xlink:href="#MalgunGothic-114"/>
     <use x="898.328125" xlink:href="#MalgunGothic-115"/>
     <use x="941.638672" xlink:href="#MalgunGothic-116"/>
     <use x="976.111328" xlink:href="#MalgunGothic-95"/>
     <use x="1018.689453" xlink:href="#MalgunGothic-117"/>
     <use x="1076.501953" xlink:href="#MalgunGothic-115"/>
     <use x="1119.8125" xlink:href="#MalgunGothic-101"/>
     <use x="1173.328125" xlink:href="#MalgunGothic-114"/>
     <use x="1208.679688" xlink:href="#MalgunGothic-41"/>
    </g>
   </g>
  </g>
  <g id="axes_3">
   <g id="patch_40">
    <path d="M 90 268.457143 
L 648 268.457143 
L 648 222.171429 
L 90 222.171429 
z
" style="fill:#ffffff;"/>
   </g>
   <g id="patch_41">
    <path clip-path="url(#pa7aa781f3c)" d="M 115.363636 268.457143 
L 144.770751 268.457143 
L 144.770751 225.926265 
L 115.363636 225.926265 
z
" style="fill:#1f77b4;"/>
   </g>
   <g id="patch_42">
    <path clip-path="url(#pa7aa781f3c)" d="M 152.12253 268.457143 
L 181.529644 268.457143 
L 181.529644 224.37551 
L 152.12253 224.37551 
z
" style="fill:#1f77b4;"/>
   </g>
   <g id="patch_43">
    <path clip-path="url(#pa7aa781f3c)" d="M 188.881423 268.457143 
L 218.288538 268.457143 
L 218.288538 240.586638 
L 188.881423 240.586638 
z
" style="fill:#1f77b4;"/>
   </g>
   <g id="patch_44">
    <path clip-path="url(#pa7aa781f3c)" d="M 225.640316 268.457143 
L 255.047431 268.457143 
L 255.047431 256.790587 
L 225.640316 256.790587 
z
" style="fill:#1f77b4;"/>
   </g>
   <g id="patch_45">
    <path clip-path="url(#pa7aa781f3c)" d="M 262.399209 268.457143 
L 291.806324 268.457143 
L 291.806324 262.010025 
L 262.399209 262.010025 
z
" style="fill:#1f77b4;"/>
   </g>
   <g id="patch_46">
    <path clip-path="url(#pa7aa781f3c)" d="M 299.158103 268.457143 
L 328.565217 268.457143 
L 328.565217 263.883853 
L 299.158103 263.883853 
z
" style="fill:#1f77b4;"/>
   </g>
   <g id="patch_47">
    <path clip-path="url(#pa7aa781f3c)" d="M 335.916996 268.457143 
L 365.324111 268.457143 
L 365.324111 265.018201 
L 335.916996 265.018201 
z
" style="fill:#1f77b4;"/>
   </g>
   <g id="patch_48">
    <path clip-path="url(#pa7aa781f3c)" d="M 372.675889 268.457143 
L 402.083004 268.457143 
L 402.083004 266.332035 
L 372.675889 266.332035 
z
" style="fill:#1f77b4;"/>
   </g>
   <g id="patch_49">
    <path clip-path="url(#pa7aa781f3c)" d="M 409.434783 268.457143 
L 438.841897 268.457143 
L 438.841897 266.777159 
L 409.434783 266.777159 
z
" style="fill:#1f77b4;"/>
   </g>
   <g id="patch_50">
    <path clip-path="url(#pa7aa781f3c)" d="M 446.193676 268.457143 
L 475.600791 268.457143 
L 475.600791 266.985362 
L 446.193676 266.985362 
z
" style="fill:#1f77b4;"/>
   </g>
   <g id="patch_51">
    <path clip-path="url(#pa7aa781f3c)" d="M 482.952569 268.457143 
L 512.359684 268.457143 
L 512.359684 267.200745 
L 482.952569 267.200745 
z
" style="fill:#1f77b4;"/>
   </g>
   <g id="patch_52">
    <path clip-path="url(#pa7aa781f3c)" d="M 519.711462 268.457143 
L 549.118577 268.457143 
L 549.118577 267.143309 
L 519.711462 267.143309 
z
" style="fill:#1f77b4;"/>
   </g>
   <g id="patch_53">
    <path clip-path="url(#pa7aa781f3c)" d="M 556.470356 268.457143 
L 585.87747 268.457143 
L 585.87747 267.035618 
L 556.470356 267.035618 
z
" style="fill:#1f77b4;"/>
   </g>
   <g id="patch_54">
    <path clip-path="url(#pa7aa781f3c)" d="M 593.229249 268.457143 
L 622.636364 268.457143 
L 622.636364 266.540238 
L 593.229249 266.540238 
z
" style="fill:#1f77b4;"/>
   </g>
   <g id="matplotlib.axis_5">
    <g id="xtick_17">
     <g id="line2d_21">
      <g>
       <use style="stroke:#000000;stroke-width:0.8;" x="130.067194" xlink:href="#mcea189a665" y="268.457143"/>
      </g>
     </g>
     <g id="text_27">
      <!-- 2 -->
      <g transform="translate(127.313287 283.04933)scale(0.1 -0.1)">
       <use xlink:href="#MalgunGothic-50"/>
      </g>
     </g>
    </g>
    <g id="xtick_18">
     <g id="line2d_22">
      <g>
       <use style="stroke:#000000;stroke-width:0.8;" x="203.58498" xlink:href="#mcea189a665" y="268.457143"/>
      </g>
     </g>
     <g id="text_28">
      <!-- 4 -->
      <g transform="translate(200.831074 283.04933)scale(0.1 -0.1)">
       <use xlink:href="#MalgunGothic-52"/>
      </g>
     </g>
    </g>
    <g id="xtick_19">
     <g id="line2d_23">
      <g>
       <use style="stroke:#000000;stroke-width:0.8;" x="277.102767" xlink:href="#mcea189a665" y="268.457143"/>
      </g>
     </g>
     <g id="text_29">
      <!-- 6 -->
      <g transform="translate(274.348861 283.04933)scale(0.1 -0.1)">
       <use xlink:href="#MalgunGothic-54"/>
      </g>
     </g>
    </g>
    <g id="xtick_20">
     <g id="line2d_24">
      <g>
       <use style="stroke:#000000;stroke-width:0.8;" x="350.620553" xlink:href="#mcea189a665" y="268.457143"/>
      </g>
     </g>
     <g id="text_30">
      <!-- 8 -->
      <g transform="translate(347.866647 283.04933)scale(0.1 -0.1)">
       <use xlink:href="#MalgunGothic-56"/>
      </g>
     </g>
    </g>
    <g id="xtick_21">
     <g id="line2d_25">
      <g>
       <use style="stroke:#000000;stroke-width:0.8;" x="424.13834" xlink:href="#mcea189a665" y="268.457143"/>
      </g>
     </g>
     <g id="text_31">
      <!-- 10 -->
      <g transform="translate(418.630527 283.04933)scale(0.1 -0.1)">
       <use xlink:href="#MalgunGothic-49"/>
       <use x="55.078125" xlink:href="#MalgunGothic-48"/>
      </g>
     </g>
    </g>
    <g id="xtick_22">
     <g id="line2d_26">
      <g>
       <use style="stroke:#000000;stroke-width:0.8;" x="497.656126" xlink:href="#mcea189a665" y="268.457143"/>
      </g>
     </g>
     <g id="text_32">
      <!-- 12 -->
      <g transform="translate(492.148314 283.04933)scale(0.1 -0.1)">
       <use xlink:href="#MalgunGothic-49"/>
       <use x="55.078125" xlink:href="#MalgunGothic-50"/>
      </g>
     </g>
    </g>
    <g id="xtick_23">
     <g id="line2d_27">
      <g>
       <use style="stroke:#000000;stroke-width:0.8;" x="571.173913" xlink:href="#mcea189a665" y="268.457143"/>
      </g>
     </g>
     <g id="text_33">
      <!-- 14 -->
      <g transform="translate(565.666101 283.04933)scale(0.1 -0.1)">
       <use xlink:href="#MalgunGothic-49"/>
       <use x="55.078125" xlink:href="#MalgunGothic-52"/>
      </g>
     </g>
    </g>
    <g id="xtick_24">
     <g id="line2d_28">
      <g>
       <use style="stroke:#000000;stroke-width:0.8;" x="644.6917" xlink:href="#mcea189a665" y="268.457143"/>
      </g>
     </g>
     <g id="text_34">
      <!-- 16 -->
      <g transform="translate(639.183887 283.04933)scale(0.1 -0.1)">
       <use xlink:href="#MalgunGothic-49"/>
       <use x="55.078125" xlink:href="#MalgunGothic-54"/>
      </g>
     </g>
    </g>
    <g id="text_35">
     <!-- period -->
     <g transform="translate(349.912344 299.283237)scale(0.13 -0.13)">
      <use xlink:href="#MalgunGothic-112"/>
      <use x="60.058594" xlink:href="#MalgunGothic-101"/>
      <use x="113.574219" xlink:href="#MalgunGothic-114"/>
      <use x="148.925781" xlink:href="#MalgunGothic-105"/>
      <use x="173.535156" xlink:href="#MalgunGothic-111"/>
      <use x="233.447266" xlink:href="#MalgunGothic-100"/>
     </g>
    </g>
   </g>
   <g id="matplotlib.axis_6">
    <g id="ytick_5">
     <g id="line2d_29">
      <g>
       <use style="stroke:#000000;stroke-width:0.8;" x="90" xlink:href="#mdd2ce46a6d" y="268.457143"/>
      </g>
     </g>
     <g id="text_36">
      <!-- 0.0 -->
      <g transform="translate(69.796875 272.253237)scale(0.1 -0.1)">
       <use xlink:href="#MalgunGothic-48"/>
       <use x="55.078125" xlink:href="#MalgunGothic-46"/>
       <use x="76.953125" xlink:href="#MalgunGothic-48"/>
      </g>
     </g>
    </g>
    <g id="ytick_6">
     <g id="line2d_30">
      <g>
       <use style="stroke:#000000;stroke-width:0.8;" x="90" xlink:href="#mdd2ce46a6d" y="238.098252"/>
      </g>
     </g>
     <g id="text_37">
      <!-- 0.2 -->
      <g transform="translate(69.796875 241.894345)scale(0.1 -0.1)">
       <use xlink:href="#MalgunGothic-48"/>
       <use x="55.078125" xlink:href="#MalgunGothic-46"/>
       <use x="76.953125" xlink:href="#MalgunGothic-50"/>
      </g>
     </g>
    </g>
    <g id="text_38">
     <!-- ratio -->
     <g transform="translate(62.723594 258.726629)rotate(-90)scale(0.13 -0.13)">
      <use xlink:href="#MalgunGothic-114"/>
      <use x="35.351562" xlink:href="#MalgunGothic-97"/>
      <use x="87.353516" xlink:href="#MalgunGothic-116"/>
      <use x="121.826172" xlink:href="#MalgunGothic-105"/>
      <use x="146.435547" xlink:href="#MalgunGothic-111"/>
     </g>
    </g>
   </g>
   <g id="patch_55">
    <path d="M 90 268.457143 
L 90 222.171429 
" style="fill:none;stroke:#000000;stroke-linecap:square;stroke-linejoin:miter;stroke-width:0.8;"/>
   </g>
   <g id="patch_56">
    <path d="M 648 268.457143 
L 648 222.171429 
" style="fill:none;stroke:#000000;stroke-linecap:square;stroke-linejoin:miter;stroke-width:0.8;"/>
   </g>
   <g id="patch_57">
    <path d="M 90 268.457143 
L 648 268.457143 
" style="fill:none;stroke:#000000;stroke-linecap:square;stroke-linejoin:miter;stroke-width:0.8;"/>
   </g>
   <g id="patch_58">
    <path d="M 90 222.171429 
L 648 222.171429 
" style="fill:none;stroke:#000000;stroke-linecap:square;stroke-linejoin:miter;stroke-width:0.8;"/>
   </g>
   <g id="text_39">
    <!-- Stay Period Ratio(last_user) -->
    <defs>
     <path d="M 8.453125 0 
L 8.453125 75.921875 
L 16.15625 75.921875 
L 16.15625 0 
z
" id="MalgunGothic-108"/>
    </defs>
    <g transform="translate(265.011797 216.171429)scale(0.17 -0.17)">
     <use xlink:href="#MalgunGothic-83"/>
     <use x="50.796875" xlink:href="#MalgunGothic-116"/>
     <use x="85.269531" xlink:href="#MalgunGothic-97"/>
     <use x="137.271484" xlink:href="#MalgunGothic-121"/>
     <use x="186.539062" xlink:href="#MalgunGothic-32"/>
     <use x="221.695312" xlink:href="#MalgunGothic-80"/>
     <use x="274.775391" xlink:href="#MalgunGothic-101"/>
     <use x="328.291016" xlink:href="#MalgunGothic-114"/>
     <use x="363.642578" xlink:href="#MalgunGothic-105"/>
     <use x="388.251953" xlink:href="#MalgunGothic-111"/>
     <use x="448.164062" xlink:href="#MalgunGothic-100"/>
     <use x="508.369141" xlink:href="#MalgunGothic-32"/>
     <use x="543.525391" xlink:href="#MalgunGothic-82"/>
     <use x="604.511719" xlink:href="#MalgunGothic-97"/>
     <use x="656.513672" xlink:href="#MalgunGothic-116"/>
     <use x="690.986328" xlink:href="#MalgunGothic-105"/>
     <use x="715.595703" xlink:href="#MalgunGothic-111"/>
     <use x="775.507812" xlink:href="#MalgunGothic-40"/>
     <use x="805.976562" xlink:href="#MalgunGothic-108"/>
     <use x="830.585938" xlink:href="#MalgunGothic-97"/>
     <use x="882.587891" xlink:href="#MalgunGothic-115"/>
     <use x="925.898438" xlink:href="#MalgunGothic-116"/>
     <use x="960.371094" xlink:href="#MalgunGothic-95"/>
     <use x="1002.949219" xlink:href="#MalgunGothic-117"/>
     <use x="1060.761719" xlink:href="#MalgunGothic-115"/>
     <use x="1104.072266" xlink:href="#MalgunGothic-101"/>
     <use x="1157.587891" xlink:href="#MalgunGothic-114"/>
     <use x="1192.939453" xlink:href="#MalgunGothic-41"/>
    </g>
   </g>
  </g>
  <g id="axes_4">
   <g id="patch_59">
    <path d="M 90 347.142857 
L 648 347.142857 
L 648 300.857143 
L 90 300.857143 
z
" style="fill:#ffffff;"/>
   </g>
   <g id="patch_60">
    <path clip-path="url(#pe4a6494d40)" d="M 115.363636 347.142857 
L 144.770751 347.142857 
L 144.770751 303.061224 
L 115.363636 303.061224 
z
" style="fill:#1f77b4;"/>
   </g>
   <g id="patch_61">
    <path clip-path="url(#pe4a6494d40)" d="M 152.12253 347.142857 
L 181.529644 347.142857 
L 181.529644 315.922038 
L 152.12253 315.922038 
z
" style="fill:#1f77b4;"/>
   </g>
   <g id="patch_62">
    <path clip-path="url(#pe4a6494d40)" d="M 188.881423 347.142857 
L 218.288538 347.142857 
L 218.288538 330.80415 
L 188.881423 330.80415 
z
" style="fill:#1f77b4;"/>
   </g>
   <g id="patch_63">
    <path clip-path="url(#pe4a6494d40)" d="M 225.640316 347.142857 
L 255.047431 347.142857 
L 255.047431 337.070965 
L 225.640316 337.070965 
z
" style="fill:#1f77b4;"/>
   </g>
   <g id="patch_64">
    <path clip-path="url(#pe4a6494d40)" d="M 262.399209 347.142857 
L 291.806324 347.142857 
L 291.806324 339.897639 
L 262.399209 339.897639 
z
" style="fill:#1f77b4;"/>
   </g>
   <g id="patch_65">
    <path clip-path="url(#pe4a6494d40)" d="M 299.158103 347.142857 
L 328.565217 347.142857 
L 328.565217 340.940535 
L 299.158103 340.940535 
z
" style="fill:#1f77b4;"/>
   </g>
   <g id="patch_66">
    <path clip-path="url(#pe4a6494d40)" d="M 335.916996 347.142857 
L 365.324111 347.142857 
L 365.324111 340.179205 
L 335.916996 340.179205 
z
" style="fill:#1f77b4;"/>
   </g>
   <g id="patch_67">
    <path clip-path="url(#pe4a6494d40)" d="M 372.675889 347.142857 
L 402.083004 347.142857 
L 402.083004 342.120282 
L 372.675889 342.120282 
z
" style="fill:#1f77b4;"/>
   </g>
   <g id="patch_68">
    <path clip-path="url(#pe4a6494d40)" d="M 409.434783 347.142857 
L 438.841897 347.142857 
L 438.841897 342.999586 
L 409.434783 342.999586 
z
" style="fill:#1f77b4;"/>
   </g>
   <g id="patch_69">
    <path clip-path="url(#pe4a6494d40)" d="M 446.193676 347.142857 
L 475.600791 347.142857 
L 475.600791 343.191492 
L 446.193676 343.191492 
z
" style="fill:#1f77b4;"/>
   </g>
   <g id="patch_70">
    <path clip-path="url(#pe4a6494d40)" d="M 482.952569 347.142857 
L 512.359684 347.142857 
L 512.359684 343.372386 
L 482.952569 343.372386 
z
" style="fill:#1f77b4;"/>
   </g>
   <g id="patch_71">
    <path clip-path="url(#pe4a6494d40)" d="M 519.711462 347.142857 
L 549.118577 347.142857 
L 549.118577 343.317332 
L 519.711462 343.317332 
z
" style="fill:#1f77b4;"/>
   </g>
   <g id="patch_72">
    <path clip-path="url(#pe4a6494d40)" d="M 556.470356 347.142857 
L 585.87747 347.142857 
L 585.87747 343.32205 
L 556.470356 343.32205 
z
" style="fill:#1f77b4;"/>
   </g>
   <g id="patch_73">
    <path clip-path="url(#pe4a6494d40)" d="M 593.229249 347.142857 
L 622.636364 347.142857 
L 622.636364 341.959836 
L 593.229249 341.959836 
z
" style="fill:#1f77b4;"/>
   </g>
   <g id="matplotlib.axis_7">
    <g id="xtick_25">
     <g id="line2d_31">
      <g>
       <use style="stroke:#000000;stroke-width:0.8;" x="130.067194" xlink:href="#mcea189a665" y="347.142857"/>
      </g>
     </g>
     <g id="text_40">
      <!-- 2 -->
      <g transform="translate(127.313287 361.735045)scale(0.1 -0.1)">
       <use xlink:href="#MalgunGothic-50"/>
      </g>
     </g>
    </g>
    <g id="xtick_26">
     <g id="line2d_32">
      <g>
       <use style="stroke:#000000;stroke-width:0.8;" x="203.58498" xlink:href="#mcea189a665" y="347.142857"/>
      </g>
     </g>
     <g id="text_41">
      <!-- 4 -->
      <g transform="translate(200.831074 361.735045)scale(0.1 -0.1)">
       <use xlink:href="#MalgunGothic-52"/>
      </g>
     </g>
    </g>
    <g id="xtick_27">
     <g id="line2d_33">
      <g>
       <use style="stroke:#000000;stroke-width:0.8;" x="277.102767" xlink:href="#mcea189a665" y="347.142857"/>
      </g>
     </g>
     <g id="text_42">
      <!-- 6 -->
      <g transform="translate(274.348861 361.735045)scale(0.1 -0.1)">
       <use xlink:href="#MalgunGothic-54"/>
      </g>
     </g>
    </g>
    <g id="xtick_28">
     <g id="line2d_34">
      <g>
       <use style="stroke:#000000;stroke-width:0.8;" x="350.620553" xlink:href="#mcea189a665" y="347.142857"/>
      </g>
     </g>
     <g id="text_43">
      <!-- 8 -->
      <g transform="translate(347.866647 361.735045)scale(0.1 -0.1)">
       <use xlink:href="#MalgunGothic-56"/>
      </g>
     </g>
    </g>
    <g id="xtick_29">
     <g id="line2d_35">
      <g>
       <use style="stroke:#000000;stroke-width:0.8;" x="424.13834" xlink:href="#mcea189a665" y="347.142857"/>
      </g>
     </g>
     <g id="text_44">
      <!-- 10 -->
      <g transform="translate(418.630527 361.735045)scale(0.1 -0.1)">
       <use xlink:href="#MalgunGothic-49"/>
       <use x="55.078125" xlink:href="#MalgunGothic-48"/>
      </g>
     </g>
    </g>
    <g id="xtick_30">
     <g id="line2d_36">
      <g>
       <use style="stroke:#000000;stroke-width:0.8;" x="497.656126" xlink:href="#mcea189a665" y="347.142857"/>
      </g>
     </g>
     <g id="text_45">
      <!-- 12 -->
      <g transform="translate(492.148314 361.735045)scale(0.1 -0.1)">
       <use xlink:href="#MalgunGothic-49"/>
       <use x="55.078125" xlink:href="#MalgunGothic-50"/>
      </g>
     </g>
    </g>
    <g id="xtick_31">
     <g id="line2d_37">
      <g>
       <use style="stroke:#000000;stroke-width:0.8;" x="571.173913" xlink:href="#mcea189a665" y="347.142857"/>
      </g>
     </g>
     <g id="text_46">
      <!-- 14 -->
      <g transform="translate(565.666101 361.735045)scale(0.1 -0.1)">
       <use xlink:href="#MalgunGothic-49"/>
       <use x="55.078125" xlink:href="#MalgunGothic-52"/>
      </g>
     </g>
    </g>
    <g id="xtick_32">
     <g id="line2d_38">
      <g>
       <use style="stroke:#000000;stroke-width:0.8;" x="644.6917" xlink:href="#mcea189a665" y="347.142857"/>
      </g>
     </g>
     <g id="text_47">
      <!-- 16 -->
      <g transform="translate(639.183887 361.735045)scale(0.1 -0.1)">
       <use xlink:href="#MalgunGothic-49"/>
       <use x="55.078125" xlink:href="#MalgunGothic-54"/>
      </g>
     </g>
    </g>
    <g id="text_48">
     <!-- period -->
     <g transform="translate(349.912344 377.968951)scale(0.13 -0.13)">
      <use xlink:href="#MalgunGothic-112"/>
      <use x="60.058594" xlink:href="#MalgunGothic-101"/>
      <use x="113.574219" xlink:href="#MalgunGothic-114"/>
      <use x="148.925781" xlink:href="#MalgunGothic-105"/>
      <use x="173.535156" xlink:href="#MalgunGothic-111"/>
      <use x="233.447266" xlink:href="#MalgunGothic-100"/>
     </g>
    </g>
   </g>
   <g id="matplotlib.axis_8">
    <g id="ytick_7">
     <g id="line2d_39">
      <g>
       <use style="stroke:#000000;stroke-width:0.8;" x="90" xlink:href="#mdd2ce46a6d" y="347.142857"/>
      </g>
     </g>
     <g id="text_49">
      <!-- 0.0 -->
      <g transform="translate(69.796875 350.938951)scale(0.1 -0.1)">
       <use xlink:href="#MalgunGothic-48"/>
       <use x="55.078125" xlink:href="#MalgunGothic-46"/>
       <use x="76.953125" xlink:href="#MalgunGothic-48"/>
      </g>
     </g>
    </g>
    <g id="ytick_8">
     <g id="line2d_40">
      <g>
       <use style="stroke:#000000;stroke-width:0.8;" x="90" xlink:href="#mdd2ce46a6d" y="316.774601"/>
      </g>
     </g>
     <g id="text_50">
      <!-- 0.2 -->
      <g transform="translate(69.796875 320.570695)scale(0.1 -0.1)">
       <use xlink:href="#MalgunGothic-48"/>
       <use x="55.078125" xlink:href="#MalgunGothic-46"/>
       <use x="76.953125" xlink:href="#MalgunGothic-50"/>
      </g>
     </g>
    </g>
    <g id="text_51">
     <!-- ratio -->
     <g transform="translate(62.723594 337.412344)rotate(-90)scale(0.13 -0.13)">
      <use xlink:href="#MalgunGothic-114"/>
      <use x="35.351562" xlink:href="#MalgunGothic-97"/>
      <use x="87.353516" xlink:href="#MalgunGothic-116"/>
      <use x="121.826172" xlink:href="#MalgunGothic-105"/>
      <use x="146.435547" xlink:href="#MalgunGothic-111"/>
     </g>
    </g>
   </g>
   <g id="patch_74">
    <path d="M 90 347.142857 
L 90 300.857143 
" style="fill:none;stroke:#000000;stroke-linecap:square;stroke-linejoin:miter;stroke-width:0.8;"/>
   </g>
   <g id="patch_75">
    <path d="M 648 347.142857 
L 648 300.857143 
" style="fill:none;stroke:#000000;stroke-linecap:square;stroke-linejoin:miter;stroke-width:0.8;"/>
   </g>
   <g id="patch_76">
    <path d="M 90 347.142857 
L 648 347.142857 
" style="fill:none;stroke:#000000;stroke-linecap:square;stroke-linejoin:miter;stroke-width:0.8;"/>
   </g>
   <g id="patch_77">
    <path d="M 90 300.857143 
L 648 300.857143 
" style="fill:none;stroke:#000000;stroke-linecap:square;stroke-linejoin:miter;stroke-width:0.8;"/>
   </g>
   <g id="text_52">
    <!-- Stay Period Ratio(neither_user) -->
    <defs>
     <path d="M 50.59375 0 
L 42.828125 0 
L 42.828125 29.296875 
Q 42.828125 45.953125 30.671875 45.953125 
Q 24.421875 45.953125 20.28125 41.234375 
Q 16.15625 36.53125 16.15625 29.25 
L 16.15625 0 
L 8.40625 0 
L 8.40625 51.3125 
L 16.15625 51.3125 
L 16.15625 42.71875 
L 16.359375 42.71875 
Q 22.125 52.484375 33.203125 52.484375 
Q 41.65625 52.484375 46.125 47.0625 
Q 50.59375 41.65625 50.59375 31.34375 
z
" id="MalgunGothic-110"/>
    </defs>
    <g transform="translate(251.178047 294.857143)scale(0.17 -0.17)">
     <use xlink:href="#MalgunGothic-83"/>
     <use x="50.796875" xlink:href="#MalgunGothic-116"/>
     <use x="85.269531" xlink:href="#MalgunGothic-97"/>
     <use x="137.271484" xlink:href="#MalgunGothic-121"/>
     <use x="186.539062" xlink:href="#MalgunGothic-32"/>
     <use x="221.695312" xlink:href="#MalgunGothic-80"/>
     <use x="274.775391" xlink:href="#MalgunGothic-101"/>
     <use x="328.291016" xlink:href="#MalgunGothic-114"/>
     <use x="363.642578" xlink:href="#MalgunGothic-105"/>
     <use x="388.251953" xlink:href="#MalgunGothic-111"/>
     <use x="448.164062" xlink:href="#MalgunGothic-100"/>
     <use x="508.369141" xlink:href="#MalgunGothic-32"/>
     <use x="543.525391" xlink:href="#MalgunGothic-82"/>
     <use x="604.511719" xlink:href="#MalgunGothic-97"/>
     <use x="656.513672" xlink:href="#MalgunGothic-116"/>
     <use x="690.986328" xlink:href="#MalgunGothic-105"/>
     <use x="715.595703" xlink:href="#MalgunGothic-111"/>
     <use x="775.507812" xlink:href="#MalgunGothic-40"/>
     <use x="805.976562" xlink:href="#MalgunGothic-110"/>
     <use x="863.789062" xlink:href="#MalgunGothic-101"/>
     <use x="917.304688" xlink:href="#MalgunGothic-105"/>
     <use x="941.914062" xlink:href="#MalgunGothic-116"/>
     <use x="976.386719" xlink:href="#MalgunGothic-104"/>
     <use x="1034.248047" xlink:href="#MalgunGothic-101"/>
     <use x="1087.763672" xlink:href="#MalgunGothic-114"/>
     <use x="1123.115234" xlink:href="#MalgunGothic-95"/>
     <use x="1165.693359" xlink:href="#MalgunGothic-117"/>
     <use x="1223.505859" xlink:href="#MalgunGothic-115"/>
     <use x="1266.816406" xlink:href="#MalgunGothic-101"/>
     <use x="1320.332031" xlink:href="#MalgunGothic-114"/>
     <use x="1355.683594" xlink:href="#MalgunGothic-41"/>
    </g>
   </g>
  </g>
  <g id="axes_5">
   <g id="patch_78">
    <path d="M 90 425.828571 
L 648 425.828571 
L 648 379.542857 
L 90 379.542857 
z
" style="fill:#ffffff;"/>
   </g>
   <g id="patch_79">
    <path clip-path="url(#pc8eb0b87b8)" d="M 115.363636 425.828571 
L 144.770751 425.828571 
L 144.770751 421.76279 
L 115.363636 421.76279 
z
" style="fill:#1f77b4;"/>
   </g>
   <g id="patch_80">
    <path clip-path="url(#pc8eb0b87b8)" d="M 152.12253 425.828571 
L 181.529644 425.828571 
L 181.529644 381.746939 
L 152.12253 381.746939 
z
" style="fill:#1f77b4;"/>
   </g>
   <g id="patch_81">
    <path clip-path="url(#pc8eb0b87b8)" d="M 188.881423 425.828571 
L 218.288538 425.828571 
L 218.288538 408.85215 
L 188.881423 408.85215 
z
" style="fill:#1f77b4;"/>
   </g>
   <g id="patch_82">
    <path clip-path="url(#pc8eb0b87b8)" d="M 225.640316 425.828571 
L 255.047431 425.828571 
L 255.047431 422.618744 
L 225.640316 422.618744 
z
" style="fill:#1f77b4;"/>
   </g>
   <g id="patch_83">
    <path clip-path="url(#pc8eb0b87b8)" d="M 262.399209 425.828571 
L 291.806324 425.828571 
L 291.806324 424.901288 
L 262.399209 424.901288 
z
" style="fill:#1f77b4;"/>
   </g>
   <g id="patch_84">
    <path clip-path="url(#pc8eb0b87b8)" d="M 299.158103 425.828571 
L 328.565217 425.828571 
L 328.565217 424.758629 
L 299.158103 424.758629 
z
" style="fill:#1f77b4;"/>
   </g>
   <g id="patch_85">
    <path clip-path="url(#pc8eb0b87b8)" d="M 335.916996 425.828571 
L 365.324111 425.828571 
L 365.324111 425.614583 
L 335.916996 425.614583 
z
" style="fill:#1f77b4;"/>
   </g>
   <g id="patch_86">
    <path clip-path="url(#pc8eb0b87b8)" d="M 372.675889 425.828571 
L 402.083004 425.828571 
L 402.083004 425.757242 
L 372.675889 425.757242 
z
" style="fill:#1f77b4;"/>
   </g>
   <g id="patch_87">
    <path clip-path="url(#pc8eb0b87b8)" d="M 409.434783 425.828571 
L 438.841897 425.828571 
L 438.841897 425.757242 
L 409.434783 425.757242 
z
" style="fill:#1f77b4;"/>
   </g>
   <g id="patch_88">
    <path clip-path="url(#pc8eb0b87b8)" d="M 446.193676 425.828571 
L 475.600791 425.828571 
L 475.600791 425.400594 
L 446.193676 425.400594 
z
" style="fill:#1f77b4;"/>
   </g>
   <g id="patch_89">
    <path clip-path="url(#pc8eb0b87b8)" d="M 482.952569 425.828571 
L 512.359684 425.828571 
L 512.359684 425.828571 
L 482.952569 425.828571 
z
" style="fill:#1f77b4;"/>
   </g>
   <g id="patch_90">
    <path clip-path="url(#pc8eb0b87b8)" d="M 519.711462 425.828571 
L 549.118577 425.828571 
L 549.118577 425.828571 
L 519.711462 425.828571 
z
" style="fill:#1f77b4;"/>
   </g>
   <g id="patch_91">
    <path clip-path="url(#pc8eb0b87b8)" d="M 556.470356 425.828571 
L 585.87747 425.828571 
L 585.87747 425.828571 
L 556.470356 425.828571 
z
" style="fill:#1f77b4;"/>
   </g>
   <g id="patch_92">
    <path clip-path="url(#pc8eb0b87b8)" d="M 593.229249 425.828571 
L 622.636364 425.828571 
L 622.636364 425.828571 
L 593.229249 425.828571 
z
" style="fill:#1f77b4;"/>
   </g>
   <g id="matplotlib.axis_9">
    <g id="xtick_33">
     <g id="line2d_41">
      <g>
       <use style="stroke:#000000;stroke-width:0.8;" x="130.067194" xlink:href="#mcea189a665" y="425.828571"/>
      </g>
     </g>
     <g id="text_53">
      <!-- 2 -->
      <g transform="translate(127.313287 440.420759)scale(0.1 -0.1)">
       <use xlink:href="#MalgunGothic-50"/>
      </g>
     </g>
    </g>
    <g id="xtick_34">
     <g id="line2d_42">
      <g>
       <use style="stroke:#000000;stroke-width:0.8;" x="203.58498" xlink:href="#mcea189a665" y="425.828571"/>
      </g>
     </g>
     <g id="text_54">
      <!-- 4 -->
      <g transform="translate(200.831074 440.420759)scale(0.1 -0.1)">
       <use xlink:href="#MalgunGothic-52"/>
      </g>
     </g>
    </g>
    <g id="xtick_35">
     <g id="line2d_43">
      <g>
       <use style="stroke:#000000;stroke-width:0.8;" x="277.102767" xlink:href="#mcea189a665" y="425.828571"/>
      </g>
     </g>
     <g id="text_55">
      <!-- 6 -->
      <g transform="translate(274.348861 440.420759)scale(0.1 -0.1)">
       <use xlink:href="#MalgunGothic-54"/>
      </g>
     </g>
    </g>
    <g id="xtick_36">
     <g id="line2d_44">
      <g>
       <use style="stroke:#000000;stroke-width:0.8;" x="350.620553" xlink:href="#mcea189a665" y="425.828571"/>
      </g>
     </g>
     <g id="text_56">
      <!-- 8 -->
      <g transform="translate(347.866647 440.420759)scale(0.1 -0.1)">
       <use xlink:href="#MalgunGothic-56"/>
      </g>
     </g>
    </g>
    <g id="xtick_37">
     <g id="line2d_45">
      <g>
       <use style="stroke:#000000;stroke-width:0.8;" x="424.13834" xlink:href="#mcea189a665" y="425.828571"/>
      </g>
     </g>
     <g id="text_57">
      <!-- 10 -->
      <g transform="translate(418.630527 440.420759)scale(0.1 -0.1)">
       <use xlink:href="#MalgunGothic-49"/>
       <use x="55.078125" xlink:href="#MalgunGothic-48"/>
      </g>
     </g>
    </g>
    <g id="xtick_38">
     <g id="line2d_46">
      <g>
       <use style="stroke:#000000;stroke-width:0.8;" x="497.656126" xlink:href="#mcea189a665" y="425.828571"/>
      </g>
     </g>
     <g id="text_58">
      <!-- 12 -->
      <g transform="translate(492.148314 440.420759)scale(0.1 -0.1)">
       <use xlink:href="#MalgunGothic-49"/>
       <use x="55.078125" xlink:href="#MalgunGothic-50"/>
      </g>
     </g>
    </g>
    <g id="xtick_39">
     <g id="line2d_47">
      <g>
       <use style="stroke:#000000;stroke-width:0.8;" x="571.173913" xlink:href="#mcea189a665" y="425.828571"/>
      </g>
     </g>
     <g id="text_59">
      <!-- 14 -->
      <g transform="translate(565.666101 440.420759)scale(0.1 -0.1)">
       <use xlink:href="#MalgunGothic-49"/>
       <use x="55.078125" xlink:href="#MalgunGothic-52"/>
      </g>
     </g>
    </g>
    <g id="xtick_40">
     <g id="line2d_48">
      <g>
       <use style="stroke:#000000;stroke-width:0.8;" x="644.6917" xlink:href="#mcea189a665" y="425.828571"/>
      </g>
     </g>
     <g id="text_60">
      <!-- 16 -->
      <g transform="translate(639.183887 440.420759)scale(0.1 -0.1)">
       <use xlink:href="#MalgunGothic-49"/>
       <use x="55.078125" xlink:href="#MalgunGothic-54"/>
      </g>
     </g>
    </g>
    <g id="text_61">
     <!-- period -->
     <g transform="translate(349.912344 456.654665)scale(0.13 -0.13)">
      <use xlink:href="#MalgunGothic-112"/>
      <use x="60.058594" xlink:href="#MalgunGothic-101"/>
      <use x="113.574219" xlink:href="#MalgunGothic-114"/>
      <use x="148.925781" xlink:href="#MalgunGothic-105"/>
      <use x="173.535156" xlink:href="#MalgunGothic-111"/>
      <use x="233.447266" xlink:href="#MalgunGothic-100"/>
     </g>
    </g>
   </g>
   <g id="matplotlib.axis_10">
    <g id="ytick_9">
     <g id="line2d_49">
      <g>
       <use style="stroke:#000000;stroke-width:0.8;" x="90" xlink:href="#mdd2ce46a6d" y="425.828571"/>
      </g>
     </g>
     <g id="text_62">
      <!-- 0.0 -->
      <g transform="translate(69.796875 429.624665)scale(0.1 -0.1)">
       <use xlink:href="#MalgunGothic-48"/>
       <use x="55.078125" xlink:href="#MalgunGothic-46"/>
       <use x="76.953125" xlink:href="#MalgunGothic-48"/>
      </g>
     </g>
    </g>
    <g id="ytick_10">
     <g id="line2d_50">
      <g>
       <use style="stroke:#000000;stroke-width:0.8;" x="90" xlink:href="#mdd2ce46a6d" y="390.16382"/>
      </g>
     </g>
     <g id="text_63">
      <!-- 0.5 -->
      <defs>
       <path d="M 48 21.921875 
Q 48 11.28125 41.1875 5.03125 
Q 34.375 -1.21875 22.953125 -1.21875 
Q 12.9375 -1.21875 8.0625 1.765625 
L 8.0625 10.15625 
Q 15.53125 5.375 23.046875 5.375 
Q 30.765625 5.375 35.46875 9.84375 
Q 40.1875 14.3125 40.1875 21.4375 
Q 40.1875 28.71875 35.390625 32.6875 
Q 30.609375 36.671875 21.578125 36.671875 
Q 15.53125 36.671875 9.421875 35.9375 
L 11.859375 71.875 
L 44.828125 71.875 
L 44.828125 64.796875 
L 18.84375 64.796875 
L 17.28125 43.171875 
Q 21.046875 43.5 24.171875 43.5 
Q 35.359375 43.5 41.671875 37.71875 
Q 48 31.9375 48 21.921875 
z
" id="MalgunGothic-53"/>
      </defs>
      <g transform="translate(69.796875 393.959914)scale(0.1 -0.1)">
       <use xlink:href="#MalgunGothic-48"/>
       <use x="55.078125" xlink:href="#MalgunGothic-46"/>
       <use x="76.953125" xlink:href="#MalgunGothic-53"/>
      </g>
     </g>
    </g>
    <g id="text_64">
     <!-- ratio -->
     <g transform="translate(62.723594 416.098058)rotate(-90)scale(0.13 -0.13)">
      <use xlink:href="#MalgunGothic-114"/>
      <use x="35.351562" xlink:href="#MalgunGothic-97"/>
      <use x="87.353516" xlink:href="#MalgunGothic-116"/>
      <use x="121.826172" xlink:href="#MalgunGothic-105"/>
      <use x="146.435547" xlink:href="#MalgunGothic-111"/>
     </g>
    </g>
   </g>
   <g id="patch_93">
    <path d="M 90 425.828571 
L 90 379.542857 
" style="fill:none;stroke:#000000;stroke-linecap:square;stroke-linejoin:miter;stroke-width:0.8;"/>
   </g>
   <g id="patch_94">
    <path d="M 648 425.828571 
L 648 379.542857 
" style="fill:none;stroke:#000000;stroke-linecap:square;stroke-linejoin:miter;stroke-width:0.8;"/>
   </g>
   <g id="patch_95">
    <path d="M 90 425.828571 
L 648 425.828571 
" style="fill:none;stroke:#000000;stroke-linecap:square;stroke-linejoin:miter;stroke-width:0.8;"/>
   </g>
   <g id="patch_96">
    <path d="M 90 379.542857 
L 648 379.542857 
" style="fill:none;stroke:#000000;stroke-linecap:square;stroke-linejoin:miter;stroke-width:0.8;"/>
   </g>
   <g id="text_65">
    <!-- Stay Period Ratio(domestic_tourist) -->
    <defs>
     <path d="M 80.71875 0 
L 72.953125 0 
L 72.953125 29.4375 
Q 72.953125 38.484375 70.234375 42.21875 
Q 67.53125 45.953125 61.28125 45.953125 
Q 56 45.953125 52.21875 40.984375 
Q 48.4375 36.03125 48.4375 29.296875 
L 48.4375 0 
L 40.71875 0 
L 40.71875 30.515625 
Q 40.71875 45.953125 28.8125 45.953125 
Q 23.390625 45.953125 19.765625 41.28125 
Q 16.15625 36.625 16.15625 29.296875 
L 16.15625 0 
L 8.40625 0 
L 8.40625 51.3125 
L 16.15625 51.3125 
L 16.15625 43.171875 
L 16.359375 43.171875 
Q 21.734375 52.484375 32.234375 52.484375 
Q 37.203125 52.484375 41.1875 49.625 
Q 45.171875 46.78125 46.734375 41.796875 
Q 52.4375 52.484375 63.765625 52.484375 
Q 80.71875 52.484375 80.71875 31.59375 
z
" id="MalgunGothic-109"/>
     <path d="M 43.171875 2.390625 
Q 37.109375 -1.21875 29.25 -1.21875 
Q 18.5 -1.21875 11.71875 5.8125 
Q 4.9375 12.84375 4.9375 24.46875 
Q 4.9375 37.203125 12.140625 44.84375 
Q 19.34375 52.484375 31.390625 52.484375 
Q 38.03125 52.484375 43.21875 50 
L 43.21875 41.890625 
Q 37.453125 45.953125 30.953125 45.953125 
Q 23.09375 45.953125 17.9375 40.265625 
Q 12.796875 34.578125 12.796875 25.140625 
Q 12.796875 16.15625 17.5 10.765625 
Q 22.21875 5.375 30.421875 5.375 
Q 37.203125 5.375 43.171875 9.859375 
z
" id="MalgunGothic-99"/>
    </defs>
    <g transform="translate(234.757109 373.542857)scale(0.17 -0.17)">
     <use xlink:href="#MalgunGothic-83"/>
     <use x="50.796875" xlink:href="#MalgunGothic-116"/>
     <use x="85.269531" xlink:href="#MalgunGothic-97"/>
     <use x="137.271484" xlink:href="#MalgunGothic-121"/>
     <use x="186.539062" xlink:href="#MalgunGothic-32"/>
     <use x="221.695312" xlink:href="#MalgunGothic-80"/>
     <use x="274.775391" xlink:href="#MalgunGothic-101"/>
     <use x="328.291016" xlink:href="#MalgunGothic-114"/>
     <use x="363.642578" xlink:href="#MalgunGothic-105"/>
     <use x="388.251953" xlink:href="#MalgunGothic-111"/>
     <use x="448.164062" xlink:href="#MalgunGothic-100"/>
     <use x="508.369141" xlink:href="#MalgunGothic-32"/>
     <use x="543.525391" xlink:href="#MalgunGothic-82"/>
     <use x="604.511719" xlink:href="#MalgunGothic-97"/>
     <use x="656.513672" xlink:href="#MalgunGothic-116"/>
     <use x="690.986328" xlink:href="#MalgunGothic-105"/>
     <use x="715.595703" xlink:href="#MalgunGothic-111"/>
     <use x="775.507812" xlink:href="#MalgunGothic-40"/>
     <use x="805.976562" xlink:href="#MalgunGothic-100"/>
     <use x="866.181641" xlink:href="#MalgunGothic-111"/>
     <use x="926.09375" xlink:href="#MalgunGothic-109"/>
     <use x="1014.082031" xlink:href="#MalgunGothic-101"/>
     <use x="1067.597656" xlink:href="#MalgunGothic-115"/>
     <use x="1110.908203" xlink:href="#MalgunGothic-116"/>
     <use x="1145.380859" xlink:href="#MalgunGothic-105"/>
     <use x="1169.990234" xlink:href="#MalgunGothic-99"/>
     <use x="1217.255859" xlink:href="#MalgunGothic-95"/>
     <use x="1259.833984" xlink:href="#MalgunGothic-116"/>
     <use x="1293.431641" xlink:href="#MalgunGothic-111"/>
     <use x="1353.34375" xlink:href="#MalgunGothic-117"/>
     <use x="1411.15625" xlink:href="#MalgunGothic-114"/>
     <use x="1446.507812" xlink:href="#MalgunGothic-105"/>
     <use x="1471.117188" xlink:href="#MalgunGothic-115"/>
     <use x="1514.427734" xlink:href="#MalgunGothic-116"/>
     <use x="1548.900391" xlink:href="#MalgunGothic-41"/>
    </g>
   </g>
  </g>
  <g id="axes_6">
   <g id="patch_97">
    <path d="M 90 504.514286 
L 648 504.514286 
L 648 458.228571 
L 90 458.228571 
z
" style="fill:#ffffff;"/>
   </g>
   <g id="patch_98">
    <path clip-path="url(#pec77e8f9b7)" d="M 115.363636 504.514286 
L 144.770751 504.514286 
L 144.770751 494.685273 
L 115.363636 494.685273 
z
" style="fill:#1f77b4;"/>
   </g>
   <g id="patch_99">
    <path clip-path="url(#pec77e8f9b7)" d="M 152.12253 504.514286 
L 181.529644 504.514286 
L 181.529644 462.815444 
L 152.12253 462.815444 
z
" style="fill:#1f77b4;"/>
   </g>
   <g id="patch_100">
    <path clip-path="url(#pec77e8f9b7)" d="M 188.881423 504.514286 
L 218.288538 504.514286 
L 218.288538 460.432653 
L 188.881423 460.432653 
z
" style="fill:#1f77b4;"/>
   </g>
   <g id="patch_101">
    <path clip-path="url(#pec77e8f9b7)" d="M 225.640316 504.514286 
L 255.047431 504.514286 
L 255.047431 472.197683 
L 225.640316 472.197683 
z
" style="fill:#1f77b4;"/>
   </g>
   <g id="patch_102">
    <path clip-path="url(#pec77e8f9b7)" d="M 262.399209 504.514286 
L 291.806324 504.514286 
L 291.806324 496.323442 
L 262.399209 496.323442 
z
" style="fill:#1f77b4;"/>
   </g>
   <g id="patch_103">
    <path clip-path="url(#pec77e8f9b7)" d="M 299.158103 504.514286 
L 328.565217 504.514286 
L 328.565217 499.301931 
L 299.158103 499.301931 
z
" style="fill:#1f77b4;"/>
   </g>
   <g id="patch_104">
    <path clip-path="url(#pec77e8f9b7)" d="M 335.916996 504.514286 
L 365.324111 504.514286 
L 365.324111 501.684721 
L 335.916996 501.684721 
z
" style="fill:#1f77b4;"/>
   </g>
   <g id="patch_105">
    <path clip-path="url(#pec77e8f9b7)" d="M 372.675889 504.514286 
L 402.083004 504.514286 
L 402.083004 503.620739 
L 372.675889 503.620739 
z
" style="fill:#1f77b4;"/>
   </g>
   <g id="patch_106">
    <path clip-path="url(#pec77e8f9b7)" d="M 409.434783 504.514286 
L 438.841897 504.514286 
L 438.841897 503.918588 
L 409.434783 503.918588 
z
" style="fill:#1f77b4;"/>
   </g>
   <g id="patch_107">
    <path clip-path="url(#pec77e8f9b7)" d="M 446.193676 504.514286 
L 475.600791 504.514286 
L 475.600791 502.131495 
L 446.193676 502.131495 
z
" style="fill:#1f77b4;"/>
   </g>
   <g id="patch_108">
    <path clip-path="url(#pec77e8f9b7)" d="M 482.952569 504.514286 
L 512.359684 504.514286 
L 512.359684 504.514286 
L 482.952569 504.514286 
z
" style="fill:#1f77b4;"/>
   </g>
   <g id="patch_109">
    <path clip-path="url(#pec77e8f9b7)" d="M 519.711462 504.514286 
L 549.118577 504.514286 
L 549.118577 504.514286 
L 519.711462 504.514286 
z
" style="fill:#1f77b4;"/>
   </g>
   <g id="patch_110">
    <path clip-path="url(#pec77e8f9b7)" d="M 556.470356 504.514286 
L 585.87747 504.514286 
L 585.87747 504.514286 
L 556.470356 504.514286 
z
" style="fill:#1f77b4;"/>
   </g>
   <g id="patch_111">
    <path clip-path="url(#pec77e8f9b7)" d="M 593.229249 504.514286 
L 622.636364 504.514286 
L 622.636364 504.514286 
L 593.229249 504.514286 
z
" style="fill:#1f77b4;"/>
   </g>
   <g id="matplotlib.axis_11">
    <g id="xtick_41">
     <g id="line2d_51">
      <g>
       <use style="stroke:#000000;stroke-width:0.8;" x="130.067194" xlink:href="#mcea189a665" y="504.514286"/>
      </g>
     </g>
     <g id="text_66">
      <!-- 2 -->
      <g transform="translate(127.313287 519.106473)scale(0.1 -0.1)">
       <use xlink:href="#MalgunGothic-50"/>
      </g>
     </g>
    </g>
    <g id="xtick_42">
     <g id="line2d_52">
      <g>
       <use style="stroke:#000000;stroke-width:0.8;" x="203.58498" xlink:href="#mcea189a665" y="504.514286"/>
      </g>
     </g>
     <g id="text_67">
      <!-- 4 -->
      <g transform="translate(200.831074 519.106473)scale(0.1 -0.1)">
       <use xlink:href="#MalgunGothic-52"/>
      </g>
     </g>
    </g>
    <g id="xtick_43">
     <g id="line2d_53">
      <g>
       <use style="stroke:#000000;stroke-width:0.8;" x="277.102767" xlink:href="#mcea189a665" y="504.514286"/>
      </g>
     </g>
     <g id="text_68">
      <!-- 6 -->
      <g transform="translate(274.348861 519.106473)scale(0.1 -0.1)">
       <use xlink:href="#MalgunGothic-54"/>
      </g>
     </g>
    </g>
    <g id="xtick_44">
     <g id="line2d_54">
      <g>
       <use style="stroke:#000000;stroke-width:0.8;" x="350.620553" xlink:href="#mcea189a665" y="504.514286"/>
      </g>
     </g>
     <g id="text_69">
      <!-- 8 -->
      <g transform="translate(347.866647 519.106473)scale(0.1 -0.1)">
       <use xlink:href="#MalgunGothic-56"/>
      </g>
     </g>
    </g>
    <g id="xtick_45">
     <g id="line2d_55">
      <g>
       <use style="stroke:#000000;stroke-width:0.8;" x="424.13834" xlink:href="#mcea189a665" y="504.514286"/>
      </g>
     </g>
     <g id="text_70">
      <!-- 10 -->
      <g transform="translate(418.630527 519.106473)scale(0.1 -0.1)">
       <use xlink:href="#MalgunGothic-49"/>
       <use x="55.078125" xlink:href="#MalgunGothic-48"/>
      </g>
     </g>
    </g>
    <g id="xtick_46">
     <g id="line2d_56">
      <g>
       <use style="stroke:#000000;stroke-width:0.8;" x="497.656126" xlink:href="#mcea189a665" y="504.514286"/>
      </g>
     </g>
     <g id="text_71">
      <!-- 12 -->
      <g transform="translate(492.148314 519.106473)scale(0.1 -0.1)">
       <use xlink:href="#MalgunGothic-49"/>
       <use x="55.078125" xlink:href="#MalgunGothic-50"/>
      </g>
     </g>
    </g>
    <g id="xtick_47">
     <g id="line2d_57">
      <g>
       <use style="stroke:#000000;stroke-width:0.8;" x="571.173913" xlink:href="#mcea189a665" y="504.514286"/>
      </g>
     </g>
     <g id="text_72">
      <!-- 14 -->
      <g transform="translate(565.666101 519.106473)scale(0.1 -0.1)">
       <use xlink:href="#MalgunGothic-49"/>
       <use x="55.078125" xlink:href="#MalgunGothic-52"/>
      </g>
     </g>
    </g>
    <g id="xtick_48">
     <g id="line2d_58">
      <g>
       <use style="stroke:#000000;stroke-width:0.8;" x="644.6917" xlink:href="#mcea189a665" y="504.514286"/>
      </g>
     </g>
     <g id="text_73">
      <!-- 16 -->
      <g transform="translate(639.183887 519.106473)scale(0.1 -0.1)">
       <use xlink:href="#MalgunGothic-49"/>
       <use x="55.078125" xlink:href="#MalgunGothic-54"/>
      </g>
     </g>
    </g>
    <g id="text_74">
     <!-- period -->
     <g transform="translate(349.912344 535.340379)scale(0.13 -0.13)">
      <use xlink:href="#MalgunGothic-112"/>
      <use x="60.058594" xlink:href="#MalgunGothic-101"/>
      <use x="113.574219" xlink:href="#MalgunGothic-114"/>
      <use x="148.925781" xlink:href="#MalgunGothic-105"/>
      <use x="173.535156" xlink:href="#MalgunGothic-111"/>
      <use x="233.447266" xlink:href="#MalgunGothic-100"/>
     </g>
    </g>
   </g>
   <g id="matplotlib.axis_12">
    <g id="ytick_11">
     <g id="line2d_59">
      <g>
       <use style="stroke:#000000;stroke-width:0.8;" x="90" xlink:href="#mdd2ce46a6d" y="504.514286"/>
      </g>
     </g>
     <g id="text_75">
      <!-- 0.0 -->
      <g transform="translate(69.796875 508.310379)scale(0.1 -0.1)">
       <use xlink:href="#MalgunGothic-48"/>
       <use x="55.078125" xlink:href="#MalgunGothic-46"/>
       <use x="76.953125" xlink:href="#MalgunGothic-48"/>
      </g>
     </g>
    </g>
    <g id="ytick_12">
     <g id="line2d_60">
      <g>
       <use style="stroke:#000000;stroke-width:0.8;" x="90" xlink:href="#mdd2ce46a6d" y="474.729399"/>
      </g>
     </g>
     <g id="text_76">
      <!-- 0.2 -->
      <g transform="translate(69.796875 478.525493)scale(0.1 -0.1)">
       <use xlink:href="#MalgunGothic-48"/>
       <use x="55.078125" xlink:href="#MalgunGothic-46"/>
       <use x="76.953125" xlink:href="#MalgunGothic-50"/>
      </g>
     </g>
    </g>
    <g id="text_77">
     <!-- ratio -->
     <g transform="translate(62.723594 494.783772)rotate(-90)scale(0.13 -0.13)">
      <use xlink:href="#MalgunGothic-114"/>
      <use x="35.351562" xlink:href="#MalgunGothic-97"/>
      <use x="87.353516" xlink:href="#MalgunGothic-116"/>
      <use x="121.826172" xlink:href="#MalgunGothic-105"/>
      <use x="146.435547" xlink:href="#MalgunGothic-111"/>
     </g>
    </g>
   </g>
   <g id="patch_112">
    <path d="M 90 504.514286 
L 90 458.228571 
" style="fill:none;stroke:#000000;stroke-linecap:square;stroke-linejoin:miter;stroke-width:0.8;"/>
   </g>
   <g id="patch_113">
    <path d="M 648 504.514286 
L 648 458.228571 
" style="fill:none;stroke:#000000;stroke-linecap:square;stroke-linejoin:miter;stroke-width:0.8;"/>
   </g>
   <g id="patch_114">
    <path d="M 90 504.514286 
L 648 504.514286 
" style="fill:none;stroke:#000000;stroke-linecap:square;stroke-linejoin:miter;stroke-width:0.8;"/>
   </g>
   <g id="patch_115">
    <path d="M 90 458.228571 
L 648 458.228571 
" style="fill:none;stroke:#000000;stroke-linecap:square;stroke-linejoin:miter;stroke-width:0.8;"/>
   </g>
   <g id="text_78">
    <!-- Stay Period Ratio(foreign_tourist) -->
    <defs>
     <path d="M 51.765625 4.046875 
Q 51.765625 -24.171875 25.046875 -24.171875 
Q 15.671875 -24.171875 8.40625 -20.515625 
L 8.40625 -12.59375 
Q 17 -17.4375 25 -17.4375 
Q 44.09375 -17.4375 44.09375 3.03125 
L 44.09375 8.734375 
L 43.890625 8.734375 
Q 37.84375 -1.21875 26.171875 -1.21875 
Q 16.65625 -1.21875 10.796875 5.65625 
Q 4.9375 12.546875 4.9375 23.96875 
Q 4.9375 37.109375 11.28125 44.796875 
Q 17.625 52.484375 28.375 52.484375 
Q 38.8125 52.484375 43.890625 44.09375 
L 44.09375 44.09375 
L 44.09375 51.3125 
L 51.765625 51.3125 
z
M 44.09375 30.90625 
Q 44.09375 37.15625 39.796875 41.546875 
Q 35.5 45.953125 29.34375 45.953125 
Q 21.625 45.953125 17.203125 40.265625 
Q 12.796875 34.578125 12.796875 24.5625 
Q 12.796875 15.875 17.0625 10.625 
Q 21.34375 5.375 28.171875 5.375 
Q 35.109375 5.375 39.59375 10.40625 
Q 44.09375 15.4375 44.09375 23.09375 
z
" id="MalgunGothic-103"/>
    </defs>
    <g transform="translate(242.372578 452.228571)scale(0.17 -0.17)">
     <use xlink:href="#MalgunGothic-83"/>
     <use x="50.796875" xlink:href="#MalgunGothic-116"/>
     <use x="85.269531" xlink:href="#MalgunGothic-97"/>
     <use x="137.271484" xlink:href="#MalgunGothic-121"/>
     <use x="186.539062" xlink:href="#MalgunGothic-32"/>
     <use x="221.695312" xlink:href="#MalgunGothic-80"/>
     <use x="274.775391" xlink:href="#MalgunGothic-101"/>
     <use x="328.291016" xlink:href="#MalgunGothic-114"/>
     <use x="363.642578" xlink:href="#MalgunGothic-105"/>
     <use x="388.251953" xlink:href="#MalgunGothic-111"/>
     <use x="448.164062" xlink:href="#MalgunGothic-100"/>
     <use x="508.369141" xlink:href="#MalgunGothic-32"/>
     <use x="543.525391" xlink:href="#MalgunGothic-82"/>
     <use x="604.511719" xlink:href="#MalgunGothic-97"/>
     <use x="656.513672" xlink:href="#MalgunGothic-116"/>
     <use x="690.986328" xlink:href="#MalgunGothic-105"/>
     <use x="715.595703" xlink:href="#MalgunGothic-111"/>
     <use x="775.507812" xlink:href="#MalgunGothic-40"/>
     <use x="805.976562" xlink:href="#MalgunGothic-102"/>
     <use x="837.617188" xlink:href="#MalgunGothic-111"/>
     <use x="897.529297" xlink:href="#MalgunGothic-114"/>
     <use x="931.505859" xlink:href="#MalgunGothic-101"/>
     <use x="985.021484" xlink:href="#MalgunGothic-105"/>
     <use x="1009.630859" xlink:href="#MalgunGothic-103"/>
     <use x="1069.835938" xlink:href="#MalgunGothic-110"/>
     <use x="1127.648438" xlink:href="#MalgunGothic-95"/>
     <use x="1170.226562" xlink:href="#MalgunGothic-116"/>
     <use x="1203.824219" xlink:href="#MalgunGothic-111"/>
     <use x="1263.736328" xlink:href="#MalgunGothic-117"/>
     <use x="1321.548828" xlink:href="#MalgunGothic-114"/>
     <use x="1356.900391" xlink:href="#MalgunGothic-105"/>
     <use x="1381.509766" xlink:href="#MalgunGothic-115"/>
     <use x="1424.820312" xlink:href="#MalgunGothic-116"/>
     <use x="1459.292969" xlink:href="#MalgunGothic-41"/>
    </g>
   </g>
  </g>
  <g id="axes_7">
   <g id="patch_116">
    <path d="M 90 583.2 
L 648 583.2 
L 648 536.914286 
L 90 536.914286 
z
" style="fill:#ffffff;"/>
   </g>
   <g id="patch_117">
    <path clip-path="url(#p4a4049ec41)" d="M 115.363636 583.2 
L 144.770751 583.2 
L 144.770751 577.308 
L 115.363636 577.308 
z
" style="fill:#1f77b4;"/>
   </g>
   <g id="patch_118">
    <path clip-path="url(#p4a4049ec41)" d="M 152.12253 583.2 
L 181.529644 583.2 
L 181.529644 539.118367 
L 152.12253 539.118367 
z
" style="fill:#1f77b4;"/>
   </g>
   <g id="patch_119">
    <path clip-path="url(#p4a4049ec41)" d="M 188.881423 583.2 
L 218.288538 583.2 
L 218.288538 557.670037 
L 188.881423 557.670037 
z
" style="fill:#1f77b4;"/>
   </g>
   <g id="patch_120">
    <path clip-path="url(#p4a4049ec41)" d="M 225.640316 583.2 
L 255.047431 583.2 
L 255.047431 571.052822 
L 225.640316 571.052822 
z
" style="fill:#1f77b4;"/>
   </g>
   <g id="patch_121">
    <path clip-path="url(#p4a4049ec41)" d="M 262.399209 583.2 
L 291.806324 583.2 
L 291.806324 580.040328 
L 262.399209 580.040328 
z
" style="fill:#1f77b4;"/>
   </g>
   <g id="patch_122">
    <path clip-path="url(#p4a4049ec41)" d="M 299.158103 583.2 
L 328.565217 583.2 
L 328.565217 580.847997 
L 299.158103 580.847997 
z
" style="fill:#1f77b4;"/>
   </g>
   <g id="patch_123">
    <path clip-path="url(#p4a4049ec41)" d="M 335.916996 583.2 
L 365.324111 583.2 
L 365.324111 582.184117 
L 335.916996 582.184117 
z
" style="fill:#1f77b4;"/>
   </g>
   <g id="patch_124">
    <path clip-path="url(#p4a4049ec41)" d="M 372.675889 583.2 
L 402.083004 583.2 
L 402.083004 582.876525 
L 372.675889 582.876525 
z
" style="fill:#1f77b4;"/>
   </g>
   <g id="patch_125">
    <path clip-path="url(#p4a4049ec41)" d="M 409.434783 583.2 
L 438.841897 583.2 
L 438.841897 582.967438 
L 409.434783 582.967438 
z
" style="fill:#1f77b4;"/>
   </g>
   <g id="patch_126">
    <path clip-path="url(#p4a4049ec41)" d="M 446.193676 583.2 
L 475.600791 583.2 
L 475.600791 582.168285 
L 446.193676 582.168285 
z
" style="fill:#1f77b4;"/>
   </g>
   <g id="patch_127">
    <path clip-path="url(#p4a4049ec41)" d="M 482.952569 583.2 
L 512.359684 583.2 
L 512.359684 583.2 
L 482.952569 583.2 
z
" style="fill:#1f77b4;"/>
   </g>
   <g id="patch_128">
    <path clip-path="url(#p4a4049ec41)" d="M 519.711462 583.2 
L 549.118577 583.2 
L 549.118577 583.2 
L 519.711462 583.2 
z
" style="fill:#1f77b4;"/>
   </g>
   <g id="patch_129">
    <path clip-path="url(#p4a4049ec41)" d="M 556.470356 583.2 
L 585.87747 583.2 
L 585.87747 583.2 
L 556.470356 583.2 
z
" style="fill:#1f77b4;"/>
   </g>
   <g id="patch_130">
    <path clip-path="url(#p4a4049ec41)" d="M 593.229249 583.2 
L 622.636364 583.2 
L 622.636364 583.2 
L 593.229249 583.2 
z
" style="fill:#1f77b4;"/>
   </g>
   <g id="matplotlib.axis_13">
    <g id="xtick_49">
     <g id="line2d_61">
      <g>
       <use style="stroke:#000000;stroke-width:0.8;" x="130.067194" xlink:href="#mcea189a665" y="583.2"/>
      </g>
     </g>
     <g id="text_79">
      <!-- 2 -->
      <g transform="translate(127.313287 597.792188)scale(0.1 -0.1)">
       <use xlink:href="#MalgunGothic-50"/>
      </g>
     </g>
    </g>
    <g id="xtick_50">
     <g id="line2d_62">
      <g>
       <use style="stroke:#000000;stroke-width:0.8;" x="203.58498" xlink:href="#mcea189a665" y="583.2"/>
      </g>
     </g>
     <g id="text_80">
      <!-- 4 -->
      <g transform="translate(200.831074 597.792188)scale(0.1 -0.1)">
       <use xlink:href="#MalgunGothic-52"/>
      </g>
     </g>
    </g>
    <g id="xtick_51">
     <g id="line2d_63">
      <g>
       <use style="stroke:#000000;stroke-width:0.8;" x="277.102767" xlink:href="#mcea189a665" y="583.2"/>
      </g>
     </g>
     <g id="text_81">
      <!-- 6 -->
      <g transform="translate(274.348861 597.792188)scale(0.1 -0.1)">
       <use xlink:href="#MalgunGothic-54"/>
      </g>
     </g>
    </g>
    <g id="xtick_52">
     <g id="line2d_64">
      <g>
       <use style="stroke:#000000;stroke-width:0.8;" x="350.620553" xlink:href="#mcea189a665" y="583.2"/>
      </g>
     </g>
     <g id="text_82">
      <!-- 8 -->
      <g transform="translate(347.866647 597.792188)scale(0.1 -0.1)">
       <use xlink:href="#MalgunGothic-56"/>
      </g>
     </g>
    </g>
    <g id="xtick_53">
     <g id="line2d_65">
      <g>
       <use style="stroke:#000000;stroke-width:0.8;" x="424.13834" xlink:href="#mcea189a665" y="583.2"/>
      </g>
     </g>
     <g id="text_83">
      <!-- 10 -->
      <g transform="translate(418.630527 597.792188)scale(0.1 -0.1)">
       <use xlink:href="#MalgunGothic-49"/>
       <use x="55.078125" xlink:href="#MalgunGothic-48"/>
      </g>
     </g>
    </g>
    <g id="xtick_54">
     <g id="line2d_66">
      <g>
       <use style="stroke:#000000;stroke-width:0.8;" x="497.656126" xlink:href="#mcea189a665" y="583.2"/>
      </g>
     </g>
     <g id="text_84">
      <!-- 12 -->
      <g transform="translate(492.148314 597.792188)scale(0.1 -0.1)">
       <use xlink:href="#MalgunGothic-49"/>
       <use x="55.078125" xlink:href="#MalgunGothic-50"/>
      </g>
     </g>
    </g>
    <g id="xtick_55">
     <g id="line2d_67">
      <g>
       <use style="stroke:#000000;stroke-width:0.8;" x="571.173913" xlink:href="#mcea189a665" y="583.2"/>
      </g>
     </g>
     <g id="text_85">
      <!-- 14 -->
      <g transform="translate(565.666101 597.792188)scale(0.1 -0.1)">
       <use xlink:href="#MalgunGothic-49"/>
       <use x="55.078125" xlink:href="#MalgunGothic-52"/>
      </g>
     </g>
    </g>
    <g id="xtick_56">
     <g id="line2d_68">
      <g>
       <use style="stroke:#000000;stroke-width:0.8;" x="644.6917" xlink:href="#mcea189a665" y="583.2"/>
      </g>
     </g>
     <g id="text_86">
      <!-- 16 -->
      <g transform="translate(639.183887 597.792188)scale(0.1 -0.1)">
       <use xlink:href="#MalgunGothic-49"/>
       <use x="55.078125" xlink:href="#MalgunGothic-54"/>
      </g>
     </g>
    </g>
    <g id="text_87">
     <!-- period -->
     <g transform="translate(349.912344 614.026094)scale(0.13 -0.13)">
      <use xlink:href="#MalgunGothic-112"/>
      <use x="60.058594" xlink:href="#MalgunGothic-101"/>
      <use x="113.574219" xlink:href="#MalgunGothic-114"/>
      <use x="148.925781" xlink:href="#MalgunGothic-105"/>
      <use x="173.535156" xlink:href="#MalgunGothic-111"/>
      <use x="233.447266" xlink:href="#MalgunGothic-100"/>
     </g>
    </g>
   </g>
   <g id="matplotlib.axis_14">
    <g id="ytick_13">
     <g id="line2d_69">
      <g>
       <use style="stroke:#000000;stroke-width:0.8;" x="90" xlink:href="#mdd2ce46a6d" y="583.2"/>
      </g>
     </g>
     <g id="text_88">
      <!-- 0.00 -->
      <g transform="translate(64.289062 586.996094)scale(0.1 -0.1)">
       <use xlink:href="#MalgunGothic-48"/>
       <use x="55.078125" xlink:href="#MalgunGothic-46"/>
       <use x="76.953125" xlink:href="#MalgunGothic-48"/>
       <use x="132.03125" xlink:href="#MalgunGothic-48"/>
      </g>
     </g>
    </g>
    <g id="ytick_14">
     <g id="line2d_70">
      <g>
       <use style="stroke:#000000;stroke-width:0.8;" x="90" xlink:href="#mdd2ce46a6d" y="559.152243"/>
      </g>
     </g>
     <g id="text_89">
      <!-- 0.25 -->
      <g transform="translate(64.289062 562.948337)scale(0.1 -0.1)">
       <use xlink:href="#MalgunGothic-48"/>
       <use x="55.078125" xlink:href="#MalgunGothic-46"/>
       <use x="76.953125" xlink:href="#MalgunGothic-50"/>
       <use x="132.03125" xlink:href="#MalgunGothic-53"/>
      </g>
     </g>
    </g>
    <g id="text_90">
     <!-- ratio -->
     <g transform="translate(57.215781 573.469487)rotate(-90)scale(0.13 -0.13)">
      <use xlink:href="#MalgunGothic-114"/>
      <use x="35.351562" xlink:href="#MalgunGothic-97"/>
      <use x="87.353516" xlink:href="#MalgunGothic-116"/>
      <use x="121.826172" xlink:href="#MalgunGothic-105"/>
      <use x="146.435547" xlink:href="#MalgunGothic-111"/>
     </g>
    </g>
   </g>
   <g id="patch_131">
    <path d="M 90 583.2 
L 90 536.914286 
" style="fill:none;stroke:#000000;stroke-linecap:square;stroke-linejoin:miter;stroke-width:0.8;"/>
   </g>
   <g id="patch_132">
    <path d="M 648 583.2 
L 648 536.914286 
" style="fill:none;stroke:#000000;stroke-linecap:square;stroke-linejoin:miter;stroke-width:0.8;"/>
   </g>
   <g id="patch_133">
    <path d="M 90 583.2 
L 648 583.2 
" style="fill:none;stroke:#000000;stroke-linecap:square;stroke-linejoin:miter;stroke-width:0.8;"/>
   </g>
   <g id="patch_134">
    <path d="M 90 536.914286 
L 648 536.914286 
" style="fill:none;stroke:#000000;stroke-linecap:square;stroke-linejoin:miter;stroke-width:0.8;"/>
   </g>
   <g id="text_91">
    <!-- Stay Period Ratio(total_tourist) -->
    <g transform="translate(252.325547 530.914286)scale(0.17 -0.17)">
     <use xlink:href="#MalgunGothic-83"/>
     <use x="50.796875" xlink:href="#MalgunGothic-116"/>
     <use x="85.269531" xlink:href="#MalgunGothic-97"/>
     <use x="137.271484" xlink:href="#MalgunGothic-121"/>
     <use x="186.539062" xlink:href="#MalgunGothic-32"/>
     <use x="221.695312" xlink:href="#MalgunGothic-80"/>
     <use x="274.775391" xlink:href="#MalgunGothic-101"/>
     <use x="328.291016" xlink:href="#MalgunGothic-114"/>
     <use x="363.642578" xlink:href="#MalgunGothic-105"/>
     <use x="388.251953" xlink:href="#MalgunGothic-111"/>
     <use x="448.164062" xlink:href="#MalgunGothic-100"/>
     <use x="508.369141" xlink:href="#MalgunGothic-32"/>
     <use x="543.525391" xlink:href="#MalgunGothic-82"/>
     <use x="604.511719" xlink:href="#MalgunGothic-97"/>
     <use x="656.513672" xlink:href="#MalgunGothic-116"/>
     <use x="690.986328" xlink:href="#MalgunGothic-105"/>
     <use x="715.595703" xlink:href="#MalgunGothic-111"/>
     <use x="775.507812" xlink:href="#MalgunGothic-40"/>
     <use x="805.976562" xlink:href="#MalgunGothic-116"/>
     <use x="839.574219" xlink:href="#MalgunGothic-111"/>
     <use x="899.486328" xlink:href="#MalgunGothic-116"/>
     <use x="933.958984" xlink:href="#MalgunGothic-97"/>
     <use x="985.960938" xlink:href="#MalgunGothic-108"/>
     <use x="1010.570312" xlink:href="#MalgunGothic-95"/>
     <use x="1053.148438" xlink:href="#MalgunGothic-116"/>
     <use x="1086.746094" xlink:href="#MalgunGothic-111"/>
     <use x="1146.658203" xlink:href="#MalgunGothic-117"/>
     <use x="1204.470703" xlink:href="#MalgunGothic-114"/>
     <use x="1239.822266" xlink:href="#MalgunGothic-105"/>
     <use x="1264.431641" xlink:href="#MalgunGothic-115"/>
     <use x="1307.742188" xlink:href="#MalgunGothic-116"/>
     <use x="1342.214844" xlink:href="#MalgunGothic-41"/>
    </g>
   </g>
  </g>
 </g>
 <defs>
  <clipPath id="pfcbb7ff348">
   <rect height="46.285714" width="558" x="90" y="64.8"/>
  </clipPath>
  <clipPath id="p60a23963dc">
   <rect height="46.285714" width="558" x="90" y="143.485714"/>
  </clipPath>
  <clipPath id="pa7aa781f3c">
   <rect height="46.285714" width="558" x="90" y="222.171429"/>
  </clipPath>
  <clipPath id="pe4a6494d40">
   <rect height="46.285714" width="558" x="90" y="300.857143"/>
  </clipPath>
  <clipPath id="pc8eb0b87b8">
   <rect height="46.285714" width="558" x="90" y="379.542857"/>
  </clipPath>
  <clipPath id="pec77e8f9b7">
   <rect height="46.285714" width="558" x="90" y="458.228571"/>
  </clipPath>
  <clipPath id="p4a4049ec41">
   <rect height="46.285714" width="558" x="90" y="536.914286"/>
  </clipPath>
 </defs>
</svg>
